%FSLAX45Y45*%
G04 Gerber Fmt 4.5, Leading zero omitted, Abs format (unit mm)*
G04 Created by KiCad (PCBNEW (5.1.10)-1) date 2021-12-02 13:26:13*
%MOMM*%
%LPD*%
G01*
G04 APERTURE LIST*
%TA.AperFunction,Profile*%
%ADD10C,0.050000*%
%TD*%
%ADD11C,0.200000*%
%ADD12C,0.300000*%
G04 APERTURE END LIST*
D10*
X16000000Y-14000000D02*
X16000000Y-6500000D01*
X16000000Y-14000000D02*
X6000000Y-14000000D01*
X6000000Y-6500000D02*
X6000000Y-14000000D01*
X6000000Y-6500000D02*
X16000000Y-6500000D01*
D11*
X9073200Y-8971600D02*
X9113200Y-9011600D01*
X9113200Y-8971600D02*
X9073200Y-9011600D01*
X6368100Y-8226550D02*
G75*
G03*
X6368100Y-8226550I-38100J0D01*
G01*
X6368100Y-8480550D02*
G75*
G03*
X6368100Y-8480550I-38100J0D01*
G01*
X6368100Y-8734550D02*
G75*
G03*
X6368100Y-8734550I-38100J0D01*
G01*
X6368100Y-8988550D02*
G75*
G03*
X6368100Y-8988550I-38100J0D01*
G01*
X6368100Y-9242550D02*
G75*
G03*
X6368100Y-9242550I-38100J0D01*
G01*
X6368100Y-9496550D02*
G75*
G03*
X6368100Y-9496550I-38100J0D01*
G01*
X6368100Y-9750550D02*
G75*
G03*
X6368100Y-9750550I-38100J0D01*
G01*
X6368100Y-10004550D02*
G75*
G03*
X6368100Y-10004550I-38100J0D01*
G01*
X6368100Y-10258550D02*
G75*
G03*
X6368100Y-10258550I-38100J0D01*
G01*
X6368100Y-10512550D02*
G75*
G03*
X6368100Y-10512550I-38100J0D01*
G01*
X6368100Y-10766550D02*
G75*
G03*
X6368100Y-10766550I-38100J0D01*
G01*
X6368100Y-11020550D02*
G75*
G03*
X6368100Y-11020550I-38100J0D01*
G01*
X6368100Y-11274550D02*
G75*
G03*
X6368100Y-11274550I-38100J0D01*
G01*
X6368100Y-11528550D02*
G75*
G03*
X6368100Y-11528550I-38100J0D01*
G01*
X6368100Y-11782550D02*
G75*
G03*
X6368100Y-11782550I-38100J0D01*
G01*
X8908100Y-8226550D02*
G75*
G03*
X8908100Y-8226550I-38100J0D01*
G01*
X8908100Y-8480550D02*
G75*
G03*
X8908100Y-8480550I-38100J0D01*
G01*
X8908100Y-8734550D02*
G75*
G03*
X8908100Y-8734550I-38100J0D01*
G01*
X8908100Y-8988550D02*
G75*
G03*
X8908100Y-8988550I-38100J0D01*
G01*
X8908100Y-9242550D02*
G75*
G03*
X8908100Y-9242550I-38100J0D01*
G01*
X8908100Y-9496550D02*
G75*
G03*
X8908100Y-9496550I-38100J0D01*
G01*
X8908100Y-9750550D02*
G75*
G03*
X8908100Y-9750550I-38100J0D01*
G01*
X8908100Y-10004550D02*
G75*
G03*
X8908100Y-10004550I-38100J0D01*
G01*
X8908100Y-10258550D02*
G75*
G03*
X8908100Y-10258550I-38100J0D01*
G01*
X8908100Y-10512550D02*
G75*
G03*
X8908100Y-10512550I-38100J0D01*
G01*
X8908100Y-10766550D02*
G75*
G03*
X8908100Y-10766550I-38100J0D01*
G01*
X8908100Y-11020550D02*
G75*
G03*
X8908100Y-11020550I-38100J0D01*
G01*
X8908100Y-11274550D02*
G75*
G03*
X8908100Y-11274550I-38100J0D01*
G01*
X8908100Y-11528550D02*
G75*
G03*
X8908100Y-11528550I-38100J0D01*
G01*
X8908100Y-11782550D02*
G75*
G03*
X8908100Y-11782550I-38100J0D01*
G01*
X10845800Y-12025000D02*
X10845800Y-12105000D01*
X10805800Y-12065000D02*
X10885800Y-12065000D01*
X10845800Y-12787000D02*
X10845800Y-12867000D01*
X10805800Y-12827000D02*
X10885800Y-12827000D01*
X9331756Y-9235356D02*
X9331756Y-9164644D01*
X9261044Y-9164644D01*
X9261044Y-9235356D01*
X9331756Y-9235356D01*
X9331756Y-9489356D02*
X9331756Y-9418644D01*
X9261044Y-9418644D01*
X9261044Y-9489356D01*
X9331756Y-9489356D01*
X9331756Y-9743356D02*
X9331756Y-9672644D01*
X9261044Y-9672644D01*
X9261044Y-9743356D01*
X9331756Y-9743356D01*
X9331756Y-9997356D02*
X9331756Y-9926644D01*
X9261044Y-9926644D01*
X9261044Y-9997356D01*
X9331756Y-9997356D01*
X9331756Y-10251356D02*
X9331756Y-10180644D01*
X9261044Y-10180644D01*
X9261044Y-10251356D01*
X9331756Y-10251356D01*
X9331756Y-10505356D02*
X9331756Y-10434644D01*
X9261044Y-10434644D01*
X9261044Y-10505356D01*
X9331756Y-10505356D01*
X9331756Y-10759356D02*
X9331756Y-10688644D01*
X9261044Y-10688644D01*
X9261044Y-10759356D01*
X9331756Y-10759356D01*
X9331756Y-11013356D02*
X9331756Y-10942644D01*
X9261044Y-10942644D01*
X9261044Y-11013356D01*
X9331756Y-11013356D01*
X9331756Y-11439956D02*
X9331756Y-11369244D01*
X9261044Y-11369244D01*
X9261044Y-11439956D01*
X9331756Y-11439956D01*
X9331756Y-11693956D02*
X9331756Y-11623244D01*
X9261044Y-11623244D01*
X9261044Y-11693956D01*
X9331756Y-11693956D01*
X9890556Y-13548156D02*
X9890556Y-13477444D01*
X9819844Y-13477444D01*
X9819844Y-13548156D01*
X9890556Y-13548156D01*
X10144556Y-13548156D02*
X10144556Y-13477444D01*
X10073844Y-13477444D01*
X10073844Y-13548156D01*
X10144556Y-13548156D01*
X10398556Y-13548156D02*
X10398556Y-13477444D01*
X10327844Y-13477444D01*
X10327844Y-13548156D01*
X10398556Y-13548156D01*
X10652556Y-13548156D02*
X10652556Y-13477444D01*
X10581844Y-13477444D01*
X10581844Y-13548156D01*
X10652556Y-13548156D01*
X14157756Y-13548156D02*
X14157756Y-13477444D01*
X14087044Y-13477444D01*
X14087044Y-13548156D01*
X14157756Y-13548156D01*
X14411756Y-13548156D02*
X14411756Y-13477444D01*
X14341044Y-13477444D01*
X14341044Y-13548156D01*
X14411756Y-13548156D01*
X14665756Y-13548156D02*
X14665756Y-13477444D01*
X14595044Y-13477444D01*
X14595044Y-13548156D01*
X14665756Y-13548156D01*
X14919756Y-13548156D02*
X14919756Y-13477444D01*
X14849044Y-13477444D01*
X14849044Y-13548156D01*
X14919756Y-13548156D01*
D12*
X6283928Y-14468214D02*
X6283928Y-14168214D01*
X6355357Y-14168214D01*
X6398214Y-14182500D01*
X6426786Y-14211071D01*
X6441071Y-14239643D01*
X6455357Y-14296786D01*
X6455357Y-14339643D01*
X6441071Y-14396786D01*
X6426786Y-14425357D01*
X6398214Y-14453929D01*
X6355357Y-14468214D01*
X6283928Y-14468214D01*
X6583928Y-14468214D02*
X6583928Y-14268214D01*
X6583928Y-14325357D02*
X6598214Y-14296786D01*
X6612500Y-14282500D01*
X6641071Y-14268214D01*
X6669643Y-14268214D01*
X6769643Y-14468214D02*
X6769643Y-14268214D01*
X6769643Y-14168214D02*
X6755357Y-14182500D01*
X6769643Y-14196786D01*
X6783928Y-14182500D01*
X6769643Y-14168214D01*
X6769643Y-14196786D01*
X6955357Y-14468214D02*
X6926786Y-14453929D01*
X6912500Y-14425357D01*
X6912500Y-14168214D01*
X7112500Y-14468214D02*
X7083928Y-14453929D01*
X7069643Y-14425357D01*
X7069643Y-14168214D01*
X7455357Y-14468214D02*
X7455357Y-14168214D01*
X7555357Y-14382500D01*
X7655357Y-14168214D01*
X7655357Y-14468214D01*
X7926786Y-14468214D02*
X7926786Y-14311071D01*
X7912500Y-14282500D01*
X7883928Y-14268214D01*
X7826786Y-14268214D01*
X7798214Y-14282500D01*
X7926786Y-14453929D02*
X7898214Y-14468214D01*
X7826786Y-14468214D01*
X7798214Y-14453929D01*
X7783928Y-14425357D01*
X7783928Y-14396786D01*
X7798214Y-14368214D01*
X7826786Y-14353929D01*
X7898214Y-14353929D01*
X7926786Y-14339643D01*
X8069643Y-14268214D02*
X8069643Y-14568214D01*
X8069643Y-14282500D02*
X8098214Y-14268214D01*
X8155357Y-14268214D01*
X8183928Y-14282500D01*
X8198214Y-14296786D01*
X8212500Y-14325357D01*
X8212500Y-14411071D01*
X8198214Y-14439643D01*
X8183928Y-14453929D01*
X8155357Y-14468214D01*
X8098214Y-14468214D01*
X8069643Y-14453929D01*
X8341071Y-14439643D02*
X8355357Y-14453929D01*
X8341071Y-14468214D01*
X8326786Y-14453929D01*
X8341071Y-14439643D01*
X8341071Y-14468214D01*
X8341071Y-14282500D02*
X8355357Y-14296786D01*
X8341071Y-14311071D01*
X8326786Y-14296786D01*
X8341071Y-14282500D01*
X8341071Y-14311071D01*
X5957500Y-14942500D02*
X5997500Y-14982500D01*
X5997500Y-14942500D02*
X5957500Y-14982500D01*
X6341071Y-14798214D02*
X6369643Y-14798214D01*
X6398214Y-14812500D01*
X6412500Y-14826786D01*
X6426786Y-14855357D01*
X6441071Y-14912500D01*
X6441071Y-14983929D01*
X6426786Y-15041071D01*
X6412500Y-15069643D01*
X6398214Y-15083929D01*
X6369643Y-15098214D01*
X6341071Y-15098214D01*
X6312500Y-15083929D01*
X6298214Y-15069643D01*
X6283928Y-15041071D01*
X6269643Y-14983929D01*
X6269643Y-14912500D01*
X6283928Y-14855357D01*
X6298214Y-14826786D01*
X6312500Y-14812500D01*
X6341071Y-14798214D01*
X6569643Y-15069643D02*
X6583928Y-15083929D01*
X6569643Y-15098214D01*
X6555357Y-15083929D01*
X6569643Y-15069643D01*
X6569643Y-15098214D01*
X6841071Y-14898214D02*
X6841071Y-15098214D01*
X6769643Y-14783929D02*
X6698214Y-14998214D01*
X6883928Y-14998214D01*
X7055357Y-14798214D02*
X7083928Y-14798214D01*
X7112500Y-14812500D01*
X7126786Y-14826786D01*
X7141071Y-14855357D01*
X7155357Y-14912500D01*
X7155357Y-14983929D01*
X7141071Y-15041071D01*
X7126786Y-15069643D01*
X7112500Y-15083929D01*
X7083928Y-15098214D01*
X7055357Y-15098214D01*
X7026786Y-15083929D01*
X7012500Y-15069643D01*
X6998214Y-15041071D01*
X6983928Y-14983929D01*
X6983928Y-14912500D01*
X6998214Y-14855357D01*
X7012500Y-14826786D01*
X7026786Y-14812500D01*
X7055357Y-14798214D01*
X7341071Y-14798214D02*
X7369643Y-14798214D01*
X7398214Y-14812500D01*
X7412500Y-14826786D01*
X7426786Y-14855357D01*
X7441071Y-14912500D01*
X7441071Y-14983929D01*
X7426786Y-15041071D01*
X7412500Y-15069643D01*
X7398214Y-15083929D01*
X7369643Y-15098214D01*
X7341071Y-15098214D01*
X7312500Y-15083929D01*
X7298214Y-15069643D01*
X7283928Y-15041071D01*
X7269643Y-14983929D01*
X7269643Y-14912500D01*
X7283928Y-14855357D01*
X7298214Y-14826786D01*
X7312500Y-14812500D01*
X7341071Y-14798214D01*
X7569643Y-15098214D02*
X7569643Y-14898214D01*
X7569643Y-14926786D02*
X7583928Y-14912500D01*
X7612500Y-14898214D01*
X7655357Y-14898214D01*
X7683928Y-14912500D01*
X7698214Y-14941071D01*
X7698214Y-15098214D01*
X7698214Y-14941071D02*
X7712500Y-14912500D01*
X7741071Y-14898214D01*
X7783928Y-14898214D01*
X7812500Y-14912500D01*
X7826786Y-14941071D01*
X7826786Y-15098214D01*
X7969643Y-15098214D02*
X7969643Y-14898214D01*
X7969643Y-14926786D02*
X7983928Y-14912500D01*
X8012500Y-14898214D01*
X8055357Y-14898214D01*
X8083928Y-14912500D01*
X8098214Y-14941071D01*
X8098214Y-15098214D01*
X8098214Y-14941071D02*
X8112500Y-14912500D01*
X8141071Y-14898214D01*
X8183928Y-14898214D01*
X8212500Y-14912500D01*
X8226786Y-14941071D01*
X8226786Y-15098214D01*
X8812500Y-14783929D02*
X8555357Y-15169643D01*
X9198214Y-14798214D02*
X9226786Y-14798214D01*
X9255357Y-14812500D01*
X9269643Y-14826786D01*
X9283928Y-14855357D01*
X9298214Y-14912500D01*
X9298214Y-14983929D01*
X9283928Y-15041071D01*
X9269643Y-15069643D01*
X9255357Y-15083929D01*
X9226786Y-15098214D01*
X9198214Y-15098214D01*
X9169643Y-15083929D01*
X9155357Y-15069643D01*
X9141071Y-15041071D01*
X9126786Y-14983929D01*
X9126786Y-14912500D01*
X9141071Y-14855357D01*
X9155357Y-14826786D01*
X9169643Y-14812500D01*
X9198214Y-14798214D01*
X9426786Y-15069643D02*
X9441071Y-15083929D01*
X9426786Y-15098214D01*
X9412500Y-15083929D01*
X9426786Y-15069643D01*
X9426786Y-15098214D01*
X9626786Y-14798214D02*
X9655357Y-14798214D01*
X9683928Y-14812500D01*
X9698214Y-14826786D01*
X9712500Y-14855357D01*
X9726786Y-14912500D01*
X9726786Y-14983929D01*
X9712500Y-15041071D01*
X9698214Y-15069643D01*
X9683928Y-15083929D01*
X9655357Y-15098214D01*
X9626786Y-15098214D01*
X9598214Y-15083929D01*
X9583928Y-15069643D01*
X9569643Y-15041071D01*
X9555357Y-14983929D01*
X9555357Y-14912500D01*
X9569643Y-14855357D01*
X9583928Y-14826786D01*
X9598214Y-14812500D01*
X9626786Y-14798214D01*
X10012500Y-15098214D02*
X9841071Y-15098214D01*
X9926786Y-15098214D02*
X9926786Y-14798214D01*
X9898214Y-14841071D01*
X9869643Y-14869643D01*
X9841071Y-14883929D01*
X10283928Y-14798214D02*
X10141071Y-14798214D01*
X10126786Y-14941071D01*
X10141071Y-14926786D01*
X10169643Y-14912500D01*
X10241071Y-14912500D01*
X10269643Y-14926786D01*
X10283928Y-14941071D01*
X10298214Y-14969643D01*
X10298214Y-15041071D01*
X10283928Y-15069643D01*
X10269643Y-15083929D01*
X10241071Y-15098214D01*
X10169643Y-15098214D01*
X10141071Y-15083929D01*
X10126786Y-15069643D01*
X10398214Y-14798214D02*
X10598214Y-14798214D01*
X10469643Y-15098214D01*
X10698214Y-14798214D02*
X10698214Y-14855357D01*
X10812500Y-14798214D02*
X10812500Y-14855357D01*
X11255357Y-15212500D02*
X11241071Y-15198214D01*
X11212500Y-15155357D01*
X11198214Y-15126786D01*
X11183928Y-15083929D01*
X11169643Y-15012500D01*
X11169643Y-14955357D01*
X11183928Y-14883929D01*
X11198214Y-14841071D01*
X11212500Y-14812500D01*
X11241071Y-14769643D01*
X11255357Y-14755357D01*
X11526786Y-15098214D02*
X11355357Y-15098214D01*
X11441071Y-15098214D02*
X11441071Y-14798214D01*
X11412500Y-14841071D01*
X11383928Y-14869643D01*
X11355357Y-14883929D01*
X11883928Y-15098214D02*
X11883928Y-14798214D01*
X12012500Y-15098214D02*
X12012500Y-14941071D01*
X11998214Y-14912500D01*
X11969643Y-14898214D01*
X11926786Y-14898214D01*
X11898214Y-14912500D01*
X11883928Y-14926786D01*
X12198214Y-15098214D02*
X12169643Y-15083929D01*
X12155357Y-15069643D01*
X12141071Y-15041071D01*
X12141071Y-14955357D01*
X12155357Y-14926786D01*
X12169643Y-14912500D01*
X12198214Y-14898214D01*
X12241071Y-14898214D01*
X12269643Y-14912500D01*
X12283928Y-14926786D01*
X12298214Y-14955357D01*
X12298214Y-15041071D01*
X12283928Y-15069643D01*
X12269643Y-15083929D01*
X12241071Y-15098214D01*
X12198214Y-15098214D01*
X12469643Y-15098214D02*
X12441071Y-15083929D01*
X12426786Y-15055357D01*
X12426786Y-14798214D01*
X12698214Y-15083929D02*
X12669643Y-15098214D01*
X12612500Y-15098214D01*
X12583928Y-15083929D01*
X12569643Y-15055357D01*
X12569643Y-14941071D01*
X12583928Y-14912500D01*
X12612500Y-14898214D01*
X12669643Y-14898214D01*
X12698214Y-14912500D01*
X12712500Y-14941071D01*
X12712500Y-14969643D01*
X12569643Y-14998214D01*
X12812500Y-15212500D02*
X12826786Y-15198214D01*
X12855357Y-15155357D01*
X12869643Y-15126786D01*
X12883928Y-15083929D01*
X12898214Y-15012500D01*
X12898214Y-14955357D01*
X12883928Y-14883929D01*
X12869643Y-14841071D01*
X12855357Y-14812500D01*
X12826786Y-14769643D01*
X12812500Y-14755357D01*
X5997500Y-15358500D02*
G75*
G03*
X5997500Y-15358500I-38100J0D01*
G01*
X6341071Y-15194214D02*
X6369643Y-15194214D01*
X6398214Y-15208500D01*
X6412500Y-15222786D01*
X6426786Y-15251357D01*
X6441071Y-15308500D01*
X6441071Y-15379929D01*
X6426786Y-15437071D01*
X6412500Y-15465643D01*
X6398214Y-15479929D01*
X6369643Y-15494214D01*
X6341071Y-15494214D01*
X6312500Y-15479929D01*
X6298214Y-15465643D01*
X6283928Y-15437071D01*
X6269643Y-15379929D01*
X6269643Y-15308500D01*
X6283928Y-15251357D01*
X6298214Y-15222786D01*
X6312500Y-15208500D01*
X6341071Y-15194214D01*
X6569643Y-15465643D02*
X6583928Y-15479929D01*
X6569643Y-15494214D01*
X6555357Y-15479929D01*
X6569643Y-15465643D01*
X6569643Y-15494214D01*
X6683928Y-15194214D02*
X6883928Y-15194214D01*
X6755357Y-15494214D01*
X7126786Y-15194214D02*
X7069643Y-15194214D01*
X7041071Y-15208500D01*
X7026786Y-15222786D01*
X6998214Y-15265643D01*
X6983928Y-15322786D01*
X6983928Y-15437071D01*
X6998214Y-15465643D01*
X7012500Y-15479929D01*
X7041071Y-15494214D01*
X7098214Y-15494214D01*
X7126786Y-15479929D01*
X7141071Y-15465643D01*
X7155357Y-15437071D01*
X7155357Y-15365643D01*
X7141071Y-15337071D01*
X7126786Y-15322786D01*
X7098214Y-15308500D01*
X7041071Y-15308500D01*
X7012500Y-15322786D01*
X6998214Y-15337071D01*
X6983928Y-15365643D01*
X7269643Y-15222786D02*
X7283928Y-15208500D01*
X7312500Y-15194214D01*
X7383928Y-15194214D01*
X7412500Y-15208500D01*
X7426786Y-15222786D01*
X7441071Y-15251357D01*
X7441071Y-15279929D01*
X7426786Y-15322786D01*
X7255357Y-15494214D01*
X7441071Y-15494214D01*
X7569643Y-15494214D02*
X7569643Y-15294214D01*
X7569643Y-15322786D02*
X7583928Y-15308500D01*
X7612500Y-15294214D01*
X7655357Y-15294214D01*
X7683928Y-15308500D01*
X7698214Y-15337071D01*
X7698214Y-15494214D01*
X7698214Y-15337071D02*
X7712500Y-15308500D01*
X7741071Y-15294214D01*
X7783928Y-15294214D01*
X7812500Y-15308500D01*
X7826786Y-15337071D01*
X7826786Y-15494214D01*
X7969643Y-15494214D02*
X7969643Y-15294214D01*
X7969643Y-15322786D02*
X7983928Y-15308500D01*
X8012500Y-15294214D01*
X8055357Y-15294214D01*
X8083928Y-15308500D01*
X8098214Y-15337071D01*
X8098214Y-15494214D01*
X8098214Y-15337071D02*
X8112500Y-15308500D01*
X8141071Y-15294214D01*
X8183928Y-15294214D01*
X8212500Y-15308500D01*
X8226786Y-15337071D01*
X8226786Y-15494214D01*
X8812500Y-15179929D02*
X8555357Y-15565643D01*
X9198214Y-15194214D02*
X9226786Y-15194214D01*
X9255357Y-15208500D01*
X9269643Y-15222786D01*
X9283928Y-15251357D01*
X9298214Y-15308500D01*
X9298214Y-15379929D01*
X9283928Y-15437071D01*
X9269643Y-15465643D01*
X9255357Y-15479929D01*
X9226786Y-15494214D01*
X9198214Y-15494214D01*
X9169643Y-15479929D01*
X9155357Y-15465643D01*
X9141071Y-15437071D01*
X9126786Y-15379929D01*
X9126786Y-15308500D01*
X9141071Y-15251357D01*
X9155357Y-15222786D01*
X9169643Y-15208500D01*
X9198214Y-15194214D01*
X9426786Y-15465643D02*
X9441071Y-15479929D01*
X9426786Y-15494214D01*
X9412500Y-15479929D01*
X9426786Y-15465643D01*
X9426786Y-15494214D01*
X9626786Y-15194214D02*
X9655357Y-15194214D01*
X9683928Y-15208500D01*
X9698214Y-15222786D01*
X9712500Y-15251357D01*
X9726786Y-15308500D01*
X9726786Y-15379929D01*
X9712500Y-15437071D01*
X9698214Y-15465643D01*
X9683928Y-15479929D01*
X9655357Y-15494214D01*
X9626786Y-15494214D01*
X9598214Y-15479929D01*
X9583928Y-15465643D01*
X9569643Y-15437071D01*
X9555357Y-15379929D01*
X9555357Y-15308500D01*
X9569643Y-15251357D01*
X9583928Y-15222786D01*
X9598214Y-15208500D01*
X9626786Y-15194214D01*
X9826786Y-15194214D02*
X10012500Y-15194214D01*
X9912500Y-15308500D01*
X9955357Y-15308500D01*
X9983928Y-15322786D01*
X9998214Y-15337071D01*
X10012500Y-15365643D01*
X10012500Y-15437071D01*
X9998214Y-15465643D01*
X9983928Y-15479929D01*
X9955357Y-15494214D01*
X9869643Y-15494214D01*
X9841071Y-15479929D01*
X9826786Y-15465643D01*
X10198214Y-15194214D02*
X10226786Y-15194214D01*
X10255357Y-15208500D01*
X10269643Y-15222786D01*
X10283928Y-15251357D01*
X10298214Y-15308500D01*
X10298214Y-15379929D01*
X10283928Y-15437071D01*
X10269643Y-15465643D01*
X10255357Y-15479929D01*
X10226786Y-15494214D01*
X10198214Y-15494214D01*
X10169643Y-15479929D01*
X10155357Y-15465643D01*
X10141071Y-15437071D01*
X10126786Y-15379929D01*
X10126786Y-15308500D01*
X10141071Y-15251357D01*
X10155357Y-15222786D01*
X10169643Y-15208500D01*
X10198214Y-15194214D01*
X10483928Y-15194214D02*
X10512500Y-15194214D01*
X10541071Y-15208500D01*
X10555357Y-15222786D01*
X10569643Y-15251357D01*
X10583928Y-15308500D01*
X10583928Y-15379929D01*
X10569643Y-15437071D01*
X10555357Y-15465643D01*
X10541071Y-15479929D01*
X10512500Y-15494214D01*
X10483928Y-15494214D01*
X10455357Y-15479929D01*
X10441071Y-15465643D01*
X10426786Y-15437071D01*
X10412500Y-15379929D01*
X10412500Y-15308500D01*
X10426786Y-15251357D01*
X10441071Y-15222786D01*
X10455357Y-15208500D01*
X10483928Y-15194214D01*
X10698214Y-15194214D02*
X10698214Y-15251357D01*
X10812500Y-15194214D02*
X10812500Y-15251357D01*
X11255357Y-15608500D02*
X11241071Y-15594214D01*
X11212500Y-15551357D01*
X11198214Y-15522786D01*
X11183928Y-15479929D01*
X11169643Y-15408500D01*
X11169643Y-15351357D01*
X11183928Y-15279929D01*
X11198214Y-15237071D01*
X11212500Y-15208500D01*
X11241071Y-15165643D01*
X11255357Y-15151357D01*
X11341071Y-15194214D02*
X11526786Y-15194214D01*
X11426786Y-15308500D01*
X11469643Y-15308500D01*
X11498214Y-15322786D01*
X11512500Y-15337071D01*
X11526786Y-15365643D01*
X11526786Y-15437071D01*
X11512500Y-15465643D01*
X11498214Y-15479929D01*
X11469643Y-15494214D01*
X11383928Y-15494214D01*
X11355357Y-15479929D01*
X11341071Y-15465643D01*
X11712500Y-15194214D02*
X11741071Y-15194214D01*
X11769643Y-15208500D01*
X11783928Y-15222786D01*
X11798214Y-15251357D01*
X11812500Y-15308500D01*
X11812500Y-15379929D01*
X11798214Y-15437071D01*
X11783928Y-15465643D01*
X11769643Y-15479929D01*
X11741071Y-15494214D01*
X11712500Y-15494214D01*
X11683928Y-15479929D01*
X11669643Y-15465643D01*
X11655357Y-15437071D01*
X11641071Y-15379929D01*
X11641071Y-15308500D01*
X11655357Y-15251357D01*
X11669643Y-15222786D01*
X11683928Y-15208500D01*
X11712500Y-15194214D01*
X12169643Y-15494214D02*
X12169643Y-15194214D01*
X12298214Y-15494214D02*
X12298214Y-15337071D01*
X12283928Y-15308500D01*
X12255357Y-15294214D01*
X12212500Y-15294214D01*
X12183928Y-15308500D01*
X12169643Y-15322786D01*
X12483928Y-15494214D02*
X12455357Y-15479929D01*
X12441071Y-15465643D01*
X12426786Y-15437071D01*
X12426786Y-15351357D01*
X12441071Y-15322786D01*
X12455357Y-15308500D01*
X12483928Y-15294214D01*
X12526786Y-15294214D01*
X12555357Y-15308500D01*
X12569643Y-15322786D01*
X12583928Y-15351357D01*
X12583928Y-15437071D01*
X12569643Y-15465643D01*
X12555357Y-15479929D01*
X12526786Y-15494214D01*
X12483928Y-15494214D01*
X12755357Y-15494214D02*
X12726786Y-15479929D01*
X12712500Y-15451357D01*
X12712500Y-15194214D01*
X12983928Y-15479929D02*
X12955357Y-15494214D01*
X12898214Y-15494214D01*
X12869643Y-15479929D01*
X12855357Y-15451357D01*
X12855357Y-15337071D01*
X12869643Y-15308500D01*
X12898214Y-15294214D01*
X12955357Y-15294214D01*
X12983928Y-15308500D01*
X12998214Y-15337071D01*
X12998214Y-15365643D01*
X12855357Y-15394214D01*
X13112500Y-15479929D02*
X13141071Y-15494214D01*
X13198214Y-15494214D01*
X13226786Y-15479929D01*
X13241071Y-15451357D01*
X13241071Y-15437071D01*
X13226786Y-15408500D01*
X13198214Y-15394214D01*
X13155357Y-15394214D01*
X13126786Y-15379929D01*
X13112500Y-15351357D01*
X13112500Y-15337071D01*
X13126786Y-15308500D01*
X13155357Y-15294214D01*
X13198214Y-15294214D01*
X13226786Y-15308500D01*
X13341071Y-15608500D02*
X13355357Y-15594214D01*
X13383928Y-15551357D01*
X13398214Y-15522786D01*
X13412500Y-15479929D01*
X13426786Y-15408500D01*
X13426786Y-15351357D01*
X13412500Y-15279929D01*
X13398214Y-15237071D01*
X13383928Y-15208500D01*
X13355357Y-15165643D01*
X13341071Y-15151357D01*
X5957500Y-15714500D02*
X5957500Y-15794500D01*
X5917500Y-15754500D02*
X5997500Y-15754500D01*
X6341071Y-15590214D02*
X6369643Y-15590214D01*
X6398214Y-15604500D01*
X6412500Y-15618786D01*
X6426786Y-15647357D01*
X6441071Y-15704500D01*
X6441071Y-15775929D01*
X6426786Y-15833071D01*
X6412500Y-15861643D01*
X6398214Y-15875929D01*
X6369643Y-15890214D01*
X6341071Y-15890214D01*
X6312500Y-15875929D01*
X6298214Y-15861643D01*
X6283928Y-15833071D01*
X6269643Y-15775929D01*
X6269643Y-15704500D01*
X6283928Y-15647357D01*
X6298214Y-15618786D01*
X6312500Y-15604500D01*
X6341071Y-15590214D01*
X6569643Y-15861643D02*
X6583928Y-15875929D01*
X6569643Y-15890214D01*
X6555357Y-15875929D01*
X6569643Y-15861643D01*
X6569643Y-15890214D01*
X6755357Y-15718786D02*
X6726786Y-15704500D01*
X6712500Y-15690214D01*
X6698214Y-15661643D01*
X6698214Y-15647357D01*
X6712500Y-15618786D01*
X6726786Y-15604500D01*
X6755357Y-15590214D01*
X6812500Y-15590214D01*
X6841071Y-15604500D01*
X6855357Y-15618786D01*
X6869643Y-15647357D01*
X6869643Y-15661643D01*
X6855357Y-15690214D01*
X6841071Y-15704500D01*
X6812500Y-15718786D01*
X6755357Y-15718786D01*
X6726786Y-15733071D01*
X6712500Y-15747357D01*
X6698214Y-15775929D01*
X6698214Y-15833071D01*
X6712500Y-15861643D01*
X6726786Y-15875929D01*
X6755357Y-15890214D01*
X6812500Y-15890214D01*
X6841071Y-15875929D01*
X6855357Y-15861643D01*
X6869643Y-15833071D01*
X6869643Y-15775929D01*
X6855357Y-15747357D01*
X6841071Y-15733071D01*
X6812500Y-15718786D01*
X7055357Y-15590214D02*
X7083928Y-15590214D01*
X7112500Y-15604500D01*
X7126786Y-15618786D01*
X7141071Y-15647357D01*
X7155357Y-15704500D01*
X7155357Y-15775929D01*
X7141071Y-15833071D01*
X7126786Y-15861643D01*
X7112500Y-15875929D01*
X7083928Y-15890214D01*
X7055357Y-15890214D01*
X7026786Y-15875929D01*
X7012500Y-15861643D01*
X6998214Y-15833071D01*
X6983928Y-15775929D01*
X6983928Y-15704500D01*
X6998214Y-15647357D01*
X7012500Y-15618786D01*
X7026786Y-15604500D01*
X7055357Y-15590214D01*
X7341071Y-15590214D02*
X7369643Y-15590214D01*
X7398214Y-15604500D01*
X7412500Y-15618786D01*
X7426786Y-15647357D01*
X7441071Y-15704500D01*
X7441071Y-15775929D01*
X7426786Y-15833071D01*
X7412500Y-15861643D01*
X7398214Y-15875929D01*
X7369643Y-15890214D01*
X7341071Y-15890214D01*
X7312500Y-15875929D01*
X7298214Y-15861643D01*
X7283928Y-15833071D01*
X7269643Y-15775929D01*
X7269643Y-15704500D01*
X7283928Y-15647357D01*
X7298214Y-15618786D01*
X7312500Y-15604500D01*
X7341071Y-15590214D01*
X7569643Y-15890214D02*
X7569643Y-15690214D01*
X7569643Y-15718786D02*
X7583928Y-15704500D01*
X7612500Y-15690214D01*
X7655357Y-15690214D01*
X7683928Y-15704500D01*
X7698214Y-15733071D01*
X7698214Y-15890214D01*
X7698214Y-15733071D02*
X7712500Y-15704500D01*
X7741071Y-15690214D01*
X7783928Y-15690214D01*
X7812500Y-15704500D01*
X7826786Y-15733071D01*
X7826786Y-15890214D01*
X7969643Y-15890214D02*
X7969643Y-15690214D01*
X7969643Y-15718786D02*
X7983928Y-15704500D01*
X8012500Y-15690214D01*
X8055357Y-15690214D01*
X8083928Y-15704500D01*
X8098214Y-15733071D01*
X8098214Y-15890214D01*
X8098214Y-15733071D02*
X8112500Y-15704500D01*
X8141071Y-15690214D01*
X8183928Y-15690214D01*
X8212500Y-15704500D01*
X8226786Y-15733071D01*
X8226786Y-15890214D01*
X8812500Y-15575929D02*
X8555357Y-15961643D01*
X9198214Y-15590214D02*
X9226786Y-15590214D01*
X9255357Y-15604500D01*
X9269643Y-15618786D01*
X9283928Y-15647357D01*
X9298214Y-15704500D01*
X9298214Y-15775929D01*
X9283928Y-15833071D01*
X9269643Y-15861643D01*
X9255357Y-15875929D01*
X9226786Y-15890214D01*
X9198214Y-15890214D01*
X9169643Y-15875929D01*
X9155357Y-15861643D01*
X9141071Y-15833071D01*
X9126786Y-15775929D01*
X9126786Y-15704500D01*
X9141071Y-15647357D01*
X9155357Y-15618786D01*
X9169643Y-15604500D01*
X9198214Y-15590214D01*
X9426786Y-15861643D02*
X9441071Y-15875929D01*
X9426786Y-15890214D01*
X9412500Y-15875929D01*
X9426786Y-15861643D01*
X9426786Y-15890214D01*
X9626786Y-15590214D02*
X9655357Y-15590214D01*
X9683928Y-15604500D01*
X9698214Y-15618786D01*
X9712500Y-15647357D01*
X9726786Y-15704500D01*
X9726786Y-15775929D01*
X9712500Y-15833071D01*
X9698214Y-15861643D01*
X9683928Y-15875929D01*
X9655357Y-15890214D01*
X9626786Y-15890214D01*
X9598214Y-15875929D01*
X9583928Y-15861643D01*
X9569643Y-15833071D01*
X9555357Y-15775929D01*
X9555357Y-15704500D01*
X9569643Y-15647357D01*
X9583928Y-15618786D01*
X9598214Y-15604500D01*
X9626786Y-15590214D01*
X9826786Y-15590214D02*
X10012500Y-15590214D01*
X9912500Y-15704500D01*
X9955357Y-15704500D01*
X9983928Y-15718786D01*
X9998214Y-15733071D01*
X10012500Y-15761643D01*
X10012500Y-15833071D01*
X9998214Y-15861643D01*
X9983928Y-15875929D01*
X9955357Y-15890214D01*
X9869643Y-15890214D01*
X9841071Y-15875929D01*
X9826786Y-15861643D01*
X10298214Y-15890214D02*
X10126786Y-15890214D01*
X10212500Y-15890214D02*
X10212500Y-15590214D01*
X10183928Y-15633071D01*
X10155357Y-15661643D01*
X10126786Y-15675929D01*
X10569643Y-15590214D02*
X10426786Y-15590214D01*
X10412500Y-15733071D01*
X10426786Y-15718786D01*
X10455357Y-15704500D01*
X10526786Y-15704500D01*
X10555357Y-15718786D01*
X10569643Y-15733071D01*
X10583928Y-15761643D01*
X10583928Y-15833071D01*
X10569643Y-15861643D01*
X10555357Y-15875929D01*
X10526786Y-15890214D01*
X10455357Y-15890214D01*
X10426786Y-15875929D01*
X10412500Y-15861643D01*
X10698214Y-15590214D02*
X10698214Y-15647357D01*
X10812500Y-15590214D02*
X10812500Y-15647357D01*
X11255357Y-16004500D02*
X11241071Y-15990214D01*
X11212500Y-15947357D01*
X11198214Y-15918786D01*
X11183928Y-15875929D01*
X11169643Y-15804500D01*
X11169643Y-15747357D01*
X11183928Y-15675929D01*
X11198214Y-15633071D01*
X11212500Y-15604500D01*
X11241071Y-15561643D01*
X11255357Y-15547357D01*
X11355357Y-15618786D02*
X11369643Y-15604500D01*
X11398214Y-15590214D01*
X11469643Y-15590214D01*
X11498214Y-15604500D01*
X11512500Y-15618786D01*
X11526786Y-15647357D01*
X11526786Y-15675929D01*
X11512500Y-15718786D01*
X11341071Y-15890214D01*
X11526786Y-15890214D01*
X11883928Y-15890214D02*
X11883928Y-15590214D01*
X12012500Y-15890214D02*
X12012500Y-15733071D01*
X11998214Y-15704500D01*
X11969643Y-15690214D01*
X11926786Y-15690214D01*
X11898214Y-15704500D01*
X11883928Y-15718786D01*
X12198214Y-15890214D02*
X12169643Y-15875929D01*
X12155357Y-15861643D01*
X12141071Y-15833071D01*
X12141071Y-15747357D01*
X12155357Y-15718786D01*
X12169643Y-15704500D01*
X12198214Y-15690214D01*
X12241071Y-15690214D01*
X12269643Y-15704500D01*
X12283928Y-15718786D01*
X12298214Y-15747357D01*
X12298214Y-15833071D01*
X12283928Y-15861643D01*
X12269643Y-15875929D01*
X12241071Y-15890214D01*
X12198214Y-15890214D01*
X12469643Y-15890214D02*
X12441071Y-15875929D01*
X12426786Y-15847357D01*
X12426786Y-15590214D01*
X12698214Y-15875929D02*
X12669643Y-15890214D01*
X12612500Y-15890214D01*
X12583928Y-15875929D01*
X12569643Y-15847357D01*
X12569643Y-15733071D01*
X12583928Y-15704500D01*
X12612500Y-15690214D01*
X12669643Y-15690214D01*
X12698214Y-15704500D01*
X12712500Y-15733071D01*
X12712500Y-15761643D01*
X12569643Y-15790214D01*
X12826786Y-15875929D02*
X12855357Y-15890214D01*
X12912500Y-15890214D01*
X12941071Y-15875929D01*
X12955357Y-15847357D01*
X12955357Y-15833071D01*
X12941071Y-15804500D01*
X12912500Y-15790214D01*
X12869643Y-15790214D01*
X12841071Y-15775929D01*
X12826786Y-15747357D01*
X12826786Y-15733071D01*
X12841071Y-15704500D01*
X12869643Y-15690214D01*
X12912500Y-15690214D01*
X12941071Y-15704500D01*
X13055357Y-16004500D02*
X13069643Y-15990214D01*
X13098214Y-15947357D01*
X13112500Y-15918786D01*
X13126786Y-15875929D01*
X13141071Y-15804500D01*
X13141071Y-15747357D01*
X13126786Y-15675929D01*
X13112500Y-15633071D01*
X13098214Y-15604500D01*
X13069643Y-15561643D01*
X13055357Y-15547357D01*
X5982856Y-16185856D02*
X5982856Y-16115144D01*
X5912144Y-16115144D01*
X5912144Y-16185856D01*
X5982856Y-16185856D01*
X6441071Y-16286214D02*
X6269643Y-16286214D01*
X6355357Y-16286214D02*
X6355357Y-15986214D01*
X6326786Y-16029071D01*
X6298214Y-16057643D01*
X6269643Y-16071929D01*
X6569643Y-16257643D02*
X6583928Y-16271929D01*
X6569643Y-16286214D01*
X6555357Y-16271929D01*
X6569643Y-16257643D01*
X6569643Y-16286214D01*
X6769643Y-15986214D02*
X6798214Y-15986214D01*
X6826786Y-16000500D01*
X6841071Y-16014786D01*
X6855357Y-16043357D01*
X6869643Y-16100500D01*
X6869643Y-16171929D01*
X6855357Y-16229071D01*
X6841071Y-16257643D01*
X6826786Y-16271929D01*
X6798214Y-16286214D01*
X6769643Y-16286214D01*
X6741071Y-16271929D01*
X6726786Y-16257643D01*
X6712500Y-16229071D01*
X6698214Y-16171929D01*
X6698214Y-16100500D01*
X6712500Y-16043357D01*
X6726786Y-16014786D01*
X6741071Y-16000500D01*
X6769643Y-15986214D01*
X7055357Y-15986214D02*
X7083928Y-15986214D01*
X7112500Y-16000500D01*
X7126786Y-16014786D01*
X7141071Y-16043357D01*
X7155357Y-16100500D01*
X7155357Y-16171929D01*
X7141071Y-16229071D01*
X7126786Y-16257643D01*
X7112500Y-16271929D01*
X7083928Y-16286214D01*
X7055357Y-16286214D01*
X7026786Y-16271929D01*
X7012500Y-16257643D01*
X6998214Y-16229071D01*
X6983928Y-16171929D01*
X6983928Y-16100500D01*
X6998214Y-16043357D01*
X7012500Y-16014786D01*
X7026786Y-16000500D01*
X7055357Y-15986214D01*
X7341071Y-15986214D02*
X7369643Y-15986214D01*
X7398214Y-16000500D01*
X7412500Y-16014786D01*
X7426786Y-16043357D01*
X7441071Y-16100500D01*
X7441071Y-16171929D01*
X7426786Y-16229071D01*
X7412500Y-16257643D01*
X7398214Y-16271929D01*
X7369643Y-16286214D01*
X7341071Y-16286214D01*
X7312500Y-16271929D01*
X7298214Y-16257643D01*
X7283928Y-16229071D01*
X7269643Y-16171929D01*
X7269643Y-16100500D01*
X7283928Y-16043357D01*
X7298214Y-16014786D01*
X7312500Y-16000500D01*
X7341071Y-15986214D01*
X7569643Y-16286214D02*
X7569643Y-16086214D01*
X7569643Y-16114786D02*
X7583928Y-16100500D01*
X7612500Y-16086214D01*
X7655357Y-16086214D01*
X7683928Y-16100500D01*
X7698214Y-16129071D01*
X7698214Y-16286214D01*
X7698214Y-16129071D02*
X7712500Y-16100500D01*
X7741071Y-16086214D01*
X7783928Y-16086214D01*
X7812500Y-16100500D01*
X7826786Y-16129071D01*
X7826786Y-16286214D01*
X7969643Y-16286214D02*
X7969643Y-16086214D01*
X7969643Y-16114786D02*
X7983928Y-16100500D01*
X8012500Y-16086214D01*
X8055357Y-16086214D01*
X8083928Y-16100500D01*
X8098214Y-16129071D01*
X8098214Y-16286214D01*
X8098214Y-16129071D02*
X8112500Y-16100500D01*
X8141071Y-16086214D01*
X8183928Y-16086214D01*
X8212500Y-16100500D01*
X8226786Y-16129071D01*
X8226786Y-16286214D01*
X8812500Y-15971929D02*
X8555357Y-16357643D01*
X9198214Y-15986214D02*
X9226786Y-15986214D01*
X9255357Y-16000500D01*
X9269643Y-16014786D01*
X9283928Y-16043357D01*
X9298214Y-16100500D01*
X9298214Y-16171929D01*
X9283928Y-16229071D01*
X9269643Y-16257643D01*
X9255357Y-16271929D01*
X9226786Y-16286214D01*
X9198214Y-16286214D01*
X9169643Y-16271929D01*
X9155357Y-16257643D01*
X9141071Y-16229071D01*
X9126786Y-16171929D01*
X9126786Y-16100500D01*
X9141071Y-16043357D01*
X9155357Y-16014786D01*
X9169643Y-16000500D01*
X9198214Y-15986214D01*
X9426786Y-16257643D02*
X9441071Y-16271929D01*
X9426786Y-16286214D01*
X9412500Y-16271929D01*
X9426786Y-16257643D01*
X9426786Y-16286214D01*
X9626786Y-15986214D02*
X9655357Y-15986214D01*
X9683928Y-16000500D01*
X9698214Y-16014786D01*
X9712500Y-16043357D01*
X9726786Y-16100500D01*
X9726786Y-16171929D01*
X9712500Y-16229071D01*
X9698214Y-16257643D01*
X9683928Y-16271929D01*
X9655357Y-16286214D01*
X9626786Y-16286214D01*
X9598214Y-16271929D01*
X9583928Y-16257643D01*
X9569643Y-16229071D01*
X9555357Y-16171929D01*
X9555357Y-16100500D01*
X9569643Y-16043357D01*
X9583928Y-16014786D01*
X9598214Y-16000500D01*
X9626786Y-15986214D01*
X9826786Y-15986214D02*
X10012500Y-15986214D01*
X9912500Y-16100500D01*
X9955357Y-16100500D01*
X9983928Y-16114786D01*
X9998214Y-16129071D01*
X10012500Y-16157643D01*
X10012500Y-16229071D01*
X9998214Y-16257643D01*
X9983928Y-16271929D01*
X9955357Y-16286214D01*
X9869643Y-16286214D01*
X9841071Y-16271929D01*
X9826786Y-16257643D01*
X10155357Y-16286214D02*
X10212500Y-16286214D01*
X10241071Y-16271929D01*
X10255357Y-16257643D01*
X10283928Y-16214786D01*
X10298214Y-16157643D01*
X10298214Y-16043357D01*
X10283928Y-16014786D01*
X10269643Y-16000500D01*
X10241071Y-15986214D01*
X10183928Y-15986214D01*
X10155357Y-16000500D01*
X10141071Y-16014786D01*
X10126786Y-16043357D01*
X10126786Y-16114786D01*
X10141071Y-16143357D01*
X10155357Y-16157643D01*
X10183928Y-16171929D01*
X10241071Y-16171929D01*
X10269643Y-16157643D01*
X10283928Y-16143357D01*
X10298214Y-16114786D01*
X10555357Y-16086214D02*
X10555357Y-16286214D01*
X10483928Y-15971929D02*
X10412500Y-16186214D01*
X10598214Y-16186214D01*
X10698214Y-15986214D02*
X10698214Y-16043357D01*
X10812500Y-15986214D02*
X10812500Y-16043357D01*
X11255357Y-16400500D02*
X11241071Y-16386214D01*
X11212500Y-16343357D01*
X11198214Y-16314786D01*
X11183928Y-16271929D01*
X11169643Y-16200500D01*
X11169643Y-16143357D01*
X11183928Y-16071929D01*
X11198214Y-16029071D01*
X11212500Y-16000500D01*
X11241071Y-15957643D01*
X11255357Y-15943357D01*
X11526786Y-16286214D02*
X11355357Y-16286214D01*
X11441071Y-16286214D02*
X11441071Y-15986214D01*
X11412500Y-16029071D01*
X11383928Y-16057643D01*
X11355357Y-16071929D01*
X11698214Y-16114786D02*
X11669643Y-16100500D01*
X11655357Y-16086214D01*
X11641071Y-16057643D01*
X11641071Y-16043357D01*
X11655357Y-16014786D01*
X11669643Y-16000500D01*
X11698214Y-15986214D01*
X11755357Y-15986214D01*
X11783928Y-16000500D01*
X11798214Y-16014786D01*
X11812500Y-16043357D01*
X11812500Y-16057643D01*
X11798214Y-16086214D01*
X11783928Y-16100500D01*
X11755357Y-16114786D01*
X11698214Y-16114786D01*
X11669643Y-16129071D01*
X11655357Y-16143357D01*
X11641071Y-16171929D01*
X11641071Y-16229071D01*
X11655357Y-16257643D01*
X11669643Y-16271929D01*
X11698214Y-16286214D01*
X11755357Y-16286214D01*
X11783928Y-16271929D01*
X11798214Y-16257643D01*
X11812500Y-16229071D01*
X11812500Y-16171929D01*
X11798214Y-16143357D01*
X11783928Y-16129071D01*
X11755357Y-16114786D01*
X12169643Y-16286214D02*
X12169643Y-15986214D01*
X12298214Y-16286214D02*
X12298214Y-16129071D01*
X12283928Y-16100500D01*
X12255357Y-16086214D01*
X12212500Y-16086214D01*
X12183928Y-16100500D01*
X12169643Y-16114786D01*
X12483928Y-16286214D02*
X12455357Y-16271929D01*
X12441071Y-16257643D01*
X12426786Y-16229071D01*
X12426786Y-16143357D01*
X12441071Y-16114786D01*
X12455357Y-16100500D01*
X12483928Y-16086214D01*
X12526786Y-16086214D01*
X12555357Y-16100500D01*
X12569643Y-16114786D01*
X12583928Y-16143357D01*
X12583928Y-16229071D01*
X12569643Y-16257643D01*
X12555357Y-16271929D01*
X12526786Y-16286214D01*
X12483928Y-16286214D01*
X12755357Y-16286214D02*
X12726786Y-16271929D01*
X12712500Y-16243357D01*
X12712500Y-15986214D01*
X12983928Y-16271929D02*
X12955357Y-16286214D01*
X12898214Y-16286214D01*
X12869643Y-16271929D01*
X12855357Y-16243357D01*
X12855357Y-16129071D01*
X12869643Y-16100500D01*
X12898214Y-16086214D01*
X12955357Y-16086214D01*
X12983928Y-16100500D01*
X12998214Y-16129071D01*
X12998214Y-16157643D01*
X12855357Y-16186214D01*
X13112500Y-16271929D02*
X13141071Y-16286214D01*
X13198214Y-16286214D01*
X13226786Y-16271929D01*
X13241071Y-16243357D01*
X13241071Y-16229071D01*
X13226786Y-16200500D01*
X13198214Y-16186214D01*
X13155357Y-16186214D01*
X13126786Y-16171929D01*
X13112500Y-16143357D01*
X13112500Y-16129071D01*
X13126786Y-16100500D01*
X13155357Y-16086214D01*
X13198214Y-16086214D01*
X13226786Y-16100500D01*
X13341071Y-16400500D02*
X13355357Y-16386214D01*
X13383928Y-16343357D01*
X13398214Y-16314786D01*
X13412500Y-16271929D01*
X13426786Y-16200500D01*
X13426786Y-16143357D01*
X13412500Y-16071929D01*
X13398214Y-16029071D01*
X13383928Y-16000500D01*
X13355357Y-15957643D01*
X13341071Y-15943357D01*
M02*
