M48
; DRILL file {KiCad (5.1.10)-1} date 12/02/21 13:26:07
; FORMAT={-:-/ absolute / metric / decimal}
; #@! TF.CreationDate,2021-12-02T13:26:07+01:00
; #@! TF.GenerationSoftware,Kicad,Pcbnew,(5.1.10)-1
; #@! TF.FileFunction,Plated,1,2,PTH
FMAT,2
METRIC
T1C0.400
T2C0.762
T3C0.800
T4C1.000
%
G90
G05
T1
X90.932Y-89.916
T2
X63.3Y-82.266
X63.3Y-84.805
X63.3Y-87.346
X63.3Y-89.885
X63.3Y-92.425
X63.3Y-94.965
X63.3Y-97.505
X63.3Y-100.045
X63.3Y-102.585
X63.3Y-105.125
X63.3Y-107.665
X63.3Y-110.206
X63.3Y-112.745
X63.3Y-115.285
X63.3Y-117.825
X88.7Y-82.266
X88.7Y-84.805
X88.7Y-87.346
X88.7Y-89.885
X88.7Y-92.425
X88.7Y-94.965
X88.7Y-97.505
X88.7Y-100.045
X88.7Y-102.585
X88.7Y-105.125
X88.7Y-107.665
X88.7Y-110.206
X88.7Y-112.745
X88.7Y-115.285
X88.7Y-117.825
T3
X108.458Y-120.65
X108.458Y-128.27
T4
X92.964Y-92.0
X92.964Y-94.54
X92.964Y-97.08
X92.964Y-99.62
X92.964Y-102.16
X92.964Y-104.7
X92.964Y-107.24
X92.964Y-109.78
X92.964Y-114.046
X92.964Y-116.586
X98.552Y-135.128
X101.092Y-135.128
X103.632Y-135.128
X106.172Y-135.128
X141.224Y-135.128
X143.764Y-135.128
X146.304Y-135.128
X148.844Y-135.128
T0
M30
