%FSLAX45Y45*%
G04 Gerber Fmt 4.5, Leading zero omitted, Abs format (unit mm)*
G04 Created by KiCad (PCBNEW (5.1.10)-1) date 2021-12-02 13:26:13*
%MOMM*%
%LPD*%
G01*
G04 APERTURE LIST*
%TA.AperFunction,Profile*%
%ADD10C,0.050000*%
%TD*%
%ADD11C,0.200000*%
%ADD12C,0.300000*%
G04 APERTURE END LIST*
D10*
X16000000Y-14000000D02*
X16000000Y-6500000D01*
X16000000Y-14000000D02*
X6000000Y-14000000D01*
X6000000Y-6500000D02*
X6000000Y-14000000D01*
X6000000Y-6500000D02*
X16000000Y-6500000D01*
D11*
X6340000Y-6840000D02*
X6660000Y-7160000D01*
X6660000Y-6840000D02*
X6340000Y-7160000D01*
X6340000Y-13340000D02*
X6660000Y-13660000D01*
X6660000Y-13340000D02*
X6340000Y-13660000D01*
X9990000Y-7790000D02*
X10310000Y-8110000D01*
X10310000Y-7790000D02*
X9990000Y-8110000D01*
X9990000Y-12390000D02*
X10310000Y-12710000D01*
X10310000Y-12390000D02*
X9990000Y-12710000D01*
X15090000Y-7790000D02*
X15410000Y-8110000D01*
X15410000Y-7790000D02*
X15090000Y-8110000D01*
X15090000Y-12390000D02*
X15410000Y-12710000D01*
X15410000Y-12390000D02*
X15090000Y-12710000D01*
X15340000Y-6840000D02*
X15660000Y-7160000D01*
X15660000Y-6840000D02*
X15340000Y-7160000D01*
X15340000Y-13340000D02*
X15660000Y-13660000D01*
X15660000Y-13340000D02*
X15340000Y-13660000D01*
D12*
X6283928Y-14468214D02*
X6283928Y-14168214D01*
X6355357Y-14168214D01*
X6398214Y-14182500D01*
X6426786Y-14211071D01*
X6441071Y-14239643D01*
X6455357Y-14296786D01*
X6455357Y-14339643D01*
X6441071Y-14396786D01*
X6426786Y-14425357D01*
X6398214Y-14453929D01*
X6355357Y-14468214D01*
X6283928Y-14468214D01*
X6583928Y-14468214D02*
X6583928Y-14268214D01*
X6583928Y-14325357D02*
X6598214Y-14296786D01*
X6612500Y-14282500D01*
X6641071Y-14268214D01*
X6669643Y-14268214D01*
X6769643Y-14468214D02*
X6769643Y-14268214D01*
X6769643Y-14168214D02*
X6755357Y-14182500D01*
X6769643Y-14196786D01*
X6783928Y-14182500D01*
X6769643Y-14168214D01*
X6769643Y-14196786D01*
X6955357Y-14468214D02*
X6926786Y-14453929D01*
X6912500Y-14425357D01*
X6912500Y-14168214D01*
X7112500Y-14468214D02*
X7083928Y-14453929D01*
X7069643Y-14425357D01*
X7069643Y-14168214D01*
X7455357Y-14468214D02*
X7455357Y-14168214D01*
X7555357Y-14382500D01*
X7655357Y-14168214D01*
X7655357Y-14468214D01*
X7926786Y-14468214D02*
X7926786Y-14311071D01*
X7912500Y-14282500D01*
X7883928Y-14268214D01*
X7826786Y-14268214D01*
X7798214Y-14282500D01*
X7926786Y-14453929D02*
X7898214Y-14468214D01*
X7826786Y-14468214D01*
X7798214Y-14453929D01*
X7783928Y-14425357D01*
X7783928Y-14396786D01*
X7798214Y-14368214D01*
X7826786Y-14353929D01*
X7898214Y-14353929D01*
X7926786Y-14339643D01*
X8069643Y-14268214D02*
X8069643Y-14568214D01*
X8069643Y-14282500D02*
X8098214Y-14268214D01*
X8155357Y-14268214D01*
X8183928Y-14282500D01*
X8198214Y-14296786D01*
X8212500Y-14325357D01*
X8212500Y-14411071D01*
X8198214Y-14439643D01*
X8183928Y-14453929D01*
X8155357Y-14468214D01*
X8098214Y-14468214D01*
X8069643Y-14453929D01*
X8341071Y-14439643D02*
X8355357Y-14453929D01*
X8341071Y-14468214D01*
X8326786Y-14453929D01*
X8341071Y-14439643D01*
X8341071Y-14468214D01*
X8341071Y-14282500D02*
X8355357Y-14296786D01*
X8341071Y-14311071D01*
X8326786Y-14296786D01*
X8341071Y-14282500D01*
X8341071Y-14311071D01*
X5677500Y-14802500D02*
X5997500Y-15122500D01*
X5997500Y-14802500D02*
X5677500Y-15122500D01*
X6255357Y-14798214D02*
X6441071Y-14798214D01*
X6341071Y-14912500D01*
X6383928Y-14912500D01*
X6412500Y-14926786D01*
X6426786Y-14941071D01*
X6441071Y-14969643D01*
X6441071Y-15041071D01*
X6426786Y-15069643D01*
X6412500Y-15083929D01*
X6383928Y-15098214D01*
X6298214Y-15098214D01*
X6269643Y-15083929D01*
X6255357Y-15069643D01*
X6569643Y-15069643D02*
X6583928Y-15083929D01*
X6569643Y-15098214D01*
X6555357Y-15083929D01*
X6569643Y-15069643D01*
X6569643Y-15098214D01*
X6698214Y-14826786D02*
X6712500Y-14812500D01*
X6741071Y-14798214D01*
X6812500Y-14798214D01*
X6841071Y-14812500D01*
X6855357Y-14826786D01*
X6869643Y-14855357D01*
X6869643Y-14883929D01*
X6855357Y-14926786D01*
X6683928Y-15098214D01*
X6869643Y-15098214D01*
X7055357Y-14798214D02*
X7083928Y-14798214D01*
X7112500Y-14812500D01*
X7126786Y-14826786D01*
X7141071Y-14855357D01*
X7155357Y-14912500D01*
X7155357Y-14983929D01*
X7141071Y-15041071D01*
X7126786Y-15069643D01*
X7112500Y-15083929D01*
X7083928Y-15098214D01*
X7055357Y-15098214D01*
X7026786Y-15083929D01*
X7012500Y-15069643D01*
X6998214Y-15041071D01*
X6983928Y-14983929D01*
X6983928Y-14912500D01*
X6998214Y-14855357D01*
X7012500Y-14826786D01*
X7026786Y-14812500D01*
X7055357Y-14798214D01*
X7341071Y-14798214D02*
X7369643Y-14798214D01*
X7398214Y-14812500D01*
X7412500Y-14826786D01*
X7426786Y-14855357D01*
X7441071Y-14912500D01*
X7441071Y-14983929D01*
X7426786Y-15041071D01*
X7412500Y-15069643D01*
X7398214Y-15083929D01*
X7369643Y-15098214D01*
X7341071Y-15098214D01*
X7312500Y-15083929D01*
X7298214Y-15069643D01*
X7283928Y-15041071D01*
X7269643Y-14983929D01*
X7269643Y-14912500D01*
X7283928Y-14855357D01*
X7298214Y-14826786D01*
X7312500Y-14812500D01*
X7341071Y-14798214D01*
X7569643Y-15098214D02*
X7569643Y-14898214D01*
X7569643Y-14926786D02*
X7583928Y-14912500D01*
X7612500Y-14898214D01*
X7655357Y-14898214D01*
X7683928Y-14912500D01*
X7698214Y-14941071D01*
X7698214Y-15098214D01*
X7698214Y-14941071D02*
X7712500Y-14912500D01*
X7741071Y-14898214D01*
X7783928Y-14898214D01*
X7812500Y-14912500D01*
X7826786Y-14941071D01*
X7826786Y-15098214D01*
X7969643Y-15098214D02*
X7969643Y-14898214D01*
X7969643Y-14926786D02*
X7983928Y-14912500D01*
X8012500Y-14898214D01*
X8055357Y-14898214D01*
X8083928Y-14912500D01*
X8098214Y-14941071D01*
X8098214Y-15098214D01*
X8098214Y-14941071D02*
X8112500Y-14912500D01*
X8141071Y-14898214D01*
X8183928Y-14898214D01*
X8212500Y-14912500D01*
X8226786Y-14941071D01*
X8226786Y-15098214D01*
X8812500Y-14783929D02*
X8555357Y-15169643D01*
X9198214Y-14798214D02*
X9226786Y-14798214D01*
X9255357Y-14812500D01*
X9269643Y-14826786D01*
X9283928Y-14855357D01*
X9298214Y-14912500D01*
X9298214Y-14983929D01*
X9283928Y-15041071D01*
X9269643Y-15069643D01*
X9255357Y-15083929D01*
X9226786Y-15098214D01*
X9198214Y-15098214D01*
X9169643Y-15083929D01*
X9155357Y-15069643D01*
X9141071Y-15041071D01*
X9126786Y-14983929D01*
X9126786Y-14912500D01*
X9141071Y-14855357D01*
X9155357Y-14826786D01*
X9169643Y-14812500D01*
X9198214Y-14798214D01*
X9426786Y-15069643D02*
X9441071Y-15083929D01*
X9426786Y-15098214D01*
X9412500Y-15083929D01*
X9426786Y-15069643D01*
X9426786Y-15098214D01*
X9726786Y-15098214D02*
X9555357Y-15098214D01*
X9641071Y-15098214D02*
X9641071Y-14798214D01*
X9612500Y-14841071D01*
X9583928Y-14869643D01*
X9555357Y-14883929D01*
X9841071Y-14826786D02*
X9855357Y-14812500D01*
X9883928Y-14798214D01*
X9955357Y-14798214D01*
X9983928Y-14812500D01*
X9998214Y-14826786D01*
X10012500Y-14855357D01*
X10012500Y-14883929D01*
X9998214Y-14926786D01*
X9826786Y-15098214D01*
X10012500Y-15098214D01*
X10269643Y-14798214D02*
X10212500Y-14798214D01*
X10183928Y-14812500D01*
X10169643Y-14826786D01*
X10141071Y-14869643D01*
X10126786Y-14926786D01*
X10126786Y-15041071D01*
X10141071Y-15069643D01*
X10155357Y-15083929D01*
X10183928Y-15098214D01*
X10241071Y-15098214D01*
X10269643Y-15083929D01*
X10283928Y-15069643D01*
X10298214Y-15041071D01*
X10298214Y-14969643D01*
X10283928Y-14941071D01*
X10269643Y-14926786D01*
X10241071Y-14912500D01*
X10183928Y-14912500D01*
X10155357Y-14926786D01*
X10141071Y-14941071D01*
X10126786Y-14969643D01*
X10483928Y-14798214D02*
X10512500Y-14798214D01*
X10541071Y-14812500D01*
X10555357Y-14826786D01*
X10569643Y-14855357D01*
X10583928Y-14912500D01*
X10583928Y-14983929D01*
X10569643Y-15041071D01*
X10555357Y-15069643D01*
X10541071Y-15083929D01*
X10512500Y-15098214D01*
X10483928Y-15098214D01*
X10455357Y-15083929D01*
X10441071Y-15069643D01*
X10426786Y-15041071D01*
X10412500Y-14983929D01*
X10412500Y-14912500D01*
X10426786Y-14855357D01*
X10441071Y-14826786D01*
X10455357Y-14812500D01*
X10483928Y-14798214D01*
X10698214Y-14798214D02*
X10698214Y-14855357D01*
X10812500Y-14798214D02*
X10812500Y-14855357D01*
X11255357Y-15212500D02*
X11241071Y-15198214D01*
X11212500Y-15155357D01*
X11198214Y-15126786D01*
X11183928Y-15083929D01*
X11169643Y-15012500D01*
X11169643Y-14955357D01*
X11183928Y-14883929D01*
X11198214Y-14841071D01*
X11212500Y-14812500D01*
X11241071Y-14769643D01*
X11255357Y-14755357D01*
X11412500Y-14926786D02*
X11383928Y-14912500D01*
X11369643Y-14898214D01*
X11355357Y-14869643D01*
X11355357Y-14855357D01*
X11369643Y-14826786D01*
X11383928Y-14812500D01*
X11412500Y-14798214D01*
X11469643Y-14798214D01*
X11498214Y-14812500D01*
X11512500Y-14826786D01*
X11526786Y-14855357D01*
X11526786Y-14869643D01*
X11512500Y-14898214D01*
X11498214Y-14912500D01*
X11469643Y-14926786D01*
X11412500Y-14926786D01*
X11383928Y-14941071D01*
X11369643Y-14955357D01*
X11355357Y-14983929D01*
X11355357Y-15041071D01*
X11369643Y-15069643D01*
X11383928Y-15083929D01*
X11412500Y-15098214D01*
X11469643Y-15098214D01*
X11498214Y-15083929D01*
X11512500Y-15069643D01*
X11526786Y-15041071D01*
X11526786Y-14983929D01*
X11512500Y-14955357D01*
X11498214Y-14941071D01*
X11469643Y-14926786D01*
X11883928Y-15098214D02*
X11883928Y-14798214D01*
X12012500Y-15098214D02*
X12012500Y-14941071D01*
X11998214Y-14912500D01*
X11969643Y-14898214D01*
X11926786Y-14898214D01*
X11898214Y-14912500D01*
X11883928Y-14926786D01*
X12198214Y-15098214D02*
X12169643Y-15083929D01*
X12155357Y-15069643D01*
X12141071Y-15041071D01*
X12141071Y-14955357D01*
X12155357Y-14926786D01*
X12169643Y-14912500D01*
X12198214Y-14898214D01*
X12241071Y-14898214D01*
X12269643Y-14912500D01*
X12283928Y-14926786D01*
X12298214Y-14955357D01*
X12298214Y-15041071D01*
X12283928Y-15069643D01*
X12269643Y-15083929D01*
X12241071Y-15098214D01*
X12198214Y-15098214D01*
X12469643Y-15098214D02*
X12441071Y-15083929D01*
X12426786Y-15055357D01*
X12426786Y-14798214D01*
X12698214Y-15083929D02*
X12669643Y-15098214D01*
X12612500Y-15098214D01*
X12583928Y-15083929D01*
X12569643Y-15055357D01*
X12569643Y-14941071D01*
X12583928Y-14912500D01*
X12612500Y-14898214D01*
X12669643Y-14898214D01*
X12698214Y-14912500D01*
X12712500Y-14941071D01*
X12712500Y-14969643D01*
X12569643Y-14998214D01*
X12826786Y-15083929D02*
X12855357Y-15098214D01*
X12912500Y-15098214D01*
X12941071Y-15083929D01*
X12955357Y-15055357D01*
X12955357Y-15041071D01*
X12941071Y-15012500D01*
X12912500Y-14998214D01*
X12869643Y-14998214D01*
X12841071Y-14983929D01*
X12826786Y-14955357D01*
X12826786Y-14941071D01*
X12841071Y-14912500D01*
X12869643Y-14898214D01*
X12912500Y-14898214D01*
X12941071Y-14912500D01*
X13055357Y-15212500D02*
X13069643Y-15198214D01*
X13098214Y-15155357D01*
X13112500Y-15126786D01*
X13126786Y-15083929D01*
X13141071Y-15012500D01*
X13141071Y-14955357D01*
X13126786Y-14883929D01*
X13112500Y-14841071D01*
X13098214Y-14812500D01*
X13069643Y-14769643D01*
X13055357Y-14755357D01*
X13598214Y-15212500D02*
X13583928Y-15198214D01*
X13555357Y-15155357D01*
X13541071Y-15126786D01*
X13526786Y-15083929D01*
X13512500Y-15012500D01*
X13512500Y-14955357D01*
X13526786Y-14883929D01*
X13541071Y-14841071D01*
X13555357Y-14812500D01*
X13583928Y-14769643D01*
X13598214Y-14755357D01*
X13712500Y-14898214D02*
X13712500Y-15098214D01*
X13712500Y-14926786D02*
X13726786Y-14912500D01*
X13755357Y-14898214D01*
X13798214Y-14898214D01*
X13826786Y-14912500D01*
X13841071Y-14941071D01*
X13841071Y-15098214D01*
X14026786Y-15098214D02*
X13998214Y-15083929D01*
X13983928Y-15069643D01*
X13969643Y-15041071D01*
X13969643Y-14955357D01*
X13983928Y-14926786D01*
X13998214Y-14912500D01*
X14026786Y-14898214D01*
X14069643Y-14898214D01*
X14098214Y-14912500D01*
X14112500Y-14926786D01*
X14126786Y-14955357D01*
X14126786Y-15041071D01*
X14112500Y-15069643D01*
X14098214Y-15083929D01*
X14069643Y-15098214D01*
X14026786Y-15098214D01*
X14212500Y-14898214D02*
X14326786Y-14898214D01*
X14255357Y-14798214D02*
X14255357Y-15055357D01*
X14269643Y-15083929D01*
X14298214Y-15098214D01*
X14326786Y-15098214D01*
X14655357Y-14898214D02*
X14655357Y-15198214D01*
X14655357Y-14912500D02*
X14683928Y-14898214D01*
X14741071Y-14898214D01*
X14769643Y-14912500D01*
X14783928Y-14926786D01*
X14798214Y-14955357D01*
X14798214Y-15041071D01*
X14783928Y-15069643D01*
X14769643Y-15083929D01*
X14741071Y-15098214D01*
X14683928Y-15098214D01*
X14655357Y-15083929D01*
X14969643Y-15098214D02*
X14941071Y-15083929D01*
X14926786Y-15055357D01*
X14926786Y-14798214D01*
X15212500Y-15098214D02*
X15212500Y-14941071D01*
X15198214Y-14912500D01*
X15169643Y-14898214D01*
X15112500Y-14898214D01*
X15083928Y-14912500D01*
X15212500Y-15083929D02*
X15183928Y-15098214D01*
X15112500Y-15098214D01*
X15083928Y-15083929D01*
X15069643Y-15055357D01*
X15069643Y-15026786D01*
X15083928Y-14998214D01*
X15112500Y-14983929D01*
X15183928Y-14983929D01*
X15212500Y-14969643D01*
X15312500Y-14898214D02*
X15426786Y-14898214D01*
X15355357Y-14798214D02*
X15355357Y-15055357D01*
X15369643Y-15083929D01*
X15398214Y-15098214D01*
X15426786Y-15098214D01*
X15641071Y-15083929D02*
X15612500Y-15098214D01*
X15555357Y-15098214D01*
X15526786Y-15083929D01*
X15512500Y-15055357D01*
X15512500Y-14941071D01*
X15526786Y-14912500D01*
X15555357Y-14898214D01*
X15612500Y-14898214D01*
X15641071Y-14912500D01*
X15655357Y-14941071D01*
X15655357Y-14969643D01*
X15512500Y-14998214D01*
X15912500Y-15098214D02*
X15912500Y-14798214D01*
X15912500Y-15083929D02*
X15883928Y-15098214D01*
X15826786Y-15098214D01*
X15798214Y-15083929D01*
X15783928Y-15069643D01*
X15769643Y-15041071D01*
X15769643Y-14955357D01*
X15783928Y-14926786D01*
X15798214Y-14912500D01*
X15826786Y-14898214D01*
X15883928Y-14898214D01*
X15912500Y-14912500D01*
X16026786Y-15212500D02*
X16041071Y-15198214D01*
X16069643Y-15155357D01*
X16083928Y-15126786D01*
X16098214Y-15083929D01*
X16112500Y-15012500D01*
X16112500Y-14955357D01*
X16098214Y-14883929D01*
X16083928Y-14841071D01*
X16069643Y-14812500D01*
X16041071Y-14769643D01*
X16026786Y-14755357D01*
M02*
