%TF.GenerationSoftware,KiCad,Pcbnew,(5.1.10)-1*%
%TF.CreationDate,2021-12-02T13:25:04+01:00*%
%TF.ProjectId,BlindController,426c696e-6443-46f6-9e74-726f6c6c6572,rev?*%
%TF.SameCoordinates,Original*%
%TF.FileFunction,Soldermask,Top*%
%TF.FilePolarity,Negative*%
%FSLAX46Y46*%
G04 Gerber Fmt 4.6, Leading zero omitted, Abs format (unit mm)*
G04 Created by KiCad (PCBNEW (5.1.10)-1) date 2021-12-02 13:25:04*
%MOMM*%
%LPD*%
G01*
G04 APERTURE LIST*
%ADD10O,1.600000X1.600000*%
%ADD11C,1.600000*%
%ADD12O,1.700000X1.700000*%
%ADD13R,1.700000X1.700000*%
%ADD14C,3.200000*%
%ADD15C,1.524000*%
%ADD16R,1.524000X1.524000*%
G04 APERTURE END LIST*
D10*
%TO.C,R1*%
X108458000Y-128270000D03*
D11*
X108458000Y-120650000D03*
%TD*%
%TO.C,C3*%
G36*
G01*
X124348001Y-123560000D02*
X123047999Y-123560000D01*
G75*
G02*
X122798000Y-123310001I0J249999D01*
G01*
X122798000Y-122484999D01*
G75*
G02*
X123047999Y-122235000I249999J0D01*
G01*
X124348001Y-122235000D01*
G75*
G02*
X124598000Y-122484999I0J-249999D01*
G01*
X124598000Y-123310001D01*
G75*
G02*
X124348001Y-123560000I-249999J0D01*
G01*
G37*
G36*
G01*
X124348001Y-126685000D02*
X123047999Y-126685000D01*
G75*
G02*
X122798000Y-126435001I0J249999D01*
G01*
X122798000Y-125609999D01*
G75*
G02*
X123047999Y-125360000I249999J0D01*
G01*
X124348001Y-125360000D01*
G75*
G02*
X124598000Y-125609999I0J-249999D01*
G01*
X124598000Y-126435001D01*
G75*
G02*
X124348001Y-126685000I-249999J0D01*
G01*
G37*
%TD*%
%TO.C,C2*%
G36*
G01*
X120538001Y-123560000D02*
X119237999Y-123560000D01*
G75*
G02*
X118988000Y-123310001I0J249999D01*
G01*
X118988000Y-122484999D01*
G75*
G02*
X119237999Y-122235000I249999J0D01*
G01*
X120538001Y-122235000D01*
G75*
G02*
X120788000Y-122484999I0J-249999D01*
G01*
X120788000Y-123310001D01*
G75*
G02*
X120538001Y-123560000I-249999J0D01*
G01*
G37*
G36*
G01*
X120538001Y-126685000D02*
X119237999Y-126685000D01*
G75*
G02*
X118988000Y-126435001I0J249999D01*
G01*
X118988000Y-125609999D01*
G75*
G02*
X119237999Y-125360000I249999J0D01*
G01*
X120538001Y-125360000D01*
G75*
G02*
X120788000Y-125609999I0J-249999D01*
G01*
X120788000Y-126435001D01*
G75*
G02*
X120538001Y-126685000I-249999J0D01*
G01*
G37*
%TD*%
%TO.C,C1*%
G36*
G01*
X116474001Y-123560000D02*
X115173999Y-123560000D01*
G75*
G02*
X114924000Y-123310001I0J249999D01*
G01*
X114924000Y-122484999D01*
G75*
G02*
X115173999Y-122235000I249999J0D01*
G01*
X116474001Y-122235000D01*
G75*
G02*
X116724000Y-122484999I0J-249999D01*
G01*
X116724000Y-123310001D01*
G75*
G02*
X116474001Y-123560000I-249999J0D01*
G01*
G37*
G36*
G01*
X116474001Y-126685000D02*
X115173999Y-126685000D01*
G75*
G02*
X114924000Y-126435001I0J249999D01*
G01*
X114924000Y-125609999D01*
G75*
G02*
X115173999Y-125360000I249999J0D01*
G01*
X116474001Y-125360000D01*
G75*
G02*
X116724000Y-125609999I0J-249999D01*
G01*
X116724000Y-126435001D01*
G75*
G02*
X116474001Y-126685000I-249999J0D01*
G01*
G37*
%TD*%
D12*
%TO.C,KEYBOARD1*%
X106172000Y-135128000D03*
X103632000Y-135128000D03*
X101092000Y-135128000D03*
D13*
X98552000Y-135128000D03*
%TD*%
D12*
%TO.C,ENCODER1*%
X148844000Y-135128000D03*
X146304000Y-135128000D03*
X143764000Y-135128000D03*
D13*
X141224000Y-135128000D03*
%TD*%
D14*
%TO.C,REF\u002A\u002A*%
X101500000Y-79500000D03*
%TD*%
%TO.C,REF\u002A\u002A*%
X152500000Y-79500000D03*
%TD*%
%TO.C,REF\u002A\u002A*%
X152500000Y-125500000D03*
%TD*%
%TO.C,REF\u002A\u002A*%
X101500000Y-125500000D03*
%TD*%
D12*
%TO.C,5V_CONN1*%
X92964000Y-116586000D03*
D13*
X92964000Y-114046000D03*
%TD*%
D14*
%TO.C,REF\u002A\u002A*%
X65000000Y-70000000D03*
%TD*%
%TO.C,REF\u002A\u002A*%
X155000000Y-70000000D03*
%TD*%
%TO.C,REF\u002A\u002A*%
X155000000Y-135000000D03*
%TD*%
%TO.C,REF\u002A\u002A*%
X65000000Y-135000000D03*
%TD*%
D12*
%TO.C,MOTOR_CONTROLLER1*%
X92964000Y-109780000D03*
X92964000Y-107240000D03*
X92964000Y-104700000D03*
X92964000Y-102160000D03*
X92964000Y-99620000D03*
X92964000Y-97080000D03*
X92964000Y-94540000D03*
D13*
X92964000Y-92000000D03*
%TD*%
D15*
%TO.C,U1*%
X88700000Y-82265500D03*
X88700000Y-84805500D03*
X88700000Y-87345500D03*
X88700000Y-89885500D03*
X88700000Y-92425500D03*
X88700000Y-94965500D03*
X88700000Y-97505500D03*
X88700000Y-100045500D03*
X88700000Y-102585500D03*
X88700000Y-105125500D03*
X88700000Y-107665500D03*
X88700000Y-110205500D03*
X88700000Y-112745500D03*
X88700000Y-115285500D03*
X88700000Y-117825500D03*
X63300000Y-117825500D03*
X63300000Y-115285500D03*
X63300000Y-112745500D03*
X63300000Y-110205500D03*
X63300000Y-107665500D03*
X63300000Y-105125500D03*
X63300000Y-102585500D03*
X63300000Y-100045500D03*
X63300000Y-97505500D03*
X63300000Y-94965500D03*
X63300000Y-92425500D03*
X63300000Y-89885500D03*
X63300000Y-87345500D03*
X63300000Y-84805500D03*
D16*
X63300000Y-82265500D03*
%TD*%
M02*
