%TF.GenerationSoftware,KiCad,Pcbnew,(5.1.10)-1*%
%TF.CreationDate,2021-12-02T13:25:04+01:00*%
%TF.ProjectId,BlindController,426c696e-6443-46f6-9e74-726f6c6c6572,rev?*%
%TF.SameCoordinates,Original*%
%TF.FileFunction,Legend,Top*%
%TF.FilePolarity,Positive*%
%FSLAX46Y46*%
G04 Gerber Fmt 4.6, Leading zero omitted, Abs format (unit mm)*
G04 Created by KiCad (PCBNEW (5.1.10)-1) date 2021-12-02 13:25:04*
%MOMM*%
%LPD*%
G01*
G04 APERTURE LIST*
%ADD10C,0.150000*%
%ADD11C,0.120000*%
%ADD12C,0.800000*%
%ADD13C,1.000000*%
%ADD14O,1.600000X1.600000*%
%ADD15C,1.600000*%
%ADD16O,1.700000X1.700000*%
%ADD17R,1.700000X1.700000*%
%ADD18C,3.200000*%
%ADD19C,1.524000*%
%ADD20R,1.524000X1.524000*%
G04 APERTURE END LIST*
D10*
X140414952Y-69556380D02*
X140414952Y-70270666D01*
X140367333Y-70413523D01*
X140272095Y-70508761D01*
X140129238Y-70556380D01*
X140034000Y-70556380D01*
X141367333Y-70556380D02*
X140891142Y-70556380D01*
X140891142Y-69556380D01*
X142272095Y-70461142D02*
X142224476Y-70508761D01*
X142081619Y-70556380D01*
X141986380Y-70556380D01*
X141843523Y-70508761D01*
X141748285Y-70413523D01*
X141700666Y-70318285D01*
X141653047Y-70127809D01*
X141653047Y-69984952D01*
X141700666Y-69794476D01*
X141748285Y-69699238D01*
X141843523Y-69604000D01*
X141986380Y-69556380D01*
X142081619Y-69556380D01*
X142224476Y-69604000D01*
X142272095Y-69651619D01*
X142986380Y-69556380D02*
X142986380Y-70270666D01*
X142938761Y-70413523D01*
X142843523Y-70508761D01*
X142700666Y-70556380D01*
X142605428Y-70556380D01*
X143938761Y-70556380D02*
X143462571Y-70556380D01*
X143462571Y-69556380D01*
X144843523Y-70461142D02*
X144795904Y-70508761D01*
X144653047Y-70556380D01*
X144557809Y-70556380D01*
X144414952Y-70508761D01*
X144319714Y-70413523D01*
X144272095Y-70318285D01*
X144224476Y-70127809D01*
X144224476Y-69984952D01*
X144272095Y-69794476D01*
X144319714Y-69699238D01*
X144414952Y-69604000D01*
X144557809Y-69556380D01*
X144653047Y-69556380D01*
X144795904Y-69604000D01*
X144843523Y-69651619D01*
X145557809Y-69556380D02*
X145557809Y-70270666D01*
X145510190Y-70413523D01*
X145414952Y-70508761D01*
X145272095Y-70556380D01*
X145176857Y-70556380D01*
X146510190Y-70556380D02*
X146034000Y-70556380D01*
X146034000Y-69556380D01*
X147414952Y-70461142D02*
X147367333Y-70508761D01*
X147224476Y-70556380D01*
X147129238Y-70556380D01*
X146986380Y-70508761D01*
X146891142Y-70413523D01*
X146843523Y-70318285D01*
X146795904Y-70127809D01*
X146795904Y-69984952D01*
X146843523Y-69794476D01*
X146891142Y-69699238D01*
X146986380Y-69604000D01*
X147129238Y-69556380D01*
X147224476Y-69556380D01*
X147367333Y-69604000D01*
X147414952Y-69651619D01*
X148129238Y-69556380D02*
X148129238Y-70270666D01*
X148081619Y-70413523D01*
X147986380Y-70508761D01*
X147843523Y-70556380D01*
X147748285Y-70556380D01*
X149081619Y-70556380D02*
X148605428Y-70556380D01*
X148605428Y-69556380D01*
X149986380Y-70461142D02*
X149938761Y-70508761D01*
X149795904Y-70556380D01*
X149700666Y-70556380D01*
X149557809Y-70508761D01*
X149462571Y-70413523D01*
X149414952Y-70318285D01*
X149367333Y-70127809D01*
X149367333Y-69984952D01*
X149414952Y-69794476D01*
X149462571Y-69699238D01*
X149557809Y-69604000D01*
X149700666Y-69556380D01*
X149795904Y-69556380D01*
X149938761Y-69604000D01*
X149986380Y-69651619D01*
X68533333Y-134247380D02*
X68533333Y-133247380D01*
X69104761Y-134247380D02*
X68676190Y-133675952D01*
X69104761Y-133247380D02*
X68533333Y-133818809D01*
X69533333Y-134247380D02*
X69533333Y-133580714D01*
X69533333Y-133771190D02*
X69580952Y-133675952D01*
X69628571Y-133628333D01*
X69723809Y-133580714D01*
X69819047Y-133580714D01*
X70057142Y-133580714D02*
X70580952Y-133580714D01*
X70057142Y-134247380D01*
X70580952Y-134247380D01*
X70866666Y-133580714D02*
X71104761Y-134247380D01*
X71342857Y-133580714D02*
X71104761Y-134247380D01*
X71009523Y-134485476D01*
X70961904Y-134533095D01*
X70866666Y-134580714D01*
X71676190Y-134199761D02*
X71771428Y-134247380D01*
X71961904Y-134247380D01*
X72057142Y-134199761D01*
X72104761Y-134104523D01*
X72104761Y-134056904D01*
X72057142Y-133961666D01*
X71961904Y-133914047D01*
X71819047Y-133914047D01*
X71723809Y-133866428D01*
X71676190Y-133771190D01*
X71676190Y-133723571D01*
X71723809Y-133628333D01*
X71819047Y-133580714D01*
X71961904Y-133580714D01*
X72057142Y-133628333D01*
X72438095Y-133580714D02*
X72961904Y-133580714D01*
X72438095Y-134247380D01*
X72961904Y-134247380D01*
X73200000Y-133580714D02*
X73580952Y-133580714D01*
X73342857Y-133247380D02*
X73342857Y-134104523D01*
X73390476Y-134199761D01*
X73485714Y-134247380D01*
X73580952Y-134247380D01*
X74057142Y-134247380D02*
X73961904Y-134199761D01*
X73914285Y-134152142D01*
X73866666Y-134056904D01*
X73866666Y-133771190D01*
X73914285Y-133675952D01*
X73961904Y-133628333D01*
X74057142Y-133580714D01*
X74200000Y-133580714D01*
X74295238Y-133628333D01*
X74342857Y-133675952D01*
X74390476Y-133771190D01*
X74390476Y-134056904D01*
X74342857Y-134152142D01*
X74295238Y-134199761D01*
X74200000Y-134247380D01*
X74057142Y-134247380D01*
X74676190Y-133580714D02*
X75057142Y-133580714D01*
X74819047Y-134247380D02*
X74819047Y-133390238D01*
X74866666Y-133295000D01*
X74961904Y-133247380D01*
X75057142Y-133247380D01*
X76152380Y-134247380D02*
X76152380Y-133247380D01*
X76533333Y-133247380D01*
X76628571Y-133295000D01*
X76676190Y-133342619D01*
X76723809Y-133437857D01*
X76723809Y-133580714D01*
X76676190Y-133675952D01*
X76628571Y-133723571D01*
X76533333Y-133771190D01*
X76152380Y-133771190D01*
X77295238Y-134247380D02*
X77200000Y-134199761D01*
X77152380Y-134152142D01*
X77104761Y-134056904D01*
X77104761Y-133771190D01*
X77152380Y-133675952D01*
X77200000Y-133628333D01*
X77295238Y-133580714D01*
X77438095Y-133580714D01*
X77533333Y-133628333D01*
X77580952Y-133675952D01*
X77628571Y-133771190D01*
X77628571Y-134056904D01*
X77580952Y-134152142D01*
X77533333Y-134199761D01*
X77438095Y-134247380D01*
X77295238Y-134247380D01*
X77485714Y-133199761D02*
X77342857Y-133342619D01*
X78200000Y-134247380D02*
X78104761Y-134199761D01*
X78057142Y-134104523D01*
X78057142Y-133247380D01*
X77914285Y-133771190D02*
X78200000Y-133580714D01*
X79009523Y-134199761D02*
X78914285Y-134247380D01*
X78723809Y-134247380D01*
X78628571Y-134199761D01*
X78580952Y-134152142D01*
X78533333Y-134056904D01*
X78533333Y-133771190D01*
X78580952Y-133675952D01*
X78628571Y-133628333D01*
X78723809Y-133580714D01*
X78914285Y-133580714D01*
X79009523Y-133628333D01*
X79438095Y-134247380D02*
X79438095Y-133247380D01*
X79866666Y-134247380D02*
X79866666Y-133723571D01*
X79819047Y-133628333D01*
X79723809Y-133580714D01*
X79580952Y-133580714D01*
X79485714Y-133628333D01*
X79438095Y-133675952D01*
X80485714Y-134247380D02*
X80390476Y-134199761D01*
X80342857Y-134104523D01*
X80342857Y-133247380D01*
X80200000Y-133771190D02*
X80485714Y-133580714D01*
X81009523Y-134247380D02*
X80914285Y-134199761D01*
X80866666Y-134152142D01*
X80819047Y-134056904D01*
X80819047Y-133771190D01*
X80866666Y-133675952D01*
X80914285Y-133628333D01*
X81009523Y-133580714D01*
X81152380Y-133580714D01*
X81247619Y-133628333D01*
X81295238Y-133675952D01*
X81342857Y-133771190D01*
X81342857Y-134056904D01*
X81295238Y-134152142D01*
X81247619Y-134199761D01*
X81152380Y-134247380D01*
X81009523Y-134247380D01*
X81771428Y-133580714D02*
X81771428Y-134580714D01*
X81771428Y-133628333D02*
X81866666Y-133580714D01*
X82057142Y-133580714D01*
X82152380Y-133628333D01*
X82200000Y-133675952D01*
X82247619Y-133771190D01*
X82247619Y-134056904D01*
X82200000Y-134152142D01*
X82152380Y-134199761D01*
X82057142Y-134247380D01*
X81866666Y-134247380D01*
X81771428Y-134199761D01*
X83057142Y-134199761D02*
X82961904Y-134247380D01*
X82771428Y-134247380D01*
X82676190Y-134199761D01*
X82628571Y-134104523D01*
X82628571Y-133723571D01*
X82676190Y-133628333D01*
X82771428Y-133580714D01*
X82961904Y-133580714D01*
X83057142Y-133628333D01*
X83104761Y-133723571D01*
X83104761Y-133818809D01*
X82628571Y-133914047D01*
X83533333Y-134247380D02*
X83533333Y-133247380D01*
X83628571Y-133866428D02*
X83914285Y-134247380D01*
X83914285Y-133580714D02*
X83533333Y-133961666D01*
X72580952Y-134992619D02*
X72628571Y-134945000D01*
X72723809Y-134897380D01*
X72961904Y-134897380D01*
X73057142Y-134945000D01*
X73104761Y-134992619D01*
X73152380Y-135087857D01*
X73152380Y-135183095D01*
X73104761Y-135325952D01*
X72533333Y-135897380D01*
X73152380Y-135897380D01*
X73580952Y-135802142D02*
X73628571Y-135849761D01*
X73580952Y-135897380D01*
X73533333Y-135849761D01*
X73580952Y-135802142D01*
X73580952Y-135897380D01*
X74580952Y-135897380D02*
X74009523Y-135897380D01*
X74295238Y-135897380D02*
X74295238Y-134897380D01*
X74200000Y-135040238D01*
X74104761Y-135135476D01*
X74009523Y-135183095D01*
X74961904Y-134992619D02*
X75009523Y-134945000D01*
X75104761Y-134897380D01*
X75342857Y-134897380D01*
X75438095Y-134945000D01*
X75485714Y-134992619D01*
X75533333Y-135087857D01*
X75533333Y-135183095D01*
X75485714Y-135325952D01*
X74914285Y-135897380D01*
X75533333Y-135897380D01*
X75961904Y-135802142D02*
X76009523Y-135849761D01*
X75961904Y-135897380D01*
X75914285Y-135849761D01*
X75961904Y-135802142D01*
X75961904Y-135897380D01*
X76390476Y-134992619D02*
X76438095Y-134945000D01*
X76533333Y-134897380D01*
X76771428Y-134897380D01*
X76866666Y-134945000D01*
X76914285Y-134992619D01*
X76961904Y-135087857D01*
X76961904Y-135183095D01*
X76914285Y-135325952D01*
X76342857Y-135897380D01*
X76961904Y-135897380D01*
X77580952Y-134897380D02*
X77676190Y-134897380D01*
X77771428Y-134945000D01*
X77819047Y-134992619D01*
X77866666Y-135087857D01*
X77914285Y-135278333D01*
X77914285Y-135516428D01*
X77866666Y-135706904D01*
X77819047Y-135802142D01*
X77771428Y-135849761D01*
X77676190Y-135897380D01*
X77580952Y-135897380D01*
X77485714Y-135849761D01*
X77438095Y-135802142D01*
X77390476Y-135706904D01*
X77342857Y-135516428D01*
X77342857Y-135278333D01*
X77390476Y-135087857D01*
X77438095Y-134992619D01*
X77485714Y-134945000D01*
X77580952Y-134897380D01*
X78295238Y-134992619D02*
X78342857Y-134945000D01*
X78438095Y-134897380D01*
X78676190Y-134897380D01*
X78771428Y-134945000D01*
X78819047Y-134992619D01*
X78866666Y-135087857D01*
X78866666Y-135183095D01*
X78819047Y-135325952D01*
X78247619Y-135897380D01*
X78866666Y-135897380D01*
X79819047Y-135897380D02*
X79247619Y-135897380D01*
X79533333Y-135897380D02*
X79533333Y-134897380D01*
X79438095Y-135040238D01*
X79342857Y-135135476D01*
X79247619Y-135183095D01*
D11*
X97000000Y-130000000D02*
X97000000Y-75000000D01*
X157000000Y-130000000D02*
X97000000Y-130000000D01*
X157000000Y-75000000D02*
X157000000Y-130000000D01*
X97000000Y-75000000D02*
X157000000Y-75000000D01*
%TO.C,R1*%
X109498000Y-121190000D02*
X109828000Y-121190000D01*
X109828000Y-121190000D02*
X109828000Y-127730000D01*
X109828000Y-127730000D02*
X109498000Y-127730000D01*
X107418000Y-121190000D02*
X107088000Y-121190000D01*
X107088000Y-121190000D02*
X107088000Y-127730000D01*
X107088000Y-127730000D02*
X107418000Y-127730000D01*
%TO.C,C3*%
X122788000Y-125171252D02*
X122788000Y-123748748D01*
X124608000Y-125171252D02*
X124608000Y-123748748D01*
%TO.C,C2*%
X118978000Y-125171252D02*
X118978000Y-123748748D01*
X120798000Y-125171252D02*
X120798000Y-123748748D01*
%TO.C,C1*%
X114914000Y-125171252D02*
X114914000Y-123748748D01*
X116734000Y-125171252D02*
X116734000Y-123748748D01*
%TO.C,KEYBOARD1*%
X107502000Y-136458000D02*
X107502000Y-133798000D01*
X99822000Y-136458000D02*
X107502000Y-136458000D01*
X99822000Y-133798000D02*
X107502000Y-133798000D01*
X99822000Y-136458000D02*
X99822000Y-133798000D01*
X98552000Y-136458000D02*
X97222000Y-136458000D01*
X97222000Y-136458000D02*
X97222000Y-135128000D01*
%TO.C,ENCODER1*%
X150174000Y-136458000D02*
X150174000Y-133798000D01*
X142494000Y-136458000D02*
X150174000Y-136458000D01*
X142494000Y-133798000D02*
X150174000Y-133798000D01*
X142494000Y-136458000D02*
X142494000Y-133798000D01*
X141224000Y-136458000D02*
X139894000Y-136458000D01*
X139894000Y-136458000D02*
X139894000Y-135128000D01*
%TO.C,5V_CONN1*%
X91634000Y-112716000D02*
X92964000Y-112716000D01*
X91634000Y-114046000D02*
X91634000Y-112716000D01*
X91634000Y-115316000D02*
X94294000Y-115316000D01*
X94294000Y-115316000D02*
X94294000Y-117916000D01*
X91634000Y-115316000D02*
X91634000Y-117916000D01*
X91634000Y-117916000D02*
X94294000Y-117916000D01*
%TO.C,MOTOR_CONTROLLER1*%
X91634000Y-90670000D02*
X92964000Y-90670000D01*
X91634000Y-92000000D02*
X91634000Y-90670000D01*
X91634000Y-93270000D02*
X94294000Y-93270000D01*
X94294000Y-93270000D02*
X94294000Y-111110000D01*
X91634000Y-93270000D02*
X91634000Y-111110000D01*
X91634000Y-111110000D02*
X94294000Y-111110000D01*
%TO.C,U1*%
X65800000Y-78225500D02*
G75*
G03*
X65800000Y-78225500I-1500000J0D01*
G01*
X89200000Y-78225500D02*
G75*
G03*
X89200000Y-78225500I-1500000J0D01*
G01*
X90000000Y-125725500D02*
X90000000Y-78225500D01*
X62000000Y-78225500D02*
X62000000Y-125725500D01*
X64000000Y-127725500D02*
X88000000Y-127725500D01*
X64000000Y-76225500D02*
X88000000Y-76225500D01*
X65800000Y-125725500D02*
G75*
G03*
X65800000Y-125725500I-1500000J0D01*
G01*
X89200000Y-125725500D02*
G75*
G03*
X89200000Y-125725500I-1500000J0D01*
G01*
X72000000Y-121725500D02*
X72000000Y-127725500D01*
X80000000Y-121725500D02*
X80000000Y-127725500D01*
X72000000Y-121725500D02*
X80000000Y-121725500D01*
X67110000Y-77495500D02*
X84890000Y-77495500D01*
X84890000Y-77495500D02*
X84890000Y-82575500D01*
X84890000Y-82575500D02*
X67110000Y-82575500D01*
X67110000Y-82575500D02*
X67110000Y-77495500D01*
X68380000Y-81813500D02*
X68380000Y-78257500D01*
X68380000Y-78257500D02*
X70920000Y-78257500D01*
X70920000Y-78257500D02*
X70920000Y-80289500D01*
X70920000Y-80289500D02*
X73460000Y-80289500D01*
X73460000Y-80289500D02*
X73460000Y-78257500D01*
X73460000Y-78257500D02*
X76000000Y-78257500D01*
X76000000Y-78257500D02*
X76000000Y-80289500D01*
X76000000Y-80289500D02*
X78540000Y-80289500D01*
X78540000Y-80289500D02*
X78540000Y-78257500D01*
X78540000Y-78257500D02*
X83620000Y-78257500D01*
X83620000Y-78257500D02*
X83620000Y-81813500D01*
X81080000Y-78257500D02*
X81080000Y-81813500D01*
X68500000Y-83225500D02*
X83500000Y-83225500D01*
X83500000Y-83225500D02*
X83500000Y-101225500D01*
X83500000Y-101225500D02*
X68500000Y-101225500D01*
X68500000Y-101225500D02*
X68500000Y-83225500D01*
D12*
X71320000Y-99085500D02*
G75*
G03*
X71320000Y-99085500I-400000J0D01*
G01*
D11*
X82350000Y-123215500D02*
X84890000Y-123215500D01*
X84890000Y-123215500D02*
X84890000Y-127025500D01*
X84890000Y-127025500D02*
X82350000Y-127025500D01*
X82350000Y-127025500D02*
X82350000Y-123215500D01*
X69650000Y-127025500D02*
X67110000Y-127025500D01*
X67110000Y-127025500D02*
X67110000Y-123215500D01*
X67110000Y-123215500D02*
X69650000Y-123215500D01*
X69650000Y-123215500D02*
X69650000Y-127025500D01*
D13*
X68680000Y-125120500D02*
G75*
G03*
X68680000Y-125120500I-300000J0D01*
G01*
X83920000Y-125120500D02*
G75*
G03*
X83920000Y-125120500I-300000J0D01*
G01*
D11*
X90000000Y-125725500D02*
G75*
G02*
X88000000Y-127725500I-2000000J0D01*
G01*
X64000000Y-127725500D02*
G75*
G02*
X62000000Y-125725500I0J2000000D01*
G01*
X62000000Y-78225500D02*
G75*
G02*
X64000000Y-76225500I2000000J0D01*
G01*
X88000000Y-76225500D02*
G75*
G02*
X90000000Y-78225500I0J-2000000D01*
G01*
%TO.C,R1*%
D10*
X111280380Y-124626666D02*
X110804190Y-124960000D01*
X111280380Y-125198095D02*
X110280380Y-125198095D01*
X110280380Y-124817142D01*
X110328000Y-124721904D01*
X110375619Y-124674285D01*
X110470857Y-124626666D01*
X110613714Y-124626666D01*
X110708952Y-124674285D01*
X110756571Y-124721904D01*
X110804190Y-124817142D01*
X110804190Y-125198095D01*
X111280380Y-123674285D02*
X111280380Y-124245714D01*
X111280380Y-123960000D02*
X110280380Y-123960000D01*
X110423238Y-124055238D01*
X110518476Y-124150476D01*
X110566095Y-124245714D01*
%TO.C,C3*%
X122205142Y-124626666D02*
X122252761Y-124674285D01*
X122300380Y-124817142D01*
X122300380Y-124912380D01*
X122252761Y-125055238D01*
X122157523Y-125150476D01*
X122062285Y-125198095D01*
X121871809Y-125245714D01*
X121728952Y-125245714D01*
X121538476Y-125198095D01*
X121443238Y-125150476D01*
X121348000Y-125055238D01*
X121300380Y-124912380D01*
X121300380Y-124817142D01*
X121348000Y-124674285D01*
X121395619Y-124626666D01*
X121300380Y-124293333D02*
X121300380Y-123674285D01*
X121681333Y-124007619D01*
X121681333Y-123864761D01*
X121728952Y-123769523D01*
X121776571Y-123721904D01*
X121871809Y-123674285D01*
X122109904Y-123674285D01*
X122205142Y-123721904D01*
X122252761Y-123769523D01*
X122300380Y-123864761D01*
X122300380Y-124150476D01*
X122252761Y-124245714D01*
X122205142Y-124293333D01*
%TO.C,C2*%
X118395142Y-124626666D02*
X118442761Y-124674285D01*
X118490380Y-124817142D01*
X118490380Y-124912380D01*
X118442761Y-125055238D01*
X118347523Y-125150476D01*
X118252285Y-125198095D01*
X118061809Y-125245714D01*
X117918952Y-125245714D01*
X117728476Y-125198095D01*
X117633238Y-125150476D01*
X117538000Y-125055238D01*
X117490380Y-124912380D01*
X117490380Y-124817142D01*
X117538000Y-124674285D01*
X117585619Y-124626666D01*
X117585619Y-124245714D02*
X117538000Y-124198095D01*
X117490380Y-124102857D01*
X117490380Y-123864761D01*
X117538000Y-123769523D01*
X117585619Y-123721904D01*
X117680857Y-123674285D01*
X117776095Y-123674285D01*
X117918952Y-123721904D01*
X118490380Y-124293333D01*
X118490380Y-123674285D01*
%TO.C,C1*%
X114331142Y-124626666D02*
X114378761Y-124674285D01*
X114426380Y-124817142D01*
X114426380Y-124912380D01*
X114378761Y-125055238D01*
X114283523Y-125150476D01*
X114188285Y-125198095D01*
X113997809Y-125245714D01*
X113854952Y-125245714D01*
X113664476Y-125198095D01*
X113569238Y-125150476D01*
X113474000Y-125055238D01*
X113426380Y-124912380D01*
X113426380Y-124817142D01*
X113474000Y-124674285D01*
X113521619Y-124626666D01*
X114426380Y-123674285D02*
X114426380Y-124245714D01*
X114426380Y-123960000D02*
X113426380Y-123960000D01*
X113569238Y-124055238D01*
X113664476Y-124150476D01*
X113712095Y-124245714D01*
%TO.C,KEYBOARD1*%
X98290571Y-133294380D02*
X98290571Y-132294380D01*
X98862000Y-133294380D02*
X98433428Y-132722952D01*
X98862000Y-132294380D02*
X98290571Y-132865809D01*
X99290571Y-132770571D02*
X99623904Y-132770571D01*
X99766761Y-133294380D02*
X99290571Y-133294380D01*
X99290571Y-132294380D01*
X99766761Y-132294380D01*
X100385809Y-132818190D02*
X100385809Y-133294380D01*
X100052476Y-132294380D02*
X100385809Y-132818190D01*
X100719142Y-132294380D01*
X101385809Y-132770571D02*
X101528666Y-132818190D01*
X101576285Y-132865809D01*
X101623904Y-132961047D01*
X101623904Y-133103904D01*
X101576285Y-133199142D01*
X101528666Y-133246761D01*
X101433428Y-133294380D01*
X101052476Y-133294380D01*
X101052476Y-132294380D01*
X101385809Y-132294380D01*
X101481047Y-132342000D01*
X101528666Y-132389619D01*
X101576285Y-132484857D01*
X101576285Y-132580095D01*
X101528666Y-132675333D01*
X101481047Y-132722952D01*
X101385809Y-132770571D01*
X101052476Y-132770571D01*
X102242952Y-132294380D02*
X102433428Y-132294380D01*
X102528666Y-132342000D01*
X102623904Y-132437238D01*
X102671523Y-132627714D01*
X102671523Y-132961047D01*
X102623904Y-133151523D01*
X102528666Y-133246761D01*
X102433428Y-133294380D01*
X102242952Y-133294380D01*
X102147714Y-133246761D01*
X102052476Y-133151523D01*
X102004857Y-132961047D01*
X102004857Y-132627714D01*
X102052476Y-132437238D01*
X102147714Y-132342000D01*
X102242952Y-132294380D01*
X103052476Y-133008666D02*
X103528666Y-133008666D01*
X102957238Y-133294380D02*
X103290571Y-132294380D01*
X103623904Y-133294380D01*
X104528666Y-133294380D02*
X104195333Y-132818190D01*
X103957238Y-133294380D02*
X103957238Y-132294380D01*
X104338190Y-132294380D01*
X104433428Y-132342000D01*
X104481047Y-132389619D01*
X104528666Y-132484857D01*
X104528666Y-132627714D01*
X104481047Y-132722952D01*
X104433428Y-132770571D01*
X104338190Y-132818190D01*
X103957238Y-132818190D01*
X104957238Y-133294380D02*
X104957238Y-132294380D01*
X105195333Y-132294380D01*
X105338190Y-132342000D01*
X105433428Y-132437238D01*
X105481047Y-132532476D01*
X105528666Y-132722952D01*
X105528666Y-132865809D01*
X105481047Y-133056285D01*
X105433428Y-133151523D01*
X105338190Y-133246761D01*
X105195333Y-133294380D01*
X104957238Y-133294380D01*
X106481047Y-133294380D02*
X105909619Y-133294380D01*
X106195333Y-133294380D02*
X106195333Y-132294380D01*
X106100095Y-132437238D01*
X106004857Y-132532476D01*
X105909619Y-132580095D01*
%TO.C,ENCODER1*%
X141343523Y-132770571D02*
X141676857Y-132770571D01*
X141819714Y-133294380D02*
X141343523Y-133294380D01*
X141343523Y-132294380D01*
X141819714Y-132294380D01*
X142248285Y-133294380D02*
X142248285Y-132294380D01*
X142819714Y-133294380D01*
X142819714Y-132294380D01*
X143867333Y-133199142D02*
X143819714Y-133246761D01*
X143676857Y-133294380D01*
X143581619Y-133294380D01*
X143438761Y-133246761D01*
X143343523Y-133151523D01*
X143295904Y-133056285D01*
X143248285Y-132865809D01*
X143248285Y-132722952D01*
X143295904Y-132532476D01*
X143343523Y-132437238D01*
X143438761Y-132342000D01*
X143581619Y-132294380D01*
X143676857Y-132294380D01*
X143819714Y-132342000D01*
X143867333Y-132389619D01*
X144486380Y-132294380D02*
X144676857Y-132294380D01*
X144772095Y-132342000D01*
X144867333Y-132437238D01*
X144914952Y-132627714D01*
X144914952Y-132961047D01*
X144867333Y-133151523D01*
X144772095Y-133246761D01*
X144676857Y-133294380D01*
X144486380Y-133294380D01*
X144391142Y-133246761D01*
X144295904Y-133151523D01*
X144248285Y-132961047D01*
X144248285Y-132627714D01*
X144295904Y-132437238D01*
X144391142Y-132342000D01*
X144486380Y-132294380D01*
X145343523Y-133294380D02*
X145343523Y-132294380D01*
X145581619Y-132294380D01*
X145724476Y-132342000D01*
X145819714Y-132437238D01*
X145867333Y-132532476D01*
X145914952Y-132722952D01*
X145914952Y-132865809D01*
X145867333Y-133056285D01*
X145819714Y-133151523D01*
X145724476Y-133246761D01*
X145581619Y-133294380D01*
X145343523Y-133294380D01*
X146343523Y-132770571D02*
X146676857Y-132770571D01*
X146819714Y-133294380D02*
X146343523Y-133294380D01*
X146343523Y-132294380D01*
X146819714Y-132294380D01*
X147819714Y-133294380D02*
X147486380Y-132818190D01*
X147248285Y-133294380D02*
X147248285Y-132294380D01*
X147629238Y-132294380D01*
X147724476Y-132342000D01*
X147772095Y-132389619D01*
X147819714Y-132484857D01*
X147819714Y-132627714D01*
X147772095Y-132722952D01*
X147724476Y-132770571D01*
X147629238Y-132818190D01*
X147248285Y-132818190D01*
X148772095Y-133294380D02*
X148200666Y-133294380D01*
X148486380Y-133294380D02*
X148486380Y-132294380D01*
X148391142Y-132437238D01*
X148295904Y-132532476D01*
X148200666Y-132580095D01*
%TO.C,5V_CONN1*%
X94702380Y-118435047D02*
X94702380Y-118911238D01*
X95178571Y-118958857D01*
X95130952Y-118911238D01*
X95083333Y-118816000D01*
X95083333Y-118577904D01*
X95130952Y-118482666D01*
X95178571Y-118435047D01*
X95273809Y-118387428D01*
X95511904Y-118387428D01*
X95607142Y-118435047D01*
X95654761Y-118482666D01*
X95702380Y-118577904D01*
X95702380Y-118816000D01*
X95654761Y-118911238D01*
X95607142Y-118958857D01*
X94702380Y-118101714D02*
X95702380Y-117768380D01*
X94702380Y-117435047D01*
X95797619Y-117339809D02*
X95797619Y-116577904D01*
X95607142Y-115768380D02*
X95654761Y-115816000D01*
X95702380Y-115958857D01*
X95702380Y-116054095D01*
X95654761Y-116196952D01*
X95559523Y-116292190D01*
X95464285Y-116339809D01*
X95273809Y-116387428D01*
X95130952Y-116387428D01*
X94940476Y-116339809D01*
X94845238Y-116292190D01*
X94750000Y-116196952D01*
X94702380Y-116054095D01*
X94702380Y-115958857D01*
X94750000Y-115816000D01*
X94797619Y-115768380D01*
X94702380Y-115149333D02*
X94702380Y-114958857D01*
X94750000Y-114863619D01*
X94845238Y-114768380D01*
X95035714Y-114720761D01*
X95369047Y-114720761D01*
X95559523Y-114768380D01*
X95654761Y-114863619D01*
X95702380Y-114958857D01*
X95702380Y-115149333D01*
X95654761Y-115244571D01*
X95559523Y-115339809D01*
X95369047Y-115387428D01*
X95035714Y-115387428D01*
X94845238Y-115339809D01*
X94750000Y-115244571D01*
X94702380Y-115149333D01*
X95702380Y-114292190D02*
X94702380Y-114292190D01*
X95702380Y-113720761D01*
X94702380Y-113720761D01*
X95702380Y-113244571D02*
X94702380Y-113244571D01*
X95702380Y-112673142D01*
X94702380Y-112673142D01*
X95702380Y-111673142D02*
X95702380Y-112244571D01*
X95702380Y-111958857D02*
X94702380Y-111958857D01*
X94845238Y-112054095D01*
X94940476Y-112149333D01*
X94988095Y-112244571D01*
%TO.C,MOTOR_CONTROLLER1*%
X95829380Y-109433333D02*
X94829380Y-109433333D01*
X95543666Y-109100000D01*
X94829380Y-108766666D01*
X95829380Y-108766666D01*
X94829380Y-108100000D02*
X94829380Y-107909523D01*
X94877000Y-107814285D01*
X94972238Y-107719047D01*
X95162714Y-107671428D01*
X95496047Y-107671428D01*
X95686523Y-107719047D01*
X95781761Y-107814285D01*
X95829380Y-107909523D01*
X95829380Y-108100000D01*
X95781761Y-108195238D01*
X95686523Y-108290476D01*
X95496047Y-108338095D01*
X95162714Y-108338095D01*
X94972238Y-108290476D01*
X94877000Y-108195238D01*
X94829380Y-108100000D01*
X94829380Y-107385714D02*
X94829380Y-106814285D01*
X95829380Y-107100000D02*
X94829380Y-107100000D01*
X94829380Y-106290476D02*
X94829380Y-106100000D01*
X94877000Y-106004761D01*
X94972238Y-105909523D01*
X95162714Y-105861904D01*
X95496047Y-105861904D01*
X95686523Y-105909523D01*
X95781761Y-106004761D01*
X95829380Y-106100000D01*
X95829380Y-106290476D01*
X95781761Y-106385714D01*
X95686523Y-106480952D01*
X95496047Y-106528571D01*
X95162714Y-106528571D01*
X94972238Y-106480952D01*
X94877000Y-106385714D01*
X94829380Y-106290476D01*
X95829380Y-104861904D02*
X95353190Y-105195238D01*
X95829380Y-105433333D02*
X94829380Y-105433333D01*
X94829380Y-105052380D01*
X94877000Y-104957142D01*
X94924619Y-104909523D01*
X95019857Y-104861904D01*
X95162714Y-104861904D01*
X95257952Y-104909523D01*
X95305571Y-104957142D01*
X95353190Y-105052380D01*
X95353190Y-105433333D01*
X95924619Y-104671428D02*
X95924619Y-103909523D01*
X95734142Y-103100000D02*
X95781761Y-103147619D01*
X95829380Y-103290476D01*
X95829380Y-103385714D01*
X95781761Y-103528571D01*
X95686523Y-103623809D01*
X95591285Y-103671428D01*
X95400809Y-103719047D01*
X95257952Y-103719047D01*
X95067476Y-103671428D01*
X94972238Y-103623809D01*
X94877000Y-103528571D01*
X94829380Y-103385714D01*
X94829380Y-103290476D01*
X94877000Y-103147619D01*
X94924619Y-103100000D01*
X94829380Y-102480952D02*
X94829380Y-102290476D01*
X94877000Y-102195238D01*
X94972238Y-102100000D01*
X95162714Y-102052380D01*
X95496047Y-102052380D01*
X95686523Y-102100000D01*
X95781761Y-102195238D01*
X95829380Y-102290476D01*
X95829380Y-102480952D01*
X95781761Y-102576190D01*
X95686523Y-102671428D01*
X95496047Y-102719047D01*
X95162714Y-102719047D01*
X94972238Y-102671428D01*
X94877000Y-102576190D01*
X94829380Y-102480952D01*
X95829380Y-101623809D02*
X94829380Y-101623809D01*
X95829380Y-101052380D01*
X94829380Y-101052380D01*
X94829380Y-100719047D02*
X94829380Y-100147619D01*
X95829380Y-100433333D02*
X94829380Y-100433333D01*
X95829380Y-99242857D02*
X95353190Y-99576190D01*
X95829380Y-99814285D02*
X94829380Y-99814285D01*
X94829380Y-99433333D01*
X94877000Y-99338095D01*
X94924619Y-99290476D01*
X95019857Y-99242857D01*
X95162714Y-99242857D01*
X95257952Y-99290476D01*
X95305571Y-99338095D01*
X95353190Y-99433333D01*
X95353190Y-99814285D01*
X94829380Y-98623809D02*
X94829380Y-98433333D01*
X94877000Y-98338095D01*
X94972238Y-98242857D01*
X95162714Y-98195238D01*
X95496047Y-98195238D01*
X95686523Y-98242857D01*
X95781761Y-98338095D01*
X95829380Y-98433333D01*
X95829380Y-98623809D01*
X95781761Y-98719047D01*
X95686523Y-98814285D01*
X95496047Y-98861904D01*
X95162714Y-98861904D01*
X94972238Y-98814285D01*
X94877000Y-98719047D01*
X94829380Y-98623809D01*
X95829380Y-97290476D02*
X95829380Y-97766666D01*
X94829380Y-97766666D01*
X95829380Y-96480952D02*
X95829380Y-96957142D01*
X94829380Y-96957142D01*
X95305571Y-96147619D02*
X95305571Y-95814285D01*
X95829380Y-95671428D02*
X95829380Y-96147619D01*
X94829380Y-96147619D01*
X94829380Y-95671428D01*
X95829380Y-94671428D02*
X95353190Y-95004761D01*
X95829380Y-95242857D02*
X94829380Y-95242857D01*
X94829380Y-94861904D01*
X94877000Y-94766666D01*
X94924619Y-94719047D01*
X95019857Y-94671428D01*
X95162714Y-94671428D01*
X95257952Y-94719047D01*
X95305571Y-94766666D01*
X95353190Y-94861904D01*
X95353190Y-95242857D01*
X95829380Y-93719047D02*
X95829380Y-94290476D01*
X95829380Y-94004761D02*
X94829380Y-94004761D01*
X94972238Y-94100000D01*
X95067476Y-94195238D01*
X95115095Y-94290476D01*
%TO.C,U1*%
X75238095Y-92187880D02*
X75238095Y-92997404D01*
X75285714Y-93092642D01*
X75333333Y-93140261D01*
X75428571Y-93187880D01*
X75619047Y-93187880D01*
X75714285Y-93140261D01*
X75761904Y-93092642D01*
X75809523Y-92997404D01*
X75809523Y-92187880D01*
X76809523Y-93187880D02*
X76238095Y-93187880D01*
X76523809Y-93187880D02*
X76523809Y-92187880D01*
X76428571Y-92330738D01*
X76333333Y-92425976D01*
X76238095Y-92473595D01*
X66118095Y-121874071D02*
X66451428Y-121874071D01*
X66594285Y-122397880D02*
X66118095Y-122397880D01*
X66118095Y-121397880D01*
X66594285Y-121397880D01*
X67022857Y-121731214D02*
X67022857Y-122397880D01*
X67022857Y-121826452D02*
X67070476Y-121778833D01*
X67165714Y-121731214D01*
X67308571Y-121731214D01*
X67403809Y-121778833D01*
X67451428Y-121874071D01*
X67451428Y-122397880D01*
X68356190Y-122397880D02*
X68356190Y-121874071D01*
X68308571Y-121778833D01*
X68213333Y-121731214D01*
X68022857Y-121731214D01*
X67927619Y-121778833D01*
X68356190Y-122350261D02*
X68260952Y-122397880D01*
X68022857Y-122397880D01*
X67927619Y-122350261D01*
X67880000Y-122255023D01*
X67880000Y-122159785D01*
X67927619Y-122064547D01*
X68022857Y-122016928D01*
X68260952Y-122016928D01*
X68356190Y-121969309D01*
X68832380Y-122397880D02*
X68832380Y-121397880D01*
X68832380Y-121778833D02*
X68927619Y-121731214D01*
X69118095Y-121731214D01*
X69213333Y-121778833D01*
X69260952Y-121826452D01*
X69308571Y-121921690D01*
X69308571Y-122207404D01*
X69260952Y-122302642D01*
X69213333Y-122350261D01*
X69118095Y-122397880D01*
X68927619Y-122397880D01*
X68832380Y-122350261D01*
X69880000Y-122397880D02*
X69784761Y-122350261D01*
X69737142Y-122255023D01*
X69737142Y-121397880D01*
X70641904Y-122350261D02*
X70546666Y-122397880D01*
X70356190Y-122397880D01*
X70260952Y-122350261D01*
X70213333Y-122255023D01*
X70213333Y-121874071D01*
X70260952Y-121778833D01*
X70356190Y-121731214D01*
X70546666Y-121731214D01*
X70641904Y-121778833D01*
X70689523Y-121874071D01*
X70689523Y-121969309D01*
X70213333Y-122064547D01*
X82500952Y-121874071D02*
X82643809Y-121921690D01*
X82691428Y-121969309D01*
X82739047Y-122064547D01*
X82739047Y-122207404D01*
X82691428Y-122302642D01*
X82643809Y-122350261D01*
X82548571Y-122397880D01*
X82167619Y-122397880D01*
X82167619Y-121397880D01*
X82500952Y-121397880D01*
X82596190Y-121445500D01*
X82643809Y-121493119D01*
X82691428Y-121588357D01*
X82691428Y-121683595D01*
X82643809Y-121778833D01*
X82596190Y-121826452D01*
X82500952Y-121874071D01*
X82167619Y-121874071D01*
X83310476Y-122397880D02*
X83215238Y-122350261D01*
X83167619Y-122302642D01*
X83120000Y-122207404D01*
X83120000Y-121921690D01*
X83167619Y-121826452D01*
X83215238Y-121778833D01*
X83310476Y-121731214D01*
X83453333Y-121731214D01*
X83548571Y-121778833D01*
X83596190Y-121826452D01*
X83643809Y-121921690D01*
X83643809Y-122207404D01*
X83596190Y-122302642D01*
X83548571Y-122350261D01*
X83453333Y-122397880D01*
X83310476Y-122397880D01*
X84215238Y-122397880D02*
X84120000Y-122350261D01*
X84072380Y-122302642D01*
X84024761Y-122207404D01*
X84024761Y-121921690D01*
X84072380Y-121826452D01*
X84120000Y-121778833D01*
X84215238Y-121731214D01*
X84358095Y-121731214D01*
X84453333Y-121778833D01*
X84500952Y-121826452D01*
X84548571Y-121921690D01*
X84548571Y-122207404D01*
X84500952Y-122302642D01*
X84453333Y-122350261D01*
X84358095Y-122397880D01*
X84215238Y-122397880D01*
X84834285Y-121731214D02*
X85215238Y-121731214D01*
X84977142Y-121397880D02*
X84977142Y-122255023D01*
X85024761Y-122350261D01*
X85120000Y-122397880D01*
X85215238Y-122397880D01*
X74738095Y-125207880D02*
X74738095Y-126017404D01*
X74785714Y-126112642D01*
X74833333Y-126160261D01*
X74928571Y-126207880D01*
X75119047Y-126207880D01*
X75214285Y-126160261D01*
X75261904Y-126112642D01*
X75309523Y-126017404D01*
X75309523Y-125207880D01*
X75738095Y-126160261D02*
X75880952Y-126207880D01*
X76119047Y-126207880D01*
X76214285Y-126160261D01*
X76261904Y-126112642D01*
X76309523Y-126017404D01*
X76309523Y-125922166D01*
X76261904Y-125826928D01*
X76214285Y-125779309D01*
X76119047Y-125731690D01*
X75928571Y-125684071D01*
X75833333Y-125636452D01*
X75785714Y-125588833D01*
X75738095Y-125493595D01*
X75738095Y-125398357D01*
X75785714Y-125303119D01*
X75833333Y-125255500D01*
X75928571Y-125207880D01*
X76166666Y-125207880D01*
X76309523Y-125255500D01*
X77071428Y-125684071D02*
X77214285Y-125731690D01*
X77261904Y-125779309D01*
X77309523Y-125874547D01*
X77309523Y-126017404D01*
X77261904Y-126112642D01*
X77214285Y-126160261D01*
X77119047Y-126207880D01*
X76738095Y-126207880D01*
X76738095Y-125207880D01*
X77071428Y-125207880D01*
X77166666Y-125255500D01*
X77214285Y-125303119D01*
X77261904Y-125398357D01*
X77261904Y-125493595D01*
X77214285Y-125588833D01*
X77166666Y-125636452D01*
X77071428Y-125684071D01*
X76738095Y-125684071D01*
%TD*%
%LPC*%
D14*
%TO.C,R1*%
X108458000Y-128270000D03*
D15*
X108458000Y-120650000D03*
%TD*%
%TO.C,C3*%
G36*
G01*
X124348001Y-123560000D02*
X123047999Y-123560000D01*
G75*
G02*
X122798000Y-123310001I0J249999D01*
G01*
X122798000Y-122484999D01*
G75*
G02*
X123047999Y-122235000I249999J0D01*
G01*
X124348001Y-122235000D01*
G75*
G02*
X124598000Y-122484999I0J-249999D01*
G01*
X124598000Y-123310001D01*
G75*
G02*
X124348001Y-123560000I-249999J0D01*
G01*
G37*
G36*
G01*
X124348001Y-126685000D02*
X123047999Y-126685000D01*
G75*
G02*
X122798000Y-126435001I0J249999D01*
G01*
X122798000Y-125609999D01*
G75*
G02*
X123047999Y-125360000I249999J0D01*
G01*
X124348001Y-125360000D01*
G75*
G02*
X124598000Y-125609999I0J-249999D01*
G01*
X124598000Y-126435001D01*
G75*
G02*
X124348001Y-126685000I-249999J0D01*
G01*
G37*
%TD*%
%TO.C,C2*%
G36*
G01*
X120538001Y-123560000D02*
X119237999Y-123560000D01*
G75*
G02*
X118988000Y-123310001I0J249999D01*
G01*
X118988000Y-122484999D01*
G75*
G02*
X119237999Y-122235000I249999J0D01*
G01*
X120538001Y-122235000D01*
G75*
G02*
X120788000Y-122484999I0J-249999D01*
G01*
X120788000Y-123310001D01*
G75*
G02*
X120538001Y-123560000I-249999J0D01*
G01*
G37*
G36*
G01*
X120538001Y-126685000D02*
X119237999Y-126685000D01*
G75*
G02*
X118988000Y-126435001I0J249999D01*
G01*
X118988000Y-125609999D01*
G75*
G02*
X119237999Y-125360000I249999J0D01*
G01*
X120538001Y-125360000D01*
G75*
G02*
X120788000Y-125609999I0J-249999D01*
G01*
X120788000Y-126435001D01*
G75*
G02*
X120538001Y-126685000I-249999J0D01*
G01*
G37*
%TD*%
%TO.C,C1*%
G36*
G01*
X116474001Y-123560000D02*
X115173999Y-123560000D01*
G75*
G02*
X114924000Y-123310001I0J249999D01*
G01*
X114924000Y-122484999D01*
G75*
G02*
X115173999Y-122235000I249999J0D01*
G01*
X116474001Y-122235000D01*
G75*
G02*
X116724000Y-122484999I0J-249999D01*
G01*
X116724000Y-123310001D01*
G75*
G02*
X116474001Y-123560000I-249999J0D01*
G01*
G37*
G36*
G01*
X116474001Y-126685000D02*
X115173999Y-126685000D01*
G75*
G02*
X114924000Y-126435001I0J249999D01*
G01*
X114924000Y-125609999D01*
G75*
G02*
X115173999Y-125360000I249999J0D01*
G01*
X116474001Y-125360000D01*
G75*
G02*
X116724000Y-125609999I0J-249999D01*
G01*
X116724000Y-126435001D01*
G75*
G02*
X116474001Y-126685000I-249999J0D01*
G01*
G37*
%TD*%
D16*
%TO.C,KEYBOARD1*%
X106172000Y-135128000D03*
X103632000Y-135128000D03*
X101092000Y-135128000D03*
D17*
X98552000Y-135128000D03*
%TD*%
D16*
%TO.C,ENCODER1*%
X148844000Y-135128000D03*
X146304000Y-135128000D03*
X143764000Y-135128000D03*
D17*
X141224000Y-135128000D03*
%TD*%
D18*
%TO.C,REF\u002A\u002A*%
X101500000Y-79500000D03*
%TD*%
%TO.C,REF\u002A\u002A*%
X152500000Y-79500000D03*
%TD*%
%TO.C,REF\u002A\u002A*%
X152500000Y-125500000D03*
%TD*%
%TO.C,REF\u002A\u002A*%
X101500000Y-125500000D03*
%TD*%
D16*
%TO.C,5V_CONN1*%
X92964000Y-116586000D03*
D17*
X92964000Y-114046000D03*
%TD*%
D18*
%TO.C,REF\u002A\u002A*%
X65000000Y-70000000D03*
%TD*%
%TO.C,REF\u002A\u002A*%
X155000000Y-70000000D03*
%TD*%
%TO.C,REF\u002A\u002A*%
X155000000Y-135000000D03*
%TD*%
%TO.C,REF\u002A\u002A*%
X65000000Y-135000000D03*
%TD*%
D16*
%TO.C,MOTOR_CONTROLLER1*%
X92964000Y-109780000D03*
X92964000Y-107240000D03*
X92964000Y-104700000D03*
X92964000Y-102160000D03*
X92964000Y-99620000D03*
X92964000Y-97080000D03*
X92964000Y-94540000D03*
D17*
X92964000Y-92000000D03*
%TD*%
D19*
%TO.C,U1*%
X88700000Y-82265500D03*
X88700000Y-84805500D03*
X88700000Y-87345500D03*
X88700000Y-89885500D03*
X88700000Y-92425500D03*
X88700000Y-94965500D03*
X88700000Y-97505500D03*
X88700000Y-100045500D03*
X88700000Y-102585500D03*
X88700000Y-105125500D03*
X88700000Y-107665500D03*
X88700000Y-110205500D03*
X88700000Y-112745500D03*
X88700000Y-115285500D03*
X88700000Y-117825500D03*
X63300000Y-117825500D03*
X63300000Y-115285500D03*
X63300000Y-112745500D03*
X63300000Y-110205500D03*
X63300000Y-107665500D03*
X63300000Y-105125500D03*
X63300000Y-102585500D03*
X63300000Y-100045500D03*
X63300000Y-97505500D03*
X63300000Y-94965500D03*
X63300000Y-92425500D03*
X63300000Y-89885500D03*
X63300000Y-87345500D03*
X63300000Y-84805500D03*
D20*
X63300000Y-82265500D03*
%TD*%
M02*
