%TF.GenerationSoftware,KiCad,Pcbnew,(5.1.10)-1*%
%TF.CreationDate,2021-12-02T13:25:04+01:00*%
%TF.ProjectId,BlindController,426c696e-6443-46f6-9e74-726f6c6c6572,rev?*%
%TF.SameCoordinates,Original*%
%TF.FileFunction,Paste,Top*%
%TF.FilePolarity,Positive*%
%FSLAX46Y46*%
G04 Gerber Fmt 4.6, Leading zero omitted, Abs format (unit mm)*
G04 Created by KiCad (PCBNEW (5.1.10)-1) date 2021-12-02 13:25:04*
%MOMM*%
%LPD*%
G01*
G04 APERTURE LIST*
G04 APERTURE END LIST*
%TO.C,C3*%
G36*
G01*
X124348001Y-123560000D02*
X123047999Y-123560000D01*
G75*
G02*
X122798000Y-123310001I0J249999D01*
G01*
X122798000Y-122484999D01*
G75*
G02*
X123047999Y-122235000I249999J0D01*
G01*
X124348001Y-122235000D01*
G75*
G02*
X124598000Y-122484999I0J-249999D01*
G01*
X124598000Y-123310001D01*
G75*
G02*
X124348001Y-123560000I-249999J0D01*
G01*
G37*
G36*
G01*
X124348001Y-126685000D02*
X123047999Y-126685000D01*
G75*
G02*
X122798000Y-126435001I0J249999D01*
G01*
X122798000Y-125609999D01*
G75*
G02*
X123047999Y-125360000I249999J0D01*
G01*
X124348001Y-125360000D01*
G75*
G02*
X124598000Y-125609999I0J-249999D01*
G01*
X124598000Y-126435001D01*
G75*
G02*
X124348001Y-126685000I-249999J0D01*
G01*
G37*
%TD*%
%TO.C,C2*%
G36*
G01*
X120538001Y-123560000D02*
X119237999Y-123560000D01*
G75*
G02*
X118988000Y-123310001I0J249999D01*
G01*
X118988000Y-122484999D01*
G75*
G02*
X119237999Y-122235000I249999J0D01*
G01*
X120538001Y-122235000D01*
G75*
G02*
X120788000Y-122484999I0J-249999D01*
G01*
X120788000Y-123310001D01*
G75*
G02*
X120538001Y-123560000I-249999J0D01*
G01*
G37*
G36*
G01*
X120538001Y-126685000D02*
X119237999Y-126685000D01*
G75*
G02*
X118988000Y-126435001I0J249999D01*
G01*
X118988000Y-125609999D01*
G75*
G02*
X119237999Y-125360000I249999J0D01*
G01*
X120538001Y-125360000D01*
G75*
G02*
X120788000Y-125609999I0J-249999D01*
G01*
X120788000Y-126435001D01*
G75*
G02*
X120538001Y-126685000I-249999J0D01*
G01*
G37*
%TD*%
%TO.C,C1*%
G36*
G01*
X116474001Y-123560000D02*
X115173999Y-123560000D01*
G75*
G02*
X114924000Y-123310001I0J249999D01*
G01*
X114924000Y-122484999D01*
G75*
G02*
X115173999Y-122235000I249999J0D01*
G01*
X116474001Y-122235000D01*
G75*
G02*
X116724000Y-122484999I0J-249999D01*
G01*
X116724000Y-123310001D01*
G75*
G02*
X116474001Y-123560000I-249999J0D01*
G01*
G37*
G36*
G01*
X116474001Y-126685000D02*
X115173999Y-126685000D01*
G75*
G02*
X114924000Y-126435001I0J249999D01*
G01*
X114924000Y-125609999D01*
G75*
G02*
X115173999Y-125360000I249999J0D01*
G01*
X116474001Y-125360000D01*
G75*
G02*
X116724000Y-125609999I0J-249999D01*
G01*
X116724000Y-126435001D01*
G75*
G02*
X116474001Y-126685000I-249999J0D01*
G01*
G37*
%TD*%
M02*
