M48
; DRILL file {KiCad (5.1.10)-1} date 11/19/21 16:29:28
; FORMAT={-:-/ absolute / metric / decimal}
; #@! TF.CreationDate,2021-11-19T16:29:28+01:00
; #@! TF.GenerationSoftware,Kicad,Pcbnew,(5.1.10)-1
; #@! TF.FileFunction,Plated,1,2,PTH
FMAT,2
METRIC
T1C0.400
T2C0.800
T3C1.000
%
G90
G05
T1
X41.148Y-67.945
X41.148Y-86.995
X59.944Y-73.66
X63.5Y-67.564
X89.535Y-80.01
X89.916Y-95.25
X90.932Y-67.31
X91.694Y-80.01
X93.98Y-60.96
X95.504Y-59.182
X95.504Y-61.15
X95.504Y-68.326
X97.028Y-73.66
X103.124Y-68.58
X105.156Y-68.58
X105.664Y-89.408
X106.68Y-73.66
X107.188Y-68.58
X112.954Y-61.214
X112.954Y-63.221
X113.03Y-59.182
T2
X60.96Y-57.15
X60.96Y-64.77
X65.405Y-57.15
X65.405Y-64.77
X112.776Y-82.296
X114.776Y-82.296
T3
X47.244Y-57.15
X47.244Y-59.69
X47.244Y-62.23
X47.244Y-64.77
X47.244Y-67.31
X47.244Y-69.85
X47.244Y-78.74
X47.244Y-81.28
X47.244Y-83.82
X47.244Y-86.36
X47.244Y-88.9
X69.85Y-57.15
X69.85Y-59.69
X69.85Y-62.23
X69.85Y-64.77
X69.85Y-67.31
X69.85Y-69.85
X69.85Y-72.39
X69.85Y-74.93
X69.85Y-77.47
X69.85Y-80.01
X69.85Y-82.55
X69.85Y-85.09
X69.85Y-87.63
X69.85Y-90.17
X69.85Y-92.71
X85.09Y-57.15
X85.09Y-59.69
X85.09Y-62.23
X85.09Y-64.77
X85.09Y-67.31
X85.09Y-69.85
X85.09Y-72.39
X85.09Y-74.93
X85.09Y-77.47
X85.09Y-80.01
X85.09Y-82.55
X85.09Y-85.09
X85.09Y-87.63
X85.09Y-90.17
X85.09Y-92.71
X96.012Y-85.852
X96.012Y-88.392
X96.012Y-90.932
X101.092Y-86.106
X101.092Y-88.646
X101.092Y-91.186
X101.092Y-96.266
X103.632Y-96.266
X114.808Y-72.644
X114.808Y-75.184
T0
M30
