G04 #@! TF.GenerationSoftware,KiCad,Pcbnew,(5.1.10)-1*
G04 #@! TF.CreationDate,2021-11-19T16:29:16+01:00*
G04 #@! TF.ProjectId,WeatherStation,57656174-6865-4725-9374-6174696f6e2e,rev?*
G04 #@! TF.SameCoordinates,Original*
G04 #@! TF.FileFunction,Soldermask,Top*
G04 #@! TF.FilePolarity,Negative*
%FSLAX46Y46*%
G04 Gerber Fmt 4.6, Leading zero omitted, Abs format (unit mm)*
G04 Created by KiCad (PCBNEW (5.1.10)-1) date 2021-11-19 16:29:16*
%MOMM*%
%LPD*%
G01*
G04 APERTURE LIST*
%ADD10C,3.200000*%
%ADD11O,1.700000X1.700000*%
%ADD12R,1.700000X1.700000*%
%ADD13R,2.000000X1.000000*%
%ADD14R,1.000000X2.000000*%
%ADD15O,1.600000X1.600000*%
%ADD16C,1.600000*%
%ADD17R,1.600000X1.600000*%
G04 APERTURE END LIST*
D10*
X114808000Y-98298000D03*
X42418000Y-51816000D03*
X115062000Y-51816000D03*
X42418000Y-98298000D03*
G36*
G01*
X91043999Y-92594000D02*
X92344001Y-92594000D01*
G75*
G02*
X92594000Y-92843999I0J-249999D01*
G01*
X92594000Y-93669001D01*
G75*
G02*
X92344001Y-93919000I-249999J0D01*
G01*
X91043999Y-93919000D01*
G75*
G02*
X90794000Y-93669001I0J249999D01*
G01*
X90794000Y-92843999D01*
G75*
G02*
X91043999Y-92594000I249999J0D01*
G01*
G37*
G36*
G01*
X91043999Y-89469000D02*
X92344001Y-89469000D01*
G75*
G02*
X92594000Y-89718999I0J-249999D01*
G01*
X92594000Y-90544001D01*
G75*
G02*
X92344001Y-90794000I-249999J0D01*
G01*
X91043999Y-90794000D01*
G75*
G02*
X90794000Y-90544001I0J249999D01*
G01*
X90794000Y-89718999D01*
G75*
G02*
X91043999Y-89469000I249999J0D01*
G01*
G37*
G36*
G01*
X90816000Y-63388001D02*
X90816000Y-62087999D01*
G75*
G02*
X91065999Y-61838000I249999J0D01*
G01*
X91891001Y-61838000D01*
G75*
G02*
X92141000Y-62087999I0J-249999D01*
G01*
X92141000Y-63388001D01*
G75*
G02*
X91891001Y-63638000I-249999J0D01*
G01*
X91065999Y-63638000D01*
G75*
G02*
X90816000Y-63388001I0J249999D01*
G01*
G37*
G36*
G01*
X87691000Y-63388001D02*
X87691000Y-62087999D01*
G75*
G02*
X87940999Y-61838000I249999J0D01*
G01*
X88766001Y-61838000D01*
G75*
G02*
X89016000Y-62087999I0J-249999D01*
G01*
X89016000Y-63388001D01*
G75*
G02*
X88766001Y-63638000I-249999J0D01*
G01*
X87940999Y-63638000D01*
G75*
G02*
X87691000Y-63388001I0J249999D01*
G01*
G37*
G36*
G01*
X87487999Y-92594000D02*
X88788001Y-92594000D01*
G75*
G02*
X89038000Y-92843999I0J-249999D01*
G01*
X89038000Y-93669001D01*
G75*
G02*
X88788001Y-93919000I-249999J0D01*
G01*
X87487999Y-93919000D01*
G75*
G02*
X87238000Y-93669001I0J249999D01*
G01*
X87238000Y-92843999D01*
G75*
G02*
X87487999Y-92594000I249999J0D01*
G01*
G37*
G36*
G01*
X87487999Y-89469000D02*
X88788001Y-89469000D01*
G75*
G02*
X89038000Y-89718999I0J-249999D01*
G01*
X89038000Y-90544001D01*
G75*
G02*
X88788001Y-90794000I-249999J0D01*
G01*
X87487999Y-90794000D01*
G75*
G02*
X87238000Y-90544001I0J249999D01*
G01*
X87238000Y-89718999D01*
G75*
G02*
X87487999Y-89469000I249999J0D01*
G01*
G37*
G36*
G01*
X90816000Y-60086001D02*
X90816000Y-58785999D01*
G75*
G02*
X91065999Y-58536000I249999J0D01*
G01*
X91891001Y-58536000D01*
G75*
G02*
X92141000Y-58785999I0J-249999D01*
G01*
X92141000Y-60086001D01*
G75*
G02*
X91891001Y-60336000I-249999J0D01*
G01*
X91065999Y-60336000D01*
G75*
G02*
X90816000Y-60086001I0J249999D01*
G01*
G37*
G36*
G01*
X87691000Y-60086001D02*
X87691000Y-58785999D01*
G75*
G02*
X87940999Y-58536000I249999J0D01*
G01*
X88766001Y-58536000D01*
G75*
G02*
X89016000Y-58785999I0J-249999D01*
G01*
X89016000Y-60086001D01*
G75*
G02*
X88766001Y-60336000I-249999J0D01*
G01*
X87940999Y-60336000D01*
G75*
G02*
X87691000Y-60086001I0J249999D01*
G01*
G37*
G36*
G01*
X103770000Y-76596001D02*
X103770000Y-75295999D01*
G75*
G02*
X104019999Y-75046000I249999J0D01*
G01*
X104845001Y-75046000D01*
G75*
G02*
X105095000Y-75295999I0J-249999D01*
G01*
X105095000Y-76596001D01*
G75*
G02*
X104845001Y-76846000I-249999J0D01*
G01*
X104019999Y-76846000D01*
G75*
G02*
X103770000Y-76596001I0J249999D01*
G01*
G37*
G36*
G01*
X100645000Y-76596001D02*
X100645000Y-75295999D01*
G75*
G02*
X100894999Y-75046000I249999J0D01*
G01*
X101720001Y-75046000D01*
G75*
G02*
X101970000Y-75295999I0J-249999D01*
G01*
X101970000Y-76596001D01*
G75*
G02*
X101720001Y-76846000I-249999J0D01*
G01*
X100894999Y-76846000D01*
G75*
G02*
X100645000Y-76596001I0J249999D01*
G01*
G37*
G36*
G01*
X103770000Y-72532001D02*
X103770000Y-71231999D01*
G75*
G02*
X104019999Y-70982000I249999J0D01*
G01*
X104845001Y-70982000D01*
G75*
G02*
X105095000Y-71231999I0J-249999D01*
G01*
X105095000Y-72532001D01*
G75*
G02*
X104845001Y-72782000I-249999J0D01*
G01*
X104019999Y-72782000D01*
G75*
G02*
X103770000Y-72532001I0J249999D01*
G01*
G37*
G36*
G01*
X100645000Y-72532001D02*
X100645000Y-71231999D01*
G75*
G02*
X100894999Y-70982000I249999J0D01*
G01*
X101720001Y-70982000D01*
G75*
G02*
X101970000Y-71231999I0J-249999D01*
G01*
X101970000Y-72532001D01*
G75*
G02*
X101720001Y-72782000I-249999J0D01*
G01*
X100894999Y-72782000D01*
G75*
G02*
X100645000Y-72532001I0J249999D01*
G01*
G37*
G36*
G01*
X41772000Y-84439999D02*
X41772000Y-85740001D01*
G75*
G02*
X41522001Y-85990000I-249999J0D01*
G01*
X40696999Y-85990000D01*
G75*
G02*
X40447000Y-85740001I0J249999D01*
G01*
X40447000Y-84439999D01*
G75*
G02*
X40696999Y-84190000I249999J0D01*
G01*
X41522001Y-84190000D01*
G75*
G02*
X41772000Y-84439999I0J-249999D01*
G01*
G37*
G36*
G01*
X44897000Y-84439999D02*
X44897000Y-85740001D01*
G75*
G02*
X44647001Y-85990000I-249999J0D01*
G01*
X43821999Y-85990000D01*
G75*
G02*
X43572000Y-85740001I0J249999D01*
G01*
X43572000Y-84439999D01*
G75*
G02*
X43821999Y-84190000I249999J0D01*
G01*
X44647001Y-84190000D01*
G75*
G02*
X44897000Y-84439999I0J-249999D01*
G01*
G37*
G36*
G01*
X41772000Y-88249999D02*
X41772000Y-89550001D01*
G75*
G02*
X41522001Y-89800000I-249999J0D01*
G01*
X40696999Y-89800000D01*
G75*
G02*
X40447000Y-89550001I0J249999D01*
G01*
X40447000Y-88249999D01*
G75*
G02*
X40696999Y-88000000I249999J0D01*
G01*
X41522001Y-88000000D01*
G75*
G02*
X41772000Y-88249999I0J-249999D01*
G01*
G37*
G36*
G01*
X44897000Y-88249999D02*
X44897000Y-89550001D01*
G75*
G02*
X44647001Y-89800000I-249999J0D01*
G01*
X43821999Y-89800000D01*
G75*
G02*
X43572000Y-89550001I0J249999D01*
G01*
X43572000Y-88249999D01*
G75*
G02*
X43821999Y-88000000I249999J0D01*
G01*
X44647001Y-88000000D01*
G75*
G02*
X44897000Y-88249999I0J-249999D01*
G01*
G37*
G36*
G01*
X41772000Y-65389999D02*
X41772000Y-66690001D01*
G75*
G02*
X41522001Y-66940000I-249999J0D01*
G01*
X40696999Y-66940000D01*
G75*
G02*
X40447000Y-66690001I0J249999D01*
G01*
X40447000Y-65389999D01*
G75*
G02*
X40696999Y-65140000I249999J0D01*
G01*
X41522001Y-65140000D01*
G75*
G02*
X41772000Y-65389999I0J-249999D01*
G01*
G37*
G36*
G01*
X44897000Y-65389999D02*
X44897000Y-66690001D01*
G75*
G02*
X44647001Y-66940000I-249999J0D01*
G01*
X43821999Y-66940000D01*
G75*
G02*
X43572000Y-66690001I0J249999D01*
G01*
X43572000Y-65389999D01*
G75*
G02*
X43821999Y-65140000I249999J0D01*
G01*
X44647001Y-65140000D01*
G75*
G02*
X44897000Y-65389999I0J-249999D01*
G01*
G37*
G36*
G01*
X41772000Y-69199999D02*
X41772000Y-70500001D01*
G75*
G02*
X41522001Y-70750000I-249999J0D01*
G01*
X40696999Y-70750000D01*
G75*
G02*
X40447000Y-70500001I0J249999D01*
G01*
X40447000Y-69199999D01*
G75*
G02*
X40696999Y-68950000I249999J0D01*
G01*
X41522001Y-68950000D01*
G75*
G02*
X41772000Y-69199999I0J-249999D01*
G01*
G37*
G36*
G01*
X44897000Y-69199999D02*
X44897000Y-70500001D01*
G75*
G02*
X44647001Y-70750000I-249999J0D01*
G01*
X43821999Y-70750000D01*
G75*
G02*
X43572000Y-70500001I0J249999D01*
G01*
X43572000Y-69199999D01*
G75*
G02*
X43821999Y-68950000I249999J0D01*
G01*
X44647001Y-68950000D01*
G75*
G02*
X44897000Y-69199999I0J-249999D01*
G01*
G37*
D11*
X114808000Y-72644000D03*
D12*
X114808000Y-75184000D03*
D11*
X96012000Y-85852000D03*
X96012000Y-88392000D03*
D12*
X96012000Y-90932000D03*
D11*
X101092000Y-96266000D03*
D12*
X103632000Y-96266000D03*
D13*
X110390000Y-63158000D03*
X110390000Y-61158000D03*
X110390000Y-59158000D03*
D14*
X107140000Y-66158000D03*
X105140000Y-66158000D03*
X103140000Y-66158000D03*
X101140000Y-66158000D03*
D13*
X97890000Y-57158000D03*
X97890000Y-63158000D03*
X97890000Y-61158000D03*
X97890000Y-59158000D03*
D15*
X65405000Y-64770000D03*
D16*
X65405000Y-57150000D03*
D15*
X60960000Y-64770000D03*
D16*
X60960000Y-57150000D03*
D11*
X47244000Y-57150000D03*
X47244000Y-59690000D03*
X47244000Y-62230000D03*
X47244000Y-64770000D03*
X47244000Y-67310000D03*
D12*
X47244000Y-69850000D03*
D11*
X47244000Y-78740000D03*
X47244000Y-81280000D03*
X47244000Y-83820000D03*
X47244000Y-86360000D03*
D12*
X47244000Y-88900000D03*
D15*
X85090000Y-92710000D03*
X69850000Y-92710000D03*
X85090000Y-57150000D03*
X69850000Y-90170000D03*
X85090000Y-59690000D03*
X69850000Y-87630000D03*
X85090000Y-62230000D03*
X69850000Y-85090000D03*
X85090000Y-64770000D03*
X69850000Y-82550000D03*
X85090000Y-67310000D03*
X69850000Y-80010000D03*
X85090000Y-69850000D03*
X69850000Y-77470000D03*
X85090000Y-72390000D03*
X69850000Y-74930000D03*
X85090000Y-74930000D03*
X69850000Y-72390000D03*
X85090000Y-77470000D03*
X69850000Y-69850000D03*
X85090000Y-80010000D03*
X69850000Y-67310000D03*
X85090000Y-82550000D03*
X69850000Y-64770000D03*
X85090000Y-85090000D03*
X69850000Y-62230000D03*
X85090000Y-87630000D03*
X69850000Y-59690000D03*
X85090000Y-90170000D03*
D17*
X69850000Y-57150000D03*
D11*
X101092000Y-91186000D03*
X101092000Y-88646000D03*
D12*
X101092000Y-86106000D03*
D16*
X114776000Y-82296000D03*
D17*
X112776000Y-82296000D03*
M02*
