G04 #@! TF.GenerationSoftware,KiCad,Pcbnew,(5.1.10)-1*
G04 #@! TF.CreationDate,2021-11-19T16:29:16+01:00*
G04 #@! TF.ProjectId,WeatherStation,57656174-6865-4725-9374-6174696f6e2e,rev?*
G04 #@! TF.SameCoordinates,Original*
G04 #@! TF.FileFunction,Legend,Top*
G04 #@! TF.FilePolarity,Positive*
%FSLAX46Y46*%
G04 Gerber Fmt 4.6, Leading zero omitted, Abs format (unit mm)*
G04 Created by KiCad (PCBNEW (5.1.10)-1) date 2021-11-19 16:29:16*
%MOMM*%
%LPD*%
G01*
G04 APERTURE LIST*
%ADD10C,0.120000*%
%ADD11C,0.150000*%
%ADD12C,3.200000*%
%ADD13O,1.700000X1.700000*%
%ADD14R,1.700000X1.700000*%
%ADD15R,2.000000X1.000000*%
%ADD16R,1.000000X2.000000*%
%ADD17O,1.600000X1.600000*%
%ADD18C,1.600000*%
%ADD19R,1.600000X1.600000*%
G04 APERTURE END LIST*
D10*
X48574000Y-55820000D02*
X58144000Y-55820000D01*
X58144000Y-71180000D02*
X58144000Y-55825000D01*
X48574000Y-71180000D02*
X58144000Y-71180000D01*
X48574000Y-77410000D02*
X64794000Y-77410000D01*
X64794000Y-90200000D02*
X64794000Y-77410000D01*
X64794000Y-90230000D02*
X64794000Y-90200000D01*
X48574000Y-90230000D02*
X64794000Y-90230000D01*
X92604000Y-90982748D02*
X92604000Y-92405252D01*
X90784000Y-90982748D02*
X90784000Y-92405252D01*
X89204748Y-61828000D02*
X90627252Y-61828000D01*
X89204748Y-63648000D02*
X90627252Y-63648000D01*
X89048000Y-90982748D02*
X89048000Y-92405252D01*
X87228000Y-90982748D02*
X87228000Y-92405252D01*
X89204748Y-58526000D02*
X90627252Y-58526000D01*
X89204748Y-60346000D02*
X90627252Y-60346000D01*
X102158748Y-75036000D02*
X103581252Y-75036000D01*
X102158748Y-76856000D02*
X103581252Y-76856000D01*
X102158748Y-70972000D02*
X103581252Y-70972000D01*
X102158748Y-72792000D02*
X103581252Y-72792000D01*
X43383252Y-86000000D02*
X41960748Y-86000000D01*
X43383252Y-84180000D02*
X41960748Y-84180000D01*
X43383252Y-89810000D02*
X41960748Y-89810000D01*
X43383252Y-87990000D02*
X41960748Y-87990000D01*
X43383252Y-66950000D02*
X41960748Y-66950000D01*
X43383252Y-65130000D02*
X41960748Y-65130000D01*
X43383252Y-70760000D02*
X41960748Y-70760000D01*
X43383252Y-68940000D02*
X41960748Y-68940000D01*
X116138000Y-76514000D02*
X114808000Y-76514000D01*
X116138000Y-75184000D02*
X116138000Y-76514000D01*
X116138000Y-73914000D02*
X113478000Y-73914000D01*
X113478000Y-73914000D02*
X113478000Y-71314000D01*
X116138000Y-73914000D02*
X116138000Y-71314000D01*
X116138000Y-71314000D02*
X113478000Y-71314000D01*
X97342000Y-92262000D02*
X96012000Y-92262000D01*
X97342000Y-90932000D02*
X97342000Y-92262000D01*
X97342000Y-89662000D02*
X94682000Y-89662000D01*
X94682000Y-89662000D02*
X94682000Y-84522000D01*
X97342000Y-89662000D02*
X97342000Y-84522000D01*
X97342000Y-84522000D02*
X94682000Y-84522000D01*
X104962000Y-94936000D02*
X104962000Y-96266000D01*
X103632000Y-94936000D02*
X104962000Y-94936000D01*
X102362000Y-94936000D02*
X102362000Y-97596000D01*
X102362000Y-97596000D02*
X99762000Y-97596000D01*
X102362000Y-94936000D02*
X99762000Y-94936000D01*
X99762000Y-94936000D02*
X99762000Y-97596000D01*
X104140000Y-66158000D02*
X110390000Y-66158000D01*
X97890000Y-49158000D02*
X97890000Y-66158000D01*
X97890000Y-54658000D02*
X110390000Y-54658000D01*
X97890000Y-66158000D02*
X110390000Y-66158000D01*
X97890000Y-49158000D02*
X110390000Y-49158000D01*
X110390000Y-49158000D02*
X110390000Y-66158000D01*
X66445000Y-57690000D02*
X66775000Y-57690000D01*
X66775000Y-57690000D02*
X66775000Y-64230000D01*
X66775000Y-64230000D02*
X66445000Y-64230000D01*
X64365000Y-57690000D02*
X64035000Y-57690000D01*
X64035000Y-57690000D02*
X64035000Y-64230000D01*
X64035000Y-64230000D02*
X64365000Y-64230000D01*
X62000000Y-57690000D02*
X62330000Y-57690000D01*
X62330000Y-57690000D02*
X62330000Y-64230000D01*
X62330000Y-64230000D02*
X62000000Y-64230000D01*
X59920000Y-57690000D02*
X59590000Y-57690000D01*
X59590000Y-57690000D02*
X59590000Y-64230000D01*
X59590000Y-64230000D02*
X59920000Y-64230000D01*
X48574000Y-71180000D02*
X47244000Y-71180000D01*
X48574000Y-69850000D02*
X48574000Y-71180000D01*
X48574000Y-68580000D02*
X45914000Y-68580000D01*
X45914000Y-68580000D02*
X45914000Y-55820000D01*
X48574000Y-68580000D02*
X48574000Y-55820000D01*
X48574000Y-55820000D02*
X45914000Y-55820000D01*
X48574000Y-90230000D02*
X47244000Y-90230000D01*
X48574000Y-88900000D02*
X48574000Y-90230000D01*
X48574000Y-87630000D02*
X45914000Y-87630000D01*
X45914000Y-87630000D02*
X45914000Y-77410000D01*
X48574000Y-87630000D02*
X48574000Y-77410000D01*
X48574000Y-77410000D02*
X45914000Y-77410000D01*
X86490000Y-53210000D02*
X68450000Y-53210000D01*
X86490000Y-96650000D02*
X86490000Y-53210000D01*
X68450000Y-96650000D02*
X86490000Y-96650000D01*
X71120000Y-93980000D02*
X68450000Y-93980000D01*
X71120000Y-58420000D02*
X71120000Y-93980000D01*
X71120000Y-58420000D02*
X68450000Y-58420000D01*
X83820000Y-93980000D02*
X86490000Y-93980000D01*
X83820000Y-55880000D02*
X83820000Y-93980000D01*
X83820000Y-55880000D02*
X86490000Y-55880000D01*
X68450000Y-53210000D02*
X68450000Y-55880000D01*
X68450000Y-58420000D02*
X68450000Y-96650000D01*
X71120000Y-55880000D02*
X68450000Y-55880000D01*
X71120000Y-58420000D02*
X71120000Y-55880000D01*
X99762000Y-84776000D02*
X101092000Y-84776000D01*
X99762000Y-86106000D02*
X99762000Y-84776000D01*
X99762000Y-87376000D02*
X102422000Y-87376000D01*
X102422000Y-87376000D02*
X102422000Y-92516000D01*
X99762000Y-87376000D02*
X99762000Y-92516000D01*
X99762000Y-92516000D02*
X102422000Y-92516000D01*
X111221225Y-80571000D02*
X111221225Y-81071000D01*
X110971225Y-80821000D02*
X111471225Y-80821000D01*
X116377000Y-82012000D02*
X116377000Y-82580000D01*
X116337000Y-81778000D02*
X116337000Y-82814000D01*
X116297000Y-81619000D02*
X116297000Y-82973000D01*
X116257000Y-81491000D02*
X116257000Y-83101000D01*
X116217000Y-81381000D02*
X116217000Y-83211000D01*
X116177000Y-81285000D02*
X116177000Y-83307000D01*
X116137000Y-81198000D02*
X116137000Y-83394000D01*
X116097000Y-81118000D02*
X116097000Y-83474000D01*
X116057000Y-81045000D02*
X116057000Y-83547000D01*
X116017000Y-80977000D02*
X116017000Y-83615000D01*
X115977000Y-80913000D02*
X115977000Y-83679000D01*
X115937000Y-80853000D02*
X115937000Y-83739000D01*
X115897000Y-80796000D02*
X115897000Y-83796000D01*
X115857000Y-80742000D02*
X115857000Y-83850000D01*
X115817000Y-80691000D02*
X115817000Y-83901000D01*
X115777000Y-83336000D02*
X115777000Y-83949000D01*
X115777000Y-80643000D02*
X115777000Y-81256000D01*
X115737000Y-83336000D02*
X115737000Y-83995000D01*
X115737000Y-80597000D02*
X115737000Y-81256000D01*
X115697000Y-83336000D02*
X115697000Y-84039000D01*
X115697000Y-80553000D02*
X115697000Y-81256000D01*
X115657000Y-83336000D02*
X115657000Y-84081000D01*
X115657000Y-80511000D02*
X115657000Y-81256000D01*
X115617000Y-83336000D02*
X115617000Y-84122000D01*
X115617000Y-80470000D02*
X115617000Y-81256000D01*
X115577000Y-83336000D02*
X115577000Y-84160000D01*
X115577000Y-80432000D02*
X115577000Y-81256000D01*
X115537000Y-83336000D02*
X115537000Y-84197000D01*
X115537000Y-80395000D02*
X115537000Y-81256000D01*
X115497000Y-83336000D02*
X115497000Y-84233000D01*
X115497000Y-80359000D02*
X115497000Y-81256000D01*
X115457000Y-83336000D02*
X115457000Y-84267000D01*
X115457000Y-80325000D02*
X115457000Y-81256000D01*
X115417000Y-83336000D02*
X115417000Y-84300000D01*
X115417000Y-80292000D02*
X115417000Y-81256000D01*
X115377000Y-83336000D02*
X115377000Y-84331000D01*
X115377000Y-80261000D02*
X115377000Y-81256000D01*
X115337000Y-83336000D02*
X115337000Y-84361000D01*
X115337000Y-80231000D02*
X115337000Y-81256000D01*
X115297000Y-83336000D02*
X115297000Y-84391000D01*
X115297000Y-80201000D02*
X115297000Y-81256000D01*
X115257000Y-83336000D02*
X115257000Y-84418000D01*
X115257000Y-80174000D02*
X115257000Y-81256000D01*
X115217000Y-83336000D02*
X115217000Y-84445000D01*
X115217000Y-80147000D02*
X115217000Y-81256000D01*
X115177000Y-83336000D02*
X115177000Y-84471000D01*
X115177000Y-80121000D02*
X115177000Y-81256000D01*
X115137000Y-83336000D02*
X115137000Y-84496000D01*
X115137000Y-80096000D02*
X115137000Y-81256000D01*
X115097000Y-83336000D02*
X115097000Y-84520000D01*
X115097000Y-80072000D02*
X115097000Y-81256000D01*
X115057000Y-83336000D02*
X115057000Y-84543000D01*
X115057000Y-80049000D02*
X115057000Y-81256000D01*
X115017000Y-83336000D02*
X115017000Y-84564000D01*
X115017000Y-80028000D02*
X115017000Y-81256000D01*
X114977000Y-83336000D02*
X114977000Y-84586000D01*
X114977000Y-80006000D02*
X114977000Y-81256000D01*
X114937000Y-83336000D02*
X114937000Y-84606000D01*
X114937000Y-79986000D02*
X114937000Y-81256000D01*
X114897000Y-83336000D02*
X114897000Y-84625000D01*
X114897000Y-79967000D02*
X114897000Y-81256000D01*
X114857000Y-83336000D02*
X114857000Y-84644000D01*
X114857000Y-79948000D02*
X114857000Y-81256000D01*
X114817000Y-83336000D02*
X114817000Y-84661000D01*
X114817000Y-79931000D02*
X114817000Y-81256000D01*
X114777000Y-83336000D02*
X114777000Y-84678000D01*
X114777000Y-79914000D02*
X114777000Y-81256000D01*
X114737000Y-83336000D02*
X114737000Y-84694000D01*
X114737000Y-79898000D02*
X114737000Y-81256000D01*
X114697000Y-83336000D02*
X114697000Y-84710000D01*
X114697000Y-79882000D02*
X114697000Y-81256000D01*
X114657000Y-83336000D02*
X114657000Y-84724000D01*
X114657000Y-79868000D02*
X114657000Y-81256000D01*
X114617000Y-83336000D02*
X114617000Y-84738000D01*
X114617000Y-79854000D02*
X114617000Y-81256000D01*
X114577000Y-83336000D02*
X114577000Y-84751000D01*
X114577000Y-79841000D02*
X114577000Y-81256000D01*
X114537000Y-83336000D02*
X114537000Y-84764000D01*
X114537000Y-79828000D02*
X114537000Y-81256000D01*
X114497000Y-83336000D02*
X114497000Y-84776000D01*
X114497000Y-79816000D02*
X114497000Y-81256000D01*
X114456000Y-83336000D02*
X114456000Y-84787000D01*
X114456000Y-79805000D02*
X114456000Y-81256000D01*
X114416000Y-83336000D02*
X114416000Y-84797000D01*
X114416000Y-79795000D02*
X114416000Y-81256000D01*
X114376000Y-83336000D02*
X114376000Y-84807000D01*
X114376000Y-79785000D02*
X114376000Y-81256000D01*
X114336000Y-83336000D02*
X114336000Y-84816000D01*
X114336000Y-79776000D02*
X114336000Y-81256000D01*
X114296000Y-83336000D02*
X114296000Y-84824000D01*
X114296000Y-79768000D02*
X114296000Y-81256000D01*
X114256000Y-83336000D02*
X114256000Y-84832000D01*
X114256000Y-79760000D02*
X114256000Y-81256000D01*
X114216000Y-83336000D02*
X114216000Y-84839000D01*
X114216000Y-79753000D02*
X114216000Y-81256000D01*
X114176000Y-83336000D02*
X114176000Y-84846000D01*
X114176000Y-79746000D02*
X114176000Y-81256000D01*
X114136000Y-83336000D02*
X114136000Y-84852000D01*
X114136000Y-79740000D02*
X114136000Y-81256000D01*
X114096000Y-83336000D02*
X114096000Y-84857000D01*
X114096000Y-79735000D02*
X114096000Y-81256000D01*
X114056000Y-83336000D02*
X114056000Y-84861000D01*
X114056000Y-79731000D02*
X114056000Y-81256000D01*
X114016000Y-83336000D02*
X114016000Y-84865000D01*
X114016000Y-79727000D02*
X114016000Y-81256000D01*
X113976000Y-83336000D02*
X113976000Y-84869000D01*
X113976000Y-79723000D02*
X113976000Y-81256000D01*
X113936000Y-83336000D02*
X113936000Y-84872000D01*
X113936000Y-79720000D02*
X113936000Y-81256000D01*
X113896000Y-83336000D02*
X113896000Y-84874000D01*
X113896000Y-79718000D02*
X113896000Y-81256000D01*
X113856000Y-83336000D02*
X113856000Y-84875000D01*
X113856000Y-79717000D02*
X113856000Y-81256000D01*
X113816000Y-79716000D02*
X113816000Y-81256000D01*
X113816000Y-83336000D02*
X113816000Y-84876000D01*
X113776000Y-79716000D02*
X113776000Y-81256000D01*
X113776000Y-83336000D02*
X113776000Y-84876000D01*
X116396000Y-82296000D02*
G75*
G03*
X116396000Y-82296000I-2620000J0D01*
G01*
D11*
X93901142Y-92336857D02*
X93948761Y-92384476D01*
X93996380Y-92527333D01*
X93996380Y-92622571D01*
X93948761Y-92765428D01*
X93853523Y-92860666D01*
X93758285Y-92908285D01*
X93567809Y-92955904D01*
X93424952Y-92955904D01*
X93234476Y-92908285D01*
X93139238Y-92860666D01*
X93044000Y-92765428D01*
X92996380Y-92622571D01*
X92996380Y-92527333D01*
X93044000Y-92384476D01*
X93091619Y-92336857D01*
X93996380Y-91384476D02*
X93996380Y-91955904D01*
X93996380Y-91670190D02*
X92996380Y-91670190D01*
X93139238Y-91765428D01*
X93234476Y-91860666D01*
X93282095Y-91955904D01*
X93996380Y-90432095D02*
X93996380Y-91003523D01*
X93996380Y-90717809D02*
X92996380Y-90717809D01*
X93139238Y-90813047D01*
X93234476Y-90908285D01*
X93282095Y-91003523D01*
X89749333Y-61245142D02*
X89701714Y-61292761D01*
X89558857Y-61340380D01*
X89463619Y-61340380D01*
X89320761Y-61292761D01*
X89225523Y-61197523D01*
X89177904Y-61102285D01*
X89130285Y-60911809D01*
X89130285Y-60768952D01*
X89177904Y-60578476D01*
X89225523Y-60483238D01*
X89320761Y-60388000D01*
X89463619Y-60340380D01*
X89558857Y-60340380D01*
X89701714Y-60388000D01*
X89749333Y-60435619D01*
X90225523Y-61340380D02*
X90416000Y-61340380D01*
X90511238Y-61292761D01*
X90558857Y-61245142D01*
X90654095Y-61102285D01*
X90701714Y-60911809D01*
X90701714Y-60530857D01*
X90654095Y-60435619D01*
X90606476Y-60388000D01*
X90511238Y-60340380D01*
X90320761Y-60340380D01*
X90225523Y-60388000D01*
X90177904Y-60435619D01*
X90130285Y-60530857D01*
X90130285Y-60768952D01*
X90177904Y-60864190D01*
X90225523Y-60911809D01*
X90320761Y-60959428D01*
X90511238Y-60959428D01*
X90606476Y-60911809D01*
X90654095Y-60864190D01*
X90701714Y-60768952D01*
X90345142Y-92336857D02*
X90392761Y-92384476D01*
X90440380Y-92527333D01*
X90440380Y-92622571D01*
X90392761Y-92765428D01*
X90297523Y-92860666D01*
X90202285Y-92908285D01*
X90011809Y-92955904D01*
X89868952Y-92955904D01*
X89678476Y-92908285D01*
X89583238Y-92860666D01*
X89488000Y-92765428D01*
X89440380Y-92622571D01*
X89440380Y-92527333D01*
X89488000Y-92384476D01*
X89535619Y-92336857D01*
X90440380Y-91384476D02*
X90440380Y-91955904D01*
X90440380Y-91670190D02*
X89440380Y-91670190D01*
X89583238Y-91765428D01*
X89678476Y-91860666D01*
X89726095Y-91955904D01*
X89440380Y-90765428D02*
X89440380Y-90670190D01*
X89488000Y-90574952D01*
X89535619Y-90527333D01*
X89630857Y-90479714D01*
X89821333Y-90432095D01*
X90059428Y-90432095D01*
X90249904Y-90479714D01*
X90345142Y-90527333D01*
X90392761Y-90574952D01*
X90440380Y-90670190D01*
X90440380Y-90765428D01*
X90392761Y-90860666D01*
X90345142Y-90908285D01*
X90249904Y-90955904D01*
X90059428Y-91003523D01*
X89821333Y-91003523D01*
X89630857Y-90955904D01*
X89535619Y-90908285D01*
X89488000Y-90860666D01*
X89440380Y-90765428D01*
X89749333Y-57943142D02*
X89701714Y-57990761D01*
X89558857Y-58038380D01*
X89463619Y-58038380D01*
X89320761Y-57990761D01*
X89225523Y-57895523D01*
X89177904Y-57800285D01*
X89130285Y-57609809D01*
X89130285Y-57466952D01*
X89177904Y-57276476D01*
X89225523Y-57181238D01*
X89320761Y-57086000D01*
X89463619Y-57038380D01*
X89558857Y-57038380D01*
X89701714Y-57086000D01*
X89749333Y-57133619D01*
X90320761Y-57466952D02*
X90225523Y-57419333D01*
X90177904Y-57371714D01*
X90130285Y-57276476D01*
X90130285Y-57228857D01*
X90177904Y-57133619D01*
X90225523Y-57086000D01*
X90320761Y-57038380D01*
X90511238Y-57038380D01*
X90606476Y-57086000D01*
X90654095Y-57133619D01*
X90701714Y-57228857D01*
X90701714Y-57276476D01*
X90654095Y-57371714D01*
X90606476Y-57419333D01*
X90511238Y-57466952D01*
X90320761Y-57466952D01*
X90225523Y-57514571D01*
X90177904Y-57562190D01*
X90130285Y-57657428D01*
X90130285Y-57847904D01*
X90177904Y-57943142D01*
X90225523Y-57990761D01*
X90320761Y-58038380D01*
X90511238Y-58038380D01*
X90606476Y-57990761D01*
X90654095Y-57943142D01*
X90701714Y-57847904D01*
X90701714Y-57657428D01*
X90654095Y-57562190D01*
X90606476Y-57514571D01*
X90511238Y-57466952D01*
X102703333Y-74453142D02*
X102655714Y-74500761D01*
X102512857Y-74548380D01*
X102417619Y-74548380D01*
X102274761Y-74500761D01*
X102179523Y-74405523D01*
X102131904Y-74310285D01*
X102084285Y-74119809D01*
X102084285Y-73976952D01*
X102131904Y-73786476D01*
X102179523Y-73691238D01*
X102274761Y-73596000D01*
X102417619Y-73548380D01*
X102512857Y-73548380D01*
X102655714Y-73596000D01*
X102703333Y-73643619D01*
X103036666Y-73548380D02*
X103703333Y-73548380D01*
X103274761Y-74548380D01*
X102703333Y-70389142D02*
X102655714Y-70436761D01*
X102512857Y-70484380D01*
X102417619Y-70484380D01*
X102274761Y-70436761D01*
X102179523Y-70341523D01*
X102131904Y-70246285D01*
X102084285Y-70055809D01*
X102084285Y-69912952D01*
X102131904Y-69722476D01*
X102179523Y-69627238D01*
X102274761Y-69532000D01*
X102417619Y-69484380D01*
X102512857Y-69484380D01*
X102655714Y-69532000D01*
X102703333Y-69579619D01*
X103560476Y-69484380D02*
X103370000Y-69484380D01*
X103274761Y-69532000D01*
X103227142Y-69579619D01*
X103131904Y-69722476D01*
X103084285Y-69912952D01*
X103084285Y-70293904D01*
X103131904Y-70389142D01*
X103179523Y-70436761D01*
X103274761Y-70484380D01*
X103465238Y-70484380D01*
X103560476Y-70436761D01*
X103608095Y-70389142D01*
X103655714Y-70293904D01*
X103655714Y-70055809D01*
X103608095Y-69960571D01*
X103560476Y-69912952D01*
X103465238Y-69865333D01*
X103274761Y-69865333D01*
X103179523Y-69912952D01*
X103131904Y-69960571D01*
X103084285Y-70055809D01*
X42505333Y-87297142D02*
X42457714Y-87344761D01*
X42314857Y-87392380D01*
X42219619Y-87392380D01*
X42076761Y-87344761D01*
X41981523Y-87249523D01*
X41933904Y-87154285D01*
X41886285Y-86963809D01*
X41886285Y-86820952D01*
X41933904Y-86630476D01*
X41981523Y-86535238D01*
X42076761Y-86440000D01*
X42219619Y-86392380D01*
X42314857Y-86392380D01*
X42457714Y-86440000D01*
X42505333Y-86487619D01*
X43410095Y-86392380D02*
X42933904Y-86392380D01*
X42886285Y-86868571D01*
X42933904Y-86820952D01*
X43029142Y-86773333D01*
X43267238Y-86773333D01*
X43362476Y-86820952D01*
X43410095Y-86868571D01*
X43457714Y-86963809D01*
X43457714Y-87201904D01*
X43410095Y-87297142D01*
X43362476Y-87344761D01*
X43267238Y-87392380D01*
X43029142Y-87392380D01*
X42933904Y-87344761D01*
X42886285Y-87297142D01*
X42505333Y-91107142D02*
X42457714Y-91154761D01*
X42314857Y-91202380D01*
X42219619Y-91202380D01*
X42076761Y-91154761D01*
X41981523Y-91059523D01*
X41933904Y-90964285D01*
X41886285Y-90773809D01*
X41886285Y-90630952D01*
X41933904Y-90440476D01*
X41981523Y-90345238D01*
X42076761Y-90250000D01*
X42219619Y-90202380D01*
X42314857Y-90202380D01*
X42457714Y-90250000D01*
X42505333Y-90297619D01*
X43362476Y-90535714D02*
X43362476Y-91202380D01*
X43124380Y-90154761D02*
X42886285Y-90869047D01*
X43505333Y-90869047D01*
X42505333Y-68247142D02*
X42457714Y-68294761D01*
X42314857Y-68342380D01*
X42219619Y-68342380D01*
X42076761Y-68294761D01*
X41981523Y-68199523D01*
X41933904Y-68104285D01*
X41886285Y-67913809D01*
X41886285Y-67770952D01*
X41933904Y-67580476D01*
X41981523Y-67485238D01*
X42076761Y-67390000D01*
X42219619Y-67342380D01*
X42314857Y-67342380D01*
X42457714Y-67390000D01*
X42505333Y-67437619D01*
X42838666Y-67342380D02*
X43457714Y-67342380D01*
X43124380Y-67723333D01*
X43267238Y-67723333D01*
X43362476Y-67770952D01*
X43410095Y-67818571D01*
X43457714Y-67913809D01*
X43457714Y-68151904D01*
X43410095Y-68247142D01*
X43362476Y-68294761D01*
X43267238Y-68342380D01*
X42981523Y-68342380D01*
X42886285Y-68294761D01*
X42838666Y-68247142D01*
X42505333Y-72057142D02*
X42457714Y-72104761D01*
X42314857Y-72152380D01*
X42219619Y-72152380D01*
X42076761Y-72104761D01*
X41981523Y-72009523D01*
X41933904Y-71914285D01*
X41886285Y-71723809D01*
X41886285Y-71580952D01*
X41933904Y-71390476D01*
X41981523Y-71295238D01*
X42076761Y-71200000D01*
X42219619Y-71152380D01*
X42314857Y-71152380D01*
X42457714Y-71200000D01*
X42505333Y-71247619D01*
X42886285Y-71247619D02*
X42933904Y-71200000D01*
X43029142Y-71152380D01*
X43267238Y-71152380D01*
X43362476Y-71200000D01*
X43410095Y-71247619D01*
X43457714Y-71342857D01*
X43457714Y-71438095D01*
X43410095Y-71580952D01*
X42838666Y-72152380D01*
X43457714Y-72152380D01*
X114474666Y-76966380D02*
X114474666Y-77680666D01*
X114427047Y-77823523D01*
X114331809Y-77918761D01*
X114188952Y-77966380D01*
X114093714Y-77966380D01*
X115379428Y-77299714D02*
X115379428Y-77966380D01*
X115141333Y-76918761D02*
X114903238Y-77633047D01*
X115522285Y-77633047D01*
X95678666Y-92714380D02*
X95678666Y-93428666D01*
X95631047Y-93571523D01*
X95535809Y-93666761D01*
X95392952Y-93714380D01*
X95297714Y-93714380D01*
X96107238Y-92809619D02*
X96154857Y-92762000D01*
X96250095Y-92714380D01*
X96488190Y-92714380D01*
X96583428Y-92762000D01*
X96631047Y-92809619D01*
X96678666Y-92904857D01*
X96678666Y-93000095D01*
X96631047Y-93142952D01*
X96059619Y-93714380D01*
X96678666Y-93714380D01*
X105414380Y-96599333D02*
X106128666Y-96599333D01*
X106271523Y-96646952D01*
X106366761Y-96742190D01*
X106414380Y-96885047D01*
X106414380Y-96980285D01*
X106414380Y-95599333D02*
X106414380Y-96170761D01*
X106414380Y-95885047D02*
X105414380Y-95885047D01*
X105557238Y-95980285D01*
X105652476Y-96075523D01*
X105700095Y-96170761D01*
X100116190Y-58110380D02*
X100116190Y-57110380D01*
X100116190Y-57586571D02*
X100687619Y-57586571D01*
X100687619Y-58110380D02*
X100687619Y-57110380D01*
X101163809Y-58110380D02*
X101163809Y-57110380D01*
X101497142Y-57824666D01*
X101830476Y-57110380D01*
X101830476Y-58110380D01*
X102068571Y-58205619D02*
X102830476Y-58205619D01*
X103401904Y-57586571D02*
X103544761Y-57634190D01*
X103592380Y-57681809D01*
X103640000Y-57777047D01*
X103640000Y-57919904D01*
X103592380Y-58015142D01*
X103544761Y-58062761D01*
X103449523Y-58110380D01*
X103068571Y-58110380D01*
X103068571Y-57110380D01*
X103401904Y-57110380D01*
X103497142Y-57158000D01*
X103544761Y-57205619D01*
X103592380Y-57300857D01*
X103592380Y-57396095D01*
X103544761Y-57491333D01*
X103497142Y-57538952D01*
X103401904Y-57586571D01*
X103068571Y-57586571D01*
X103925714Y-57110380D02*
X104497142Y-57110380D01*
X104211428Y-58110380D02*
X104211428Y-57110380D01*
X105259047Y-57443714D02*
X105259047Y-58110380D01*
X105020952Y-57062761D02*
X104782857Y-57777047D01*
X105401904Y-57777047D01*
X106259047Y-57110380D02*
X105782857Y-57110380D01*
X105735238Y-57586571D01*
X105782857Y-57538952D01*
X105878095Y-57491333D01*
X106116190Y-57491333D01*
X106211428Y-57538952D01*
X106259047Y-57586571D01*
X106306666Y-57681809D01*
X106306666Y-57919904D01*
X106259047Y-58015142D01*
X106211428Y-58062761D01*
X106116190Y-58110380D01*
X105878095Y-58110380D01*
X105782857Y-58062761D01*
X105735238Y-58015142D01*
X106925714Y-57110380D02*
X107020952Y-57110380D01*
X107116190Y-57158000D01*
X107163809Y-57205619D01*
X107211428Y-57300857D01*
X107259047Y-57491333D01*
X107259047Y-57729428D01*
X107211428Y-57919904D01*
X107163809Y-58015142D01*
X107116190Y-58062761D01*
X107020952Y-58110380D01*
X106925714Y-58110380D01*
X106830476Y-58062761D01*
X106782857Y-58015142D01*
X106735238Y-57919904D01*
X106687619Y-57729428D01*
X106687619Y-57491333D01*
X106735238Y-57300857D01*
X106782857Y-57205619D01*
X106830476Y-57158000D01*
X106925714Y-57110380D01*
X107640000Y-57205619D02*
X107687619Y-57158000D01*
X107782857Y-57110380D01*
X108020952Y-57110380D01*
X108116190Y-57158000D01*
X108163809Y-57205619D01*
X108211428Y-57300857D01*
X108211428Y-57396095D01*
X108163809Y-57538952D01*
X107592380Y-58110380D01*
X108211428Y-58110380D01*
X65857380Y-61126666D02*
X65381190Y-61460000D01*
X65857380Y-61698095D02*
X64857380Y-61698095D01*
X64857380Y-61317142D01*
X64905000Y-61221904D01*
X64952619Y-61174285D01*
X65047857Y-61126666D01*
X65190714Y-61126666D01*
X65285952Y-61174285D01*
X65333571Y-61221904D01*
X65381190Y-61317142D01*
X65381190Y-61698095D01*
X64952619Y-60745714D02*
X64905000Y-60698095D01*
X64857380Y-60602857D01*
X64857380Y-60364761D01*
X64905000Y-60269523D01*
X64952619Y-60221904D01*
X65047857Y-60174285D01*
X65143095Y-60174285D01*
X65285952Y-60221904D01*
X65857380Y-60793333D01*
X65857380Y-60174285D01*
X61412380Y-61126666D02*
X60936190Y-61460000D01*
X61412380Y-61698095D02*
X60412380Y-61698095D01*
X60412380Y-61317142D01*
X60460000Y-61221904D01*
X60507619Y-61174285D01*
X60602857Y-61126666D01*
X60745714Y-61126666D01*
X60840952Y-61174285D01*
X60888571Y-61221904D01*
X60936190Y-61317142D01*
X60936190Y-61698095D01*
X61412380Y-60174285D02*
X61412380Y-60745714D01*
X61412380Y-60460000D02*
X60412380Y-60460000D01*
X60555238Y-60555238D01*
X60650476Y-60650476D01*
X60698095Y-60745714D01*
X52737047Y-70286571D02*
X52879904Y-70334190D01*
X52927523Y-70381809D01*
X52975142Y-70477047D01*
X52975142Y-70619904D01*
X52927523Y-70715142D01*
X52879904Y-70762761D01*
X52784666Y-70810380D01*
X52403714Y-70810380D01*
X52403714Y-69810380D01*
X52737047Y-69810380D01*
X52832285Y-69858000D01*
X52879904Y-69905619D01*
X52927523Y-70000857D01*
X52927523Y-70096095D01*
X52879904Y-70191333D01*
X52832285Y-70238952D01*
X52737047Y-70286571D01*
X52403714Y-70286571D01*
X53403714Y-70810380D02*
X53403714Y-69810380D01*
X53737047Y-70524666D01*
X54070380Y-69810380D01*
X54070380Y-70810380D01*
X54546571Y-70286571D02*
X54879904Y-70286571D01*
X55022761Y-70810380D02*
X54546571Y-70810380D01*
X54546571Y-69810380D01*
X55022761Y-69810380D01*
X55403714Y-69905619D02*
X55451333Y-69858000D01*
X55546571Y-69810380D01*
X55784666Y-69810380D01*
X55879904Y-69858000D01*
X55927523Y-69905619D01*
X55975142Y-70000857D01*
X55975142Y-70096095D01*
X55927523Y-70238952D01*
X55356095Y-70810380D01*
X55975142Y-70810380D01*
X56546571Y-70238952D02*
X56451333Y-70191333D01*
X56403714Y-70143714D01*
X56356095Y-70048476D01*
X56356095Y-70000857D01*
X56403714Y-69905619D01*
X56451333Y-69858000D01*
X56546571Y-69810380D01*
X56737047Y-69810380D01*
X56832285Y-69858000D01*
X56879904Y-69905619D01*
X56927523Y-70000857D01*
X56927523Y-70048476D01*
X56879904Y-70143714D01*
X56832285Y-70191333D01*
X56737047Y-70238952D01*
X56546571Y-70238952D01*
X56451333Y-70286571D01*
X56403714Y-70334190D01*
X56356095Y-70429428D01*
X56356095Y-70619904D01*
X56403714Y-70715142D01*
X56451333Y-70762761D01*
X56546571Y-70810380D01*
X56737047Y-70810380D01*
X56832285Y-70762761D01*
X56879904Y-70715142D01*
X56927523Y-70619904D01*
X56927523Y-70429428D01*
X56879904Y-70334190D01*
X56832285Y-70286571D01*
X56737047Y-70238952D01*
X57546571Y-69810380D02*
X57641809Y-69810380D01*
X57737047Y-69858000D01*
X57784666Y-69905619D01*
X57832285Y-70000857D01*
X57879904Y-70191333D01*
X57879904Y-70429428D01*
X57832285Y-70619904D01*
X57784666Y-70715142D01*
X57737047Y-70762761D01*
X57641809Y-70810380D01*
X57546571Y-70810380D01*
X57451333Y-70762761D01*
X57403714Y-70715142D01*
X57356095Y-70619904D01*
X57308476Y-70429428D01*
X57308476Y-70191333D01*
X57356095Y-70000857D01*
X57403714Y-69905619D01*
X57451333Y-69858000D01*
X57546571Y-69810380D01*
X59364857Y-89336571D02*
X59507714Y-89384190D01*
X59555333Y-89431809D01*
X59602952Y-89527047D01*
X59602952Y-89669904D01*
X59555333Y-89765142D01*
X59507714Y-89812761D01*
X59412476Y-89860380D01*
X59031523Y-89860380D01*
X59031523Y-88860380D01*
X59364857Y-88860380D01*
X59460095Y-88908000D01*
X59507714Y-88955619D01*
X59555333Y-89050857D01*
X59555333Y-89146095D01*
X59507714Y-89241333D01*
X59460095Y-89288952D01*
X59364857Y-89336571D01*
X59031523Y-89336571D01*
X60031523Y-89860380D02*
X60031523Y-88860380D01*
X60031523Y-89336571D02*
X60602952Y-89336571D01*
X60602952Y-89860380D02*
X60602952Y-88860380D01*
X61602952Y-89860380D02*
X61031523Y-89860380D01*
X61317238Y-89860380D02*
X61317238Y-88860380D01*
X61222000Y-89003238D01*
X61126761Y-89098476D01*
X61031523Y-89146095D01*
X61936285Y-88860380D02*
X62602952Y-88860380D01*
X62174380Y-89860380D01*
X63460095Y-88860380D02*
X62983904Y-88860380D01*
X62936285Y-89336571D01*
X62983904Y-89288952D01*
X63079142Y-89241333D01*
X63317238Y-89241333D01*
X63412476Y-89288952D01*
X63460095Y-89336571D01*
X63507714Y-89431809D01*
X63507714Y-89669904D01*
X63460095Y-89765142D01*
X63412476Y-89812761D01*
X63317238Y-89860380D01*
X63079142Y-89860380D01*
X62983904Y-89812761D01*
X62936285Y-89765142D01*
X64126761Y-88860380D02*
X64222000Y-88860380D01*
X64317238Y-88908000D01*
X64364857Y-88955619D01*
X64412476Y-89050857D01*
X64460095Y-89241333D01*
X64460095Y-89479428D01*
X64412476Y-89669904D01*
X64364857Y-89765142D01*
X64317238Y-89812761D01*
X64222000Y-89860380D01*
X64126761Y-89860380D01*
X64031523Y-89812761D01*
X63983904Y-89765142D01*
X63936285Y-89669904D01*
X63888666Y-89479428D01*
X63888666Y-89241333D01*
X63936285Y-89050857D01*
X63983904Y-88955619D01*
X64031523Y-88908000D01*
X64126761Y-88860380D01*
X76755714Y-52236666D02*
X77231904Y-52236666D01*
X76660476Y-52522380D02*
X76993809Y-51522380D01*
X77327142Y-52522380D01*
X78184285Y-52522380D02*
X77612857Y-52522380D01*
X77898571Y-52522380D02*
X77898571Y-51522380D01*
X77803333Y-51665238D01*
X77708095Y-51760476D01*
X77612857Y-51808095D01*
X100758666Y-83228380D02*
X100758666Y-83942666D01*
X100711047Y-84085523D01*
X100615809Y-84180761D01*
X100472952Y-84228380D01*
X100377714Y-84228380D01*
X101139619Y-83228380D02*
X101758666Y-83228380D01*
X101425333Y-83609333D01*
X101568190Y-83609333D01*
X101663428Y-83656952D01*
X101711047Y-83704571D01*
X101758666Y-83799809D01*
X101758666Y-84037904D01*
X101711047Y-84133142D01*
X101663428Y-84180761D01*
X101568190Y-84228380D01*
X101282476Y-84228380D01*
X101187238Y-84180761D01*
X101139619Y-84133142D01*
X110577333Y-79605142D02*
X110529714Y-79652761D01*
X110386857Y-79700380D01*
X110291619Y-79700380D01*
X110148761Y-79652761D01*
X110053523Y-79557523D01*
X110005904Y-79462285D01*
X109958285Y-79271809D01*
X109958285Y-79128952D01*
X110005904Y-78938476D01*
X110053523Y-78843238D01*
X110148761Y-78748000D01*
X110291619Y-78700380D01*
X110386857Y-78700380D01*
X110529714Y-78748000D01*
X110577333Y-78795619D01*
X111529714Y-79700380D02*
X110958285Y-79700380D01*
X111244000Y-79700380D02*
X111244000Y-78700380D01*
X111148761Y-78843238D01*
X111053523Y-78938476D01*
X110958285Y-78986095D01*
%LPC*%
D12*
X114808000Y-98298000D03*
X42418000Y-51816000D03*
X115062000Y-51816000D03*
X42418000Y-98298000D03*
G36*
G01*
X91043999Y-92594000D02*
X92344001Y-92594000D01*
G75*
G02*
X92594000Y-92843999I0J-249999D01*
G01*
X92594000Y-93669001D01*
G75*
G02*
X92344001Y-93919000I-249999J0D01*
G01*
X91043999Y-93919000D01*
G75*
G02*
X90794000Y-93669001I0J249999D01*
G01*
X90794000Y-92843999D01*
G75*
G02*
X91043999Y-92594000I249999J0D01*
G01*
G37*
G36*
G01*
X91043999Y-89469000D02*
X92344001Y-89469000D01*
G75*
G02*
X92594000Y-89718999I0J-249999D01*
G01*
X92594000Y-90544001D01*
G75*
G02*
X92344001Y-90794000I-249999J0D01*
G01*
X91043999Y-90794000D01*
G75*
G02*
X90794000Y-90544001I0J249999D01*
G01*
X90794000Y-89718999D01*
G75*
G02*
X91043999Y-89469000I249999J0D01*
G01*
G37*
G36*
G01*
X90816000Y-63388001D02*
X90816000Y-62087999D01*
G75*
G02*
X91065999Y-61838000I249999J0D01*
G01*
X91891001Y-61838000D01*
G75*
G02*
X92141000Y-62087999I0J-249999D01*
G01*
X92141000Y-63388001D01*
G75*
G02*
X91891001Y-63638000I-249999J0D01*
G01*
X91065999Y-63638000D01*
G75*
G02*
X90816000Y-63388001I0J249999D01*
G01*
G37*
G36*
G01*
X87691000Y-63388001D02*
X87691000Y-62087999D01*
G75*
G02*
X87940999Y-61838000I249999J0D01*
G01*
X88766001Y-61838000D01*
G75*
G02*
X89016000Y-62087999I0J-249999D01*
G01*
X89016000Y-63388001D01*
G75*
G02*
X88766001Y-63638000I-249999J0D01*
G01*
X87940999Y-63638000D01*
G75*
G02*
X87691000Y-63388001I0J249999D01*
G01*
G37*
G36*
G01*
X87487999Y-92594000D02*
X88788001Y-92594000D01*
G75*
G02*
X89038000Y-92843999I0J-249999D01*
G01*
X89038000Y-93669001D01*
G75*
G02*
X88788001Y-93919000I-249999J0D01*
G01*
X87487999Y-93919000D01*
G75*
G02*
X87238000Y-93669001I0J249999D01*
G01*
X87238000Y-92843999D01*
G75*
G02*
X87487999Y-92594000I249999J0D01*
G01*
G37*
G36*
G01*
X87487999Y-89469000D02*
X88788001Y-89469000D01*
G75*
G02*
X89038000Y-89718999I0J-249999D01*
G01*
X89038000Y-90544001D01*
G75*
G02*
X88788001Y-90794000I-249999J0D01*
G01*
X87487999Y-90794000D01*
G75*
G02*
X87238000Y-90544001I0J249999D01*
G01*
X87238000Y-89718999D01*
G75*
G02*
X87487999Y-89469000I249999J0D01*
G01*
G37*
G36*
G01*
X90816000Y-60086001D02*
X90816000Y-58785999D01*
G75*
G02*
X91065999Y-58536000I249999J0D01*
G01*
X91891001Y-58536000D01*
G75*
G02*
X92141000Y-58785999I0J-249999D01*
G01*
X92141000Y-60086001D01*
G75*
G02*
X91891001Y-60336000I-249999J0D01*
G01*
X91065999Y-60336000D01*
G75*
G02*
X90816000Y-60086001I0J249999D01*
G01*
G37*
G36*
G01*
X87691000Y-60086001D02*
X87691000Y-58785999D01*
G75*
G02*
X87940999Y-58536000I249999J0D01*
G01*
X88766001Y-58536000D01*
G75*
G02*
X89016000Y-58785999I0J-249999D01*
G01*
X89016000Y-60086001D01*
G75*
G02*
X88766001Y-60336000I-249999J0D01*
G01*
X87940999Y-60336000D01*
G75*
G02*
X87691000Y-60086001I0J249999D01*
G01*
G37*
G36*
G01*
X103770000Y-76596001D02*
X103770000Y-75295999D01*
G75*
G02*
X104019999Y-75046000I249999J0D01*
G01*
X104845001Y-75046000D01*
G75*
G02*
X105095000Y-75295999I0J-249999D01*
G01*
X105095000Y-76596001D01*
G75*
G02*
X104845001Y-76846000I-249999J0D01*
G01*
X104019999Y-76846000D01*
G75*
G02*
X103770000Y-76596001I0J249999D01*
G01*
G37*
G36*
G01*
X100645000Y-76596001D02*
X100645000Y-75295999D01*
G75*
G02*
X100894999Y-75046000I249999J0D01*
G01*
X101720001Y-75046000D01*
G75*
G02*
X101970000Y-75295999I0J-249999D01*
G01*
X101970000Y-76596001D01*
G75*
G02*
X101720001Y-76846000I-249999J0D01*
G01*
X100894999Y-76846000D01*
G75*
G02*
X100645000Y-76596001I0J249999D01*
G01*
G37*
G36*
G01*
X103770000Y-72532001D02*
X103770000Y-71231999D01*
G75*
G02*
X104019999Y-70982000I249999J0D01*
G01*
X104845001Y-70982000D01*
G75*
G02*
X105095000Y-71231999I0J-249999D01*
G01*
X105095000Y-72532001D01*
G75*
G02*
X104845001Y-72782000I-249999J0D01*
G01*
X104019999Y-72782000D01*
G75*
G02*
X103770000Y-72532001I0J249999D01*
G01*
G37*
G36*
G01*
X100645000Y-72532001D02*
X100645000Y-71231999D01*
G75*
G02*
X100894999Y-70982000I249999J0D01*
G01*
X101720001Y-70982000D01*
G75*
G02*
X101970000Y-71231999I0J-249999D01*
G01*
X101970000Y-72532001D01*
G75*
G02*
X101720001Y-72782000I-249999J0D01*
G01*
X100894999Y-72782000D01*
G75*
G02*
X100645000Y-72532001I0J249999D01*
G01*
G37*
G36*
G01*
X41772000Y-84439999D02*
X41772000Y-85740001D01*
G75*
G02*
X41522001Y-85990000I-249999J0D01*
G01*
X40696999Y-85990000D01*
G75*
G02*
X40447000Y-85740001I0J249999D01*
G01*
X40447000Y-84439999D01*
G75*
G02*
X40696999Y-84190000I249999J0D01*
G01*
X41522001Y-84190000D01*
G75*
G02*
X41772000Y-84439999I0J-249999D01*
G01*
G37*
G36*
G01*
X44897000Y-84439999D02*
X44897000Y-85740001D01*
G75*
G02*
X44647001Y-85990000I-249999J0D01*
G01*
X43821999Y-85990000D01*
G75*
G02*
X43572000Y-85740001I0J249999D01*
G01*
X43572000Y-84439999D01*
G75*
G02*
X43821999Y-84190000I249999J0D01*
G01*
X44647001Y-84190000D01*
G75*
G02*
X44897000Y-84439999I0J-249999D01*
G01*
G37*
G36*
G01*
X41772000Y-88249999D02*
X41772000Y-89550001D01*
G75*
G02*
X41522001Y-89800000I-249999J0D01*
G01*
X40696999Y-89800000D01*
G75*
G02*
X40447000Y-89550001I0J249999D01*
G01*
X40447000Y-88249999D01*
G75*
G02*
X40696999Y-88000000I249999J0D01*
G01*
X41522001Y-88000000D01*
G75*
G02*
X41772000Y-88249999I0J-249999D01*
G01*
G37*
G36*
G01*
X44897000Y-88249999D02*
X44897000Y-89550001D01*
G75*
G02*
X44647001Y-89800000I-249999J0D01*
G01*
X43821999Y-89800000D01*
G75*
G02*
X43572000Y-89550001I0J249999D01*
G01*
X43572000Y-88249999D01*
G75*
G02*
X43821999Y-88000000I249999J0D01*
G01*
X44647001Y-88000000D01*
G75*
G02*
X44897000Y-88249999I0J-249999D01*
G01*
G37*
G36*
G01*
X41772000Y-65389999D02*
X41772000Y-66690001D01*
G75*
G02*
X41522001Y-66940000I-249999J0D01*
G01*
X40696999Y-66940000D01*
G75*
G02*
X40447000Y-66690001I0J249999D01*
G01*
X40447000Y-65389999D01*
G75*
G02*
X40696999Y-65140000I249999J0D01*
G01*
X41522001Y-65140000D01*
G75*
G02*
X41772000Y-65389999I0J-249999D01*
G01*
G37*
G36*
G01*
X44897000Y-65389999D02*
X44897000Y-66690001D01*
G75*
G02*
X44647001Y-66940000I-249999J0D01*
G01*
X43821999Y-66940000D01*
G75*
G02*
X43572000Y-66690001I0J249999D01*
G01*
X43572000Y-65389999D01*
G75*
G02*
X43821999Y-65140000I249999J0D01*
G01*
X44647001Y-65140000D01*
G75*
G02*
X44897000Y-65389999I0J-249999D01*
G01*
G37*
G36*
G01*
X41772000Y-69199999D02*
X41772000Y-70500001D01*
G75*
G02*
X41522001Y-70750000I-249999J0D01*
G01*
X40696999Y-70750000D01*
G75*
G02*
X40447000Y-70500001I0J249999D01*
G01*
X40447000Y-69199999D01*
G75*
G02*
X40696999Y-68950000I249999J0D01*
G01*
X41522001Y-68950000D01*
G75*
G02*
X41772000Y-69199999I0J-249999D01*
G01*
G37*
G36*
G01*
X44897000Y-69199999D02*
X44897000Y-70500001D01*
G75*
G02*
X44647001Y-70750000I-249999J0D01*
G01*
X43821999Y-70750000D01*
G75*
G02*
X43572000Y-70500001I0J249999D01*
G01*
X43572000Y-69199999D01*
G75*
G02*
X43821999Y-68950000I249999J0D01*
G01*
X44647001Y-68950000D01*
G75*
G02*
X44897000Y-69199999I0J-249999D01*
G01*
G37*
D13*
X114808000Y-72644000D03*
D14*
X114808000Y-75184000D03*
D13*
X96012000Y-85852000D03*
X96012000Y-88392000D03*
D14*
X96012000Y-90932000D03*
D13*
X101092000Y-96266000D03*
D14*
X103632000Y-96266000D03*
D15*
X110390000Y-63158000D03*
X110390000Y-61158000D03*
X110390000Y-59158000D03*
D16*
X107140000Y-66158000D03*
X105140000Y-66158000D03*
X103140000Y-66158000D03*
X101140000Y-66158000D03*
D15*
X97890000Y-57158000D03*
X97890000Y-63158000D03*
X97890000Y-61158000D03*
X97890000Y-59158000D03*
D17*
X65405000Y-64770000D03*
D18*
X65405000Y-57150000D03*
D17*
X60960000Y-64770000D03*
D18*
X60960000Y-57150000D03*
D13*
X47244000Y-57150000D03*
X47244000Y-59690000D03*
X47244000Y-62230000D03*
X47244000Y-64770000D03*
X47244000Y-67310000D03*
D14*
X47244000Y-69850000D03*
D13*
X47244000Y-78740000D03*
X47244000Y-81280000D03*
X47244000Y-83820000D03*
X47244000Y-86360000D03*
D14*
X47244000Y-88900000D03*
D17*
X85090000Y-92710000D03*
X69850000Y-92710000D03*
X85090000Y-57150000D03*
X69850000Y-90170000D03*
X85090000Y-59690000D03*
X69850000Y-87630000D03*
X85090000Y-62230000D03*
X69850000Y-85090000D03*
X85090000Y-64770000D03*
X69850000Y-82550000D03*
X85090000Y-67310000D03*
X69850000Y-80010000D03*
X85090000Y-69850000D03*
X69850000Y-77470000D03*
X85090000Y-72390000D03*
X69850000Y-74930000D03*
X85090000Y-74930000D03*
X69850000Y-72390000D03*
X85090000Y-77470000D03*
X69850000Y-69850000D03*
X85090000Y-80010000D03*
X69850000Y-67310000D03*
X85090000Y-82550000D03*
X69850000Y-64770000D03*
X85090000Y-85090000D03*
X69850000Y-62230000D03*
X85090000Y-87630000D03*
X69850000Y-59690000D03*
X85090000Y-90170000D03*
D19*
X69850000Y-57150000D03*
D13*
X101092000Y-91186000D03*
X101092000Y-88646000D03*
D14*
X101092000Y-86106000D03*
D18*
X114776000Y-82296000D03*
D19*
X112776000Y-82296000D03*
M02*
