G04 #@! TF.GenerationSoftware,KiCad,Pcbnew,(5.1.10)-1*
G04 #@! TF.CreationDate,2021-11-19T16:29:16+01:00*
G04 #@! TF.ProjectId,WeatherStation,57656174-6865-4725-9374-6174696f6e2e,rev?*
G04 #@! TF.SameCoordinates,Original*
G04 #@! TF.FileFunction,Legend,Bot*
G04 #@! TF.FilePolarity,Positive*
%FSLAX46Y46*%
G04 Gerber Fmt 4.6, Leading zero omitted, Abs format (unit mm)*
G04 Created by KiCad (PCBNEW (5.1.10)-1) date 2021-11-19 16:29:16*
%MOMM*%
%LPD*%
G01*
G04 APERTURE LIST*
%ADD10C,3.200000*%
%ADD11O,1.700000X1.700000*%
%ADD12R,1.700000X1.700000*%
%ADD13O,1.600000X1.600000*%
%ADD14C,1.600000*%
%ADD15R,1.600000X1.600000*%
G04 APERTURE END LIST*
%LPC*%
D10*
X114808000Y-98298000D03*
X42418000Y-51816000D03*
X115062000Y-51816000D03*
X42418000Y-98298000D03*
D11*
X114808000Y-72644000D03*
D12*
X114808000Y-75184000D03*
D11*
X96012000Y-85852000D03*
X96012000Y-88392000D03*
D12*
X96012000Y-90932000D03*
D11*
X101092000Y-96266000D03*
D12*
X103632000Y-96266000D03*
D13*
X65405000Y-64770000D03*
D14*
X65405000Y-57150000D03*
D13*
X60960000Y-64770000D03*
D14*
X60960000Y-57150000D03*
D11*
X47244000Y-57150000D03*
X47244000Y-59690000D03*
X47244000Y-62230000D03*
X47244000Y-64770000D03*
X47244000Y-67310000D03*
D12*
X47244000Y-69850000D03*
D11*
X47244000Y-78740000D03*
X47244000Y-81280000D03*
X47244000Y-83820000D03*
X47244000Y-86360000D03*
D12*
X47244000Y-88900000D03*
D13*
X85090000Y-92710000D03*
X69850000Y-92710000D03*
X85090000Y-57150000D03*
X69850000Y-90170000D03*
X85090000Y-59690000D03*
X69850000Y-87630000D03*
X85090000Y-62230000D03*
X69850000Y-85090000D03*
X85090000Y-64770000D03*
X69850000Y-82550000D03*
X85090000Y-67310000D03*
X69850000Y-80010000D03*
X85090000Y-69850000D03*
X69850000Y-77470000D03*
X85090000Y-72390000D03*
X69850000Y-74930000D03*
X85090000Y-74930000D03*
X69850000Y-72390000D03*
X85090000Y-77470000D03*
X69850000Y-69850000D03*
X85090000Y-80010000D03*
X69850000Y-67310000D03*
X85090000Y-82550000D03*
X69850000Y-64770000D03*
X85090000Y-85090000D03*
X69850000Y-62230000D03*
X85090000Y-87630000D03*
X69850000Y-59690000D03*
X85090000Y-90170000D03*
D15*
X69850000Y-57150000D03*
D11*
X101092000Y-91186000D03*
X101092000Y-88646000D03*
D12*
X101092000Y-86106000D03*
D14*
X114776000Y-82296000D03*
D15*
X112776000Y-82296000D03*
M02*
