%FSLAX45Y45*%
G04 Gerber Fmt 4.5, Leading zero omitted, Abs format (unit mm)*
G04 Created by KiCad (PCBNEW (5.1.10)-1) date 2021-11-19 16:29:33*
%MOMM*%
%LPD*%
G01*
G04 APERTURE LIST*
%TA.AperFunction,Profile*%
%ADD10C,0.050000*%
%TD*%
%ADD11C,0.200000*%
%ADD12C,0.300000*%
G04 APERTURE END LIST*
D10*
X3810000Y-10261600D02*
X3810000Y-4750000D01*
X11938000Y-10261600D02*
X3810000Y-10261600D01*
X11938000Y-4749800D02*
X11938000Y-10261600D01*
X3810000Y-4750000D02*
X11938000Y-4749800D01*
D11*
X4081800Y-5021600D02*
X4401800Y-5341600D01*
X4401800Y-5021600D02*
X4081800Y-5341600D01*
X4081800Y-9669800D02*
X4401800Y-9989800D01*
X4401800Y-9669800D02*
X4081800Y-9989800D01*
X11320800Y-9669800D02*
X11640800Y-9989800D01*
X11640800Y-9669800D02*
X11320800Y-9989800D01*
X11346200Y-5021600D02*
X11666200Y-5341600D01*
X11666200Y-5021600D02*
X11346200Y-5341600D01*
D12*
X4093928Y-10729814D02*
X4093928Y-10429814D01*
X4165357Y-10429814D01*
X4208214Y-10444100D01*
X4236786Y-10472672D01*
X4251071Y-10501243D01*
X4265357Y-10558386D01*
X4265357Y-10601243D01*
X4251071Y-10658386D01*
X4236786Y-10686957D01*
X4208214Y-10715529D01*
X4165357Y-10729814D01*
X4093928Y-10729814D01*
X4393928Y-10729814D02*
X4393928Y-10529814D01*
X4393928Y-10586957D02*
X4408214Y-10558386D01*
X4422500Y-10544100D01*
X4451071Y-10529814D01*
X4479643Y-10529814D01*
X4579643Y-10729814D02*
X4579643Y-10529814D01*
X4579643Y-10429814D02*
X4565357Y-10444100D01*
X4579643Y-10458386D01*
X4593928Y-10444100D01*
X4579643Y-10429814D01*
X4579643Y-10458386D01*
X4765357Y-10729814D02*
X4736786Y-10715529D01*
X4722500Y-10686957D01*
X4722500Y-10429814D01*
X4922500Y-10729814D02*
X4893928Y-10715529D01*
X4879643Y-10686957D01*
X4879643Y-10429814D01*
X5265357Y-10729814D02*
X5265357Y-10429814D01*
X5365357Y-10644100D01*
X5465357Y-10429814D01*
X5465357Y-10729814D01*
X5736786Y-10729814D02*
X5736786Y-10572672D01*
X5722500Y-10544100D01*
X5693928Y-10529814D01*
X5636786Y-10529814D01*
X5608214Y-10544100D01*
X5736786Y-10715529D02*
X5708214Y-10729814D01*
X5636786Y-10729814D01*
X5608214Y-10715529D01*
X5593928Y-10686957D01*
X5593928Y-10658386D01*
X5608214Y-10629814D01*
X5636786Y-10615529D01*
X5708214Y-10615529D01*
X5736786Y-10601243D01*
X5879643Y-10529814D02*
X5879643Y-10829814D01*
X5879643Y-10544100D02*
X5908214Y-10529814D01*
X5965357Y-10529814D01*
X5993928Y-10544100D01*
X6008214Y-10558386D01*
X6022500Y-10586957D01*
X6022500Y-10672672D01*
X6008214Y-10701243D01*
X5993928Y-10715529D01*
X5965357Y-10729814D01*
X5908214Y-10729814D01*
X5879643Y-10715529D01*
X6151071Y-10701243D02*
X6165357Y-10715529D01*
X6151071Y-10729814D01*
X6136786Y-10715529D01*
X6151071Y-10701243D01*
X6151071Y-10729814D01*
X6151071Y-10544100D02*
X6165357Y-10558386D01*
X6151071Y-10572672D01*
X6136786Y-10558386D01*
X6151071Y-10544100D01*
X6151071Y-10572672D01*
X3487500Y-11064100D02*
X3807500Y-11384100D01*
X3807500Y-11064100D02*
X3487500Y-11384100D01*
X4065357Y-11059814D02*
X4251071Y-11059814D01*
X4151071Y-11174100D01*
X4193928Y-11174100D01*
X4222500Y-11188386D01*
X4236786Y-11202671D01*
X4251071Y-11231243D01*
X4251071Y-11302671D01*
X4236786Y-11331243D01*
X4222500Y-11345529D01*
X4193928Y-11359814D01*
X4108214Y-11359814D01*
X4079643Y-11345529D01*
X4065357Y-11331243D01*
X4379643Y-11331243D02*
X4393928Y-11345529D01*
X4379643Y-11359814D01*
X4365357Y-11345529D01*
X4379643Y-11331243D01*
X4379643Y-11359814D01*
X4508214Y-11088386D02*
X4522500Y-11074100D01*
X4551071Y-11059814D01*
X4622500Y-11059814D01*
X4651071Y-11074100D01*
X4665357Y-11088386D01*
X4679643Y-11116957D01*
X4679643Y-11145529D01*
X4665357Y-11188386D01*
X4493928Y-11359814D01*
X4679643Y-11359814D01*
X4865357Y-11059814D02*
X4893928Y-11059814D01*
X4922500Y-11074100D01*
X4936786Y-11088386D01*
X4951071Y-11116957D01*
X4965357Y-11174100D01*
X4965357Y-11245529D01*
X4951071Y-11302671D01*
X4936786Y-11331243D01*
X4922500Y-11345529D01*
X4893928Y-11359814D01*
X4865357Y-11359814D01*
X4836786Y-11345529D01*
X4822500Y-11331243D01*
X4808214Y-11302671D01*
X4793928Y-11245529D01*
X4793928Y-11174100D01*
X4808214Y-11116957D01*
X4822500Y-11088386D01*
X4836786Y-11074100D01*
X4865357Y-11059814D01*
X5151071Y-11059814D02*
X5179643Y-11059814D01*
X5208214Y-11074100D01*
X5222500Y-11088386D01*
X5236786Y-11116957D01*
X5251071Y-11174100D01*
X5251071Y-11245529D01*
X5236786Y-11302671D01*
X5222500Y-11331243D01*
X5208214Y-11345529D01*
X5179643Y-11359814D01*
X5151071Y-11359814D01*
X5122500Y-11345529D01*
X5108214Y-11331243D01*
X5093928Y-11302671D01*
X5079643Y-11245529D01*
X5079643Y-11174100D01*
X5093928Y-11116957D01*
X5108214Y-11088386D01*
X5122500Y-11074100D01*
X5151071Y-11059814D01*
X5379643Y-11359814D02*
X5379643Y-11159814D01*
X5379643Y-11188386D02*
X5393928Y-11174100D01*
X5422500Y-11159814D01*
X5465357Y-11159814D01*
X5493928Y-11174100D01*
X5508214Y-11202671D01*
X5508214Y-11359814D01*
X5508214Y-11202671D02*
X5522500Y-11174100D01*
X5551071Y-11159814D01*
X5593928Y-11159814D01*
X5622500Y-11174100D01*
X5636786Y-11202671D01*
X5636786Y-11359814D01*
X5779643Y-11359814D02*
X5779643Y-11159814D01*
X5779643Y-11188386D02*
X5793928Y-11174100D01*
X5822500Y-11159814D01*
X5865357Y-11159814D01*
X5893928Y-11174100D01*
X5908214Y-11202671D01*
X5908214Y-11359814D01*
X5908214Y-11202671D02*
X5922500Y-11174100D01*
X5951071Y-11159814D01*
X5993928Y-11159814D01*
X6022500Y-11174100D01*
X6036786Y-11202671D01*
X6036786Y-11359814D01*
X6622500Y-11045529D02*
X6365357Y-11431243D01*
X7008214Y-11059814D02*
X7036786Y-11059814D01*
X7065357Y-11074100D01*
X7079643Y-11088386D01*
X7093928Y-11116957D01*
X7108214Y-11174100D01*
X7108214Y-11245529D01*
X7093928Y-11302671D01*
X7079643Y-11331243D01*
X7065357Y-11345529D01*
X7036786Y-11359814D01*
X7008214Y-11359814D01*
X6979643Y-11345529D01*
X6965357Y-11331243D01*
X6951071Y-11302671D01*
X6936786Y-11245529D01*
X6936786Y-11174100D01*
X6951071Y-11116957D01*
X6965357Y-11088386D01*
X6979643Y-11074100D01*
X7008214Y-11059814D01*
X7236786Y-11331243D02*
X7251071Y-11345529D01*
X7236786Y-11359814D01*
X7222500Y-11345529D01*
X7236786Y-11331243D01*
X7236786Y-11359814D01*
X7536786Y-11359814D02*
X7365357Y-11359814D01*
X7451071Y-11359814D02*
X7451071Y-11059814D01*
X7422500Y-11102672D01*
X7393928Y-11131243D01*
X7365357Y-11145529D01*
X7651071Y-11088386D02*
X7665357Y-11074100D01*
X7693928Y-11059814D01*
X7765357Y-11059814D01*
X7793928Y-11074100D01*
X7808214Y-11088386D01*
X7822500Y-11116957D01*
X7822500Y-11145529D01*
X7808214Y-11188386D01*
X7636786Y-11359814D01*
X7822500Y-11359814D01*
X8079643Y-11059814D02*
X8022500Y-11059814D01*
X7993928Y-11074100D01*
X7979643Y-11088386D01*
X7951071Y-11131243D01*
X7936786Y-11188386D01*
X7936786Y-11302671D01*
X7951071Y-11331243D01*
X7965357Y-11345529D01*
X7993928Y-11359814D01*
X8051071Y-11359814D01*
X8079643Y-11345529D01*
X8093928Y-11331243D01*
X8108214Y-11302671D01*
X8108214Y-11231243D01*
X8093928Y-11202671D01*
X8079643Y-11188386D01*
X8051071Y-11174100D01*
X7993928Y-11174100D01*
X7965357Y-11188386D01*
X7951071Y-11202671D01*
X7936786Y-11231243D01*
X8293928Y-11059814D02*
X8322500Y-11059814D01*
X8351071Y-11074100D01*
X8365357Y-11088386D01*
X8379643Y-11116957D01*
X8393928Y-11174100D01*
X8393928Y-11245529D01*
X8379643Y-11302671D01*
X8365357Y-11331243D01*
X8351071Y-11345529D01*
X8322500Y-11359814D01*
X8293928Y-11359814D01*
X8265357Y-11345529D01*
X8251071Y-11331243D01*
X8236786Y-11302671D01*
X8222500Y-11245529D01*
X8222500Y-11174100D01*
X8236786Y-11116957D01*
X8251071Y-11088386D01*
X8265357Y-11074100D01*
X8293928Y-11059814D01*
X8508214Y-11059814D02*
X8508214Y-11116957D01*
X8622500Y-11059814D02*
X8622500Y-11116957D01*
X9065357Y-11474100D02*
X9051071Y-11459814D01*
X9022500Y-11416957D01*
X9008214Y-11388386D01*
X8993928Y-11345529D01*
X8979643Y-11274100D01*
X8979643Y-11216957D01*
X8993928Y-11145529D01*
X9008214Y-11102672D01*
X9022500Y-11074100D01*
X9051071Y-11031243D01*
X9065357Y-11016957D01*
X9308214Y-11159814D02*
X9308214Y-11359814D01*
X9236786Y-11045529D02*
X9165357Y-11259814D01*
X9351071Y-11259814D01*
X9693928Y-11359814D02*
X9693928Y-11059814D01*
X9822500Y-11359814D02*
X9822500Y-11202671D01*
X9808214Y-11174100D01*
X9779643Y-11159814D01*
X9736786Y-11159814D01*
X9708214Y-11174100D01*
X9693928Y-11188386D01*
X10008214Y-11359814D02*
X9979643Y-11345529D01*
X9965357Y-11331243D01*
X9951071Y-11302671D01*
X9951071Y-11216957D01*
X9965357Y-11188386D01*
X9979643Y-11174100D01*
X10008214Y-11159814D01*
X10051071Y-11159814D01*
X10079643Y-11174100D01*
X10093928Y-11188386D01*
X10108214Y-11216957D01*
X10108214Y-11302671D01*
X10093928Y-11331243D01*
X10079643Y-11345529D01*
X10051071Y-11359814D01*
X10008214Y-11359814D01*
X10279643Y-11359814D02*
X10251071Y-11345529D01*
X10236786Y-11316957D01*
X10236786Y-11059814D01*
X10508214Y-11345529D02*
X10479643Y-11359814D01*
X10422500Y-11359814D01*
X10393928Y-11345529D01*
X10379643Y-11316957D01*
X10379643Y-11202671D01*
X10393928Y-11174100D01*
X10422500Y-11159814D01*
X10479643Y-11159814D01*
X10508214Y-11174100D01*
X10522500Y-11202671D01*
X10522500Y-11231243D01*
X10379643Y-11259814D01*
X10636786Y-11345529D02*
X10665357Y-11359814D01*
X10722500Y-11359814D01*
X10751071Y-11345529D01*
X10765357Y-11316957D01*
X10765357Y-11302671D01*
X10751071Y-11274100D01*
X10722500Y-11259814D01*
X10679643Y-11259814D01*
X10651071Y-11245529D01*
X10636786Y-11216957D01*
X10636786Y-11202671D01*
X10651071Y-11174100D01*
X10679643Y-11159814D01*
X10722500Y-11159814D01*
X10751071Y-11174100D01*
X10865357Y-11474100D02*
X10879643Y-11459814D01*
X10908214Y-11416957D01*
X10922500Y-11388386D01*
X10936786Y-11345529D01*
X10951071Y-11274100D01*
X10951071Y-11216957D01*
X10936786Y-11145529D01*
X10922500Y-11102672D01*
X10908214Y-11074100D01*
X10879643Y-11031243D01*
X10865357Y-11016957D01*
X11408214Y-11474100D02*
X11393928Y-11459814D01*
X11365357Y-11416957D01*
X11351071Y-11388386D01*
X11336786Y-11345529D01*
X11322500Y-11274100D01*
X11322500Y-11216957D01*
X11336786Y-11145529D01*
X11351071Y-11102672D01*
X11365357Y-11074100D01*
X11393928Y-11031243D01*
X11408214Y-11016957D01*
X11522500Y-11159814D02*
X11522500Y-11359814D01*
X11522500Y-11188386D02*
X11536786Y-11174100D01*
X11565357Y-11159814D01*
X11608214Y-11159814D01*
X11636786Y-11174100D01*
X11651071Y-11202671D01*
X11651071Y-11359814D01*
X11836786Y-11359814D02*
X11808214Y-11345529D01*
X11793928Y-11331243D01*
X11779643Y-11302671D01*
X11779643Y-11216957D01*
X11793928Y-11188386D01*
X11808214Y-11174100D01*
X11836786Y-11159814D01*
X11879643Y-11159814D01*
X11908214Y-11174100D01*
X11922500Y-11188386D01*
X11936786Y-11216957D01*
X11936786Y-11302671D01*
X11922500Y-11331243D01*
X11908214Y-11345529D01*
X11879643Y-11359814D01*
X11836786Y-11359814D01*
X12022500Y-11159814D02*
X12136786Y-11159814D01*
X12065357Y-11059814D02*
X12065357Y-11316957D01*
X12079643Y-11345529D01*
X12108214Y-11359814D01*
X12136786Y-11359814D01*
X12465357Y-11159814D02*
X12465357Y-11459814D01*
X12465357Y-11174100D02*
X12493928Y-11159814D01*
X12551071Y-11159814D01*
X12579643Y-11174100D01*
X12593928Y-11188386D01*
X12608214Y-11216957D01*
X12608214Y-11302671D01*
X12593928Y-11331243D01*
X12579643Y-11345529D01*
X12551071Y-11359814D01*
X12493928Y-11359814D01*
X12465357Y-11345529D01*
X12779643Y-11359814D02*
X12751071Y-11345529D01*
X12736786Y-11316957D01*
X12736786Y-11059814D01*
X13022500Y-11359814D02*
X13022500Y-11202671D01*
X13008214Y-11174100D01*
X12979643Y-11159814D01*
X12922500Y-11159814D01*
X12893928Y-11174100D01*
X13022500Y-11345529D02*
X12993928Y-11359814D01*
X12922500Y-11359814D01*
X12893928Y-11345529D01*
X12879643Y-11316957D01*
X12879643Y-11288386D01*
X12893928Y-11259814D01*
X12922500Y-11245529D01*
X12993928Y-11245529D01*
X13022500Y-11231243D01*
X13122500Y-11159814D02*
X13236786Y-11159814D01*
X13165357Y-11059814D02*
X13165357Y-11316957D01*
X13179643Y-11345529D01*
X13208214Y-11359814D01*
X13236786Y-11359814D01*
X13451071Y-11345529D02*
X13422500Y-11359814D01*
X13365357Y-11359814D01*
X13336786Y-11345529D01*
X13322500Y-11316957D01*
X13322500Y-11202671D01*
X13336786Y-11174100D01*
X13365357Y-11159814D01*
X13422500Y-11159814D01*
X13451071Y-11174100D01*
X13465357Y-11202671D01*
X13465357Y-11231243D01*
X13322500Y-11259814D01*
X13722500Y-11359814D02*
X13722500Y-11059814D01*
X13722500Y-11345529D02*
X13693928Y-11359814D01*
X13636786Y-11359814D01*
X13608214Y-11345529D01*
X13593928Y-11331243D01*
X13579643Y-11302671D01*
X13579643Y-11216957D01*
X13593928Y-11188386D01*
X13608214Y-11174100D01*
X13636786Y-11159814D01*
X13693928Y-11159814D01*
X13722500Y-11174100D01*
X13836786Y-11474100D02*
X13851071Y-11459814D01*
X13879643Y-11416957D01*
X13893928Y-11388386D01*
X13908214Y-11345529D01*
X13922500Y-11274100D01*
X13922500Y-11216957D01*
X13908214Y-11145529D01*
X13893928Y-11102672D01*
X13879643Y-11074100D01*
X13851071Y-11031243D01*
X13836786Y-11016957D01*
M02*
